<svg width="924" height="287" viewBox="0 0 924 287" fill="none" xmlns="http://www.w3.org/2000/svg">
<path d="M578.2 36C577.763 36 577.336 36.1296 576.972 36.3725C576.609 36.6153 576.325 36.9605 576.158 37.3643C575.991 37.7681 575.947 38.2125 576.032 38.6412C576.118 39.0699 576.328 39.4637 576.637 39.7727C576.946 40.0818 577.34 40.2923 577.769 40.3776C578.198 40.4628 578.642 40.4191 579.046 40.2518C579.45 40.0845 579.795 39.8013 580.038 39.4378C580.28 39.0744 580.41 38.6471 580.41 38.21C580.41 37.6239 580.177 37.0618 579.763 36.6473C579.348 36.2329 578.786 36 578.2 36Z" fill="white"/>
<path d="M578.2 48.85C577.763 48.85 577.336 48.9794 576.973 49.2218C576.61 49.4642 576.327 49.8088 576.159 50.212C575.992 50.6152 575.947 51.0591 576.032 51.4875C576.116 51.9159 576.326 52.3097 576.634 52.6192C576.942 52.9287 577.335 53.1399 577.763 53.2263C578.191 53.3127 578.635 53.2704 579.039 53.1047C579.443 52.9389 579.789 52.6572 580.033 52.2951C580.277 51.933 580.408 51.5067 580.41 51.07C580.411 50.779 580.355 50.4905 580.245 50.2212C580.134 49.9519 579.972 49.7071 579.766 49.5008C579.561 49.2946 579.317 49.1309 579.048 49.0192C578.779 48.9075 578.491 48.85 578.2 48.85Z" fill="white"/>
<path d="M578.2 61.71C577.763 61.71 577.336 61.8396 576.972 62.0825C576.609 62.3253 576.325 62.6705 576.158 63.0743C575.991 63.4781 575.947 63.9225 576.032 64.3512C576.118 64.7799 576.328 65.1737 576.637 65.4827C576.946 65.7918 577.34 66.0023 577.769 66.0876C578.198 66.1728 578.642 66.1291 579.046 65.9618C579.45 65.7945 579.795 65.5113 580.038 65.1478C580.28 64.7844 580.41 64.3571 580.41 63.92C580.41 63.3339 580.177 62.7718 579.763 62.3573C579.348 61.9429 578.786 61.71 578.2 61.71Z" fill="white"/>
<path d="M578.2 74.57C577.763 74.57 577.336 74.6996 576.972 74.9425C576.609 75.1853 576.325 75.5305 576.158 75.9343C575.991 76.3381 575.947 76.7825 576.032 77.2112C576.118 77.6399 576.328 78.0337 576.637 78.3427C576.946 78.6518 577.34 78.8623 577.769 78.9476C578.198 79.0328 578.642 78.9891 579.046 78.8218C579.45 78.6545 579.795 78.3713 580.038 78.0078C580.28 77.6444 580.41 77.2171 580.41 76.78C580.41 76.1939 580.177 75.6318 579.763 75.2173C579.348 74.8029 578.786 74.57 578.2 74.57Z" fill="white"/>
<path d="M578.2 87.42C577.763 87.42 577.336 87.5496 576.972 87.7925C576.609 88.0353 576.325 88.3805 576.158 88.7843C575.991 89.1881 575.947 89.6325 576.032 90.0612C576.118 90.4899 576.328 90.8837 576.637 91.1927C576.946 91.5018 577.34 91.7123 577.769 91.7976C578.198 91.8828 578.642 91.8391 579.046 91.6718C579.45 91.5045 579.795 91.2213 580.038 90.8578C580.28 90.4944 580.41 90.0671 580.41 89.63C580.41 89.0439 580.177 88.4818 579.763 88.0673C579.348 87.6529 578.786 87.42 578.2 87.42Z" fill="white"/>
<path d="M578.2 100.28C577.763 100.28 577.336 100.41 576.972 100.652C576.609 100.895 576.325 101.24 576.158 101.644C575.991 102.048 575.947 102.492 576.032 102.921C576.118 103.35 576.328 103.744 576.637 104.053C576.946 104.362 577.34 104.572 577.769 104.658C578.198 104.743 578.642 104.699 579.046 104.532C579.45 104.365 579.795 104.081 580.038 103.718C580.28 103.354 580.41 102.927 580.41 102.49C580.41 101.904 580.177 101.342 579.763 100.927C579.348 100.513 578.786 100.28 578.2 100.28Z" fill="white"/>
<path d="M578.2 113.14C577.763 113.14 577.336 113.27 576.972 113.512C576.609 113.755 576.325 114.1 576.158 114.504C575.991 114.908 575.947 115.352 576.032 115.781C576.118 116.21 576.328 116.604 576.637 116.913C576.946 117.222 577.34 117.432 577.769 117.518C578.198 117.603 578.642 117.559 579.046 117.392C579.45 117.225 579.795 116.941 580.038 116.578C580.28 116.214 580.41 115.787 580.41 115.35C580.41 114.764 580.177 114.202 579.763 113.787C579.348 113.373 578.786 113.14 578.2 113.14Z" fill="white"/>
<path d="M578.2 126C577.762 126 577.335 126.13 576.971 126.373C576.608 126.616 576.324 126.962 576.157 127.367C575.99 127.771 575.947 128.216 576.033 128.645C576.119 129.074 576.331 129.468 576.641 129.776C576.951 130.085 577.346 130.295 577.775 130.379C578.204 130.463 578.649 130.418 579.053 130.249C579.456 130.08 579.801 129.795 580.042 129.431C580.284 129.066 580.412 128.638 580.41 128.2C580.41 127.91 580.353 127.623 580.242 127.356C580.13 127.088 579.967 126.845 579.762 126.641C579.557 126.436 579.313 126.275 579.045 126.165C578.777 126.055 578.49 125.999 578.2 126Z" fill="white"/>
<path d="M578.2 138.85C577.763 138.85 577.336 138.98 576.972 139.222C576.609 139.465 576.325 139.81 576.158 140.214C575.991 140.618 575.947 141.062 576.032 141.491C576.118 141.92 576.328 142.314 576.637 142.623C576.946 142.932 577.34 143.142 577.769 143.228C578.198 143.313 578.642 143.269 579.046 143.102C579.45 142.935 579.795 142.651 580.038 142.288C580.28 141.924 580.41 141.497 580.41 141.06C580.411 140.769 580.355 140.481 580.244 140.213C580.134 139.944 579.971 139.7 579.766 139.494C579.56 139.289 579.316 139.126 579.047 139.016C578.779 138.905 578.491 138.849 578.2 138.85Z" fill="white"/>
<path d="M591.06 40.42C591.497 40.42 591.924 40.2904 592.288 40.0476C592.651 39.8047 592.935 39.4596 593.102 39.0558C593.269 38.6519 593.313 38.2076 593.228 37.7789C593.142 37.3502 592.932 36.9564 592.623 36.6473C592.314 36.3382 591.92 36.1278 591.491 36.0425C591.062 35.9572 590.618 36.001 590.214 36.1682C589.81 36.3355 589.465 36.6188 589.222 36.9822C588.98 37.3456 588.85 37.7729 588.85 38.21C588.85 38.7962 589.083 39.3583 589.497 39.7727C589.912 40.1872 590.474 40.42 591.06 40.42Z" fill="white"/>
<path d="M591.06 48.85C590.623 48.85 590.196 48.9794 589.833 49.2218C589.47 49.4642 589.187 49.8088 589.019 50.212C588.852 50.6152 588.807 51.0591 588.892 51.4875C588.976 51.9159 589.186 52.3097 589.494 52.6192C589.802 52.9287 590.195 53.1399 590.623 53.2263C591.051 53.3127 591.495 53.2704 591.899 53.1047C592.303 52.9389 592.649 52.6572 592.893 52.2951C593.137 51.933 593.268 51.5067 593.27 51.07C593.271 50.779 593.215 50.4905 593.105 50.2212C592.994 49.9519 592.832 49.7071 592.626 49.5008C592.421 49.2946 592.177 49.1309 591.908 49.0192C591.639 48.9075 591.351 48.85 591.06 48.85Z" fill="white"/>
<path d="M591.06 61.71C590.623 61.71 590.196 61.8396 589.832 62.0825C589.469 62.3253 589.185 62.6705 589.018 63.0743C588.851 63.4781 588.807 63.9225 588.892 64.3512C588.978 64.7799 589.188 65.1737 589.497 65.4827C589.806 65.7918 590.2 66.0023 590.629 66.0876C591.058 66.1728 591.502 66.1291 591.906 65.9618C592.31 65.7945 592.655 65.5113 592.898 65.1478C593.14 64.7844 593.27 64.3571 593.27 63.92C593.271 63.6294 593.215 63.3415 593.104 63.0727C592.994 62.804 592.831 62.5598 592.626 62.3544C592.42 62.1489 592.176 61.9861 591.907 61.8756C591.639 61.765 591.351 61.7087 591.06 61.71Z" fill="white"/>
<path d="M591.06 74.57C590.623 74.57 590.196 74.6996 589.832 74.9425C589.469 75.1853 589.185 75.5305 589.018 75.9343C588.851 76.3381 588.807 76.7825 588.892 77.2112C588.978 77.6399 589.188 78.0337 589.497 78.3427C589.806 78.6518 590.2 78.8623 590.629 78.9476C591.058 79.0328 591.502 78.9891 591.906 78.8218C592.31 78.6545 592.655 78.3713 592.898 78.0078C593.14 77.6444 593.27 77.2171 593.27 76.78C593.271 76.4894 593.215 76.2015 593.104 75.9327C592.994 75.664 592.831 75.4198 592.626 75.2144C592.42 75.0089 592.176 74.8461 591.907 74.7356C591.639 74.625 591.351 74.5687 591.06 74.57Z" fill="white"/>
<path d="M591.06 87.42C590.623 87.42 590.196 87.5496 589.832 87.7925C589.469 88.0353 589.185 88.3805 589.018 88.7843C588.851 89.1881 588.807 89.6325 588.892 90.0612C588.978 90.4899 589.188 90.8837 589.497 91.1927C589.806 91.5018 590.2 91.7123 590.629 91.7976C591.058 91.8828 591.502 91.8391 591.906 91.6718C592.31 91.5045 592.655 91.2213 592.898 90.8578C593.14 90.4944 593.27 90.0671 593.27 89.63C593.271 89.3394 593.215 89.0515 593.104 88.7827C592.994 88.514 592.831 88.2698 592.626 88.0644C592.42 87.8589 592.176 87.6961 591.907 87.5856C591.639 87.475 591.351 87.4187 591.06 87.42Z" fill="white"/>
<path d="M591.06 100.28C590.623 100.28 590.196 100.41 589.832 100.652C589.469 100.895 589.185 101.24 589.018 101.644C588.851 102.048 588.807 102.492 588.892 102.921C588.978 103.35 589.188 103.744 589.497 104.053C589.806 104.362 590.2 104.572 590.629 104.658C591.058 104.743 591.502 104.699 591.906 104.532C592.31 104.365 592.655 104.081 592.898 103.718C593.14 103.354 593.27 102.927 593.27 102.49C593.271 102.199 593.215 101.911 593.104 101.643C592.994 101.374 592.831 101.13 592.626 100.924C592.42 100.719 592.176 100.556 591.907 100.446C591.639 100.335 591.351 100.279 591.06 100.28Z" fill="white"/>
<path d="M591.06 113.14C590.623 113.14 590.196 113.27 589.832 113.512C589.469 113.755 589.185 114.1 589.018 114.504C588.851 114.908 588.807 115.352 588.892 115.781C588.978 116.21 589.188 116.604 589.497 116.913C589.806 117.222 590.2 117.432 590.629 117.518C591.058 117.603 591.502 117.559 591.906 117.392C592.31 117.225 592.655 116.941 592.898 116.578C593.14 116.214 593.27 115.787 593.27 115.35C593.271 115.059 593.215 114.771 593.104 114.503C592.994 114.234 592.831 113.99 592.626 113.784C592.42 113.579 592.176 113.416 591.907 113.306C591.639 113.195 591.351 113.139 591.06 113.14Z" fill="white"/>
<path d="M591.06 126C590.622 126 590.195 126.13 589.831 126.373C589.468 126.616 589.184 126.962 589.017 127.367C588.85 127.771 588.807 128.216 588.893 128.645C588.979 129.074 589.191 129.468 589.501 129.776C589.811 130.085 590.206 130.295 590.635 130.379C591.064 130.463 591.509 130.418 591.913 130.249C592.316 130.08 592.661 129.795 592.902 129.431C593.144 129.066 593.272 128.638 593.27 128.2C593.27 127.91 593.213 127.623 593.102 127.356C592.99 127.088 592.827 126.845 592.622 126.641C592.417 126.436 592.173 126.275 591.905 126.165C591.637 126.055 591.35 125.999 591.06 126Z" fill="white"/>
<path d="M591.06 138.85C590.623 138.85 590.196 138.98 589.832 139.222C589.469 139.465 589.185 139.81 589.018 140.214C588.851 140.618 588.807 141.062 588.892 141.491C588.978 141.92 589.188 142.314 589.497 142.623C589.806 142.932 590.2 143.142 590.629 143.228C591.058 143.313 591.502 143.269 591.906 143.102C592.31 142.935 592.655 142.651 592.898 142.288C593.14 141.924 593.27 141.497 593.27 141.06C593.271 140.769 593.215 140.481 593.104 140.213C592.994 139.944 592.831 139.7 592.626 139.494C592.42 139.289 592.176 139.126 591.907 139.016C591.639 138.905 591.351 138.849 591.06 138.85Z" fill="white"/>
<path d="M488.21 36C487.773 36 487.346 36.1296 486.982 36.3725C486.619 36.6153 486.335 36.9605 486.168 37.3643C486.001 37.7681 485.957 38.2125 486.042 38.6412C486.128 39.0699 486.338 39.4637 486.647 39.7727C486.956 40.0818 487.35 40.2923 487.779 40.3776C488.208 40.4628 488.652 40.4191 489.056 40.2518C489.46 40.0845 489.805 39.8013 490.048 39.4378C490.29 39.0744 490.42 38.6471 490.42 38.21C490.42 37.6239 490.187 37.0618 489.773 36.6473C489.358 36.2329 488.796 36 488.21 36Z" fill="white"/>
<path d="M488.21 48.85C487.773 48.85 487.346 48.9794 486.983 49.2218C486.62 49.4642 486.337 49.8088 486.169 50.212C486.002 50.6152 485.957 51.0591 486.042 51.4875C486.126 51.9159 486.336 52.3097 486.644 52.6192C486.952 52.9287 487.345 53.1399 487.773 53.2263C488.201 53.3127 488.645 53.2704 489.049 53.1047C489.453 52.9389 489.799 52.6572 490.043 52.2951C490.287 51.933 490.418 51.5067 490.42 51.07C490.421 50.779 490.365 50.4905 490.255 50.2212C490.144 49.9519 489.982 49.7071 489.776 49.5008C489.571 49.2946 489.327 49.1309 489.058 49.0192C488.789 48.9075 488.501 48.85 488.21 48.85Z" fill="white"/>
<path d="M488.21 61.71C487.773 61.71 487.346 61.8396 486.982 62.0825C486.619 62.3253 486.335 62.6705 486.168 63.0743C486.001 63.4781 485.957 63.9225 486.042 64.3512C486.128 64.7799 486.338 65.1737 486.647 65.4827C486.956 65.7918 487.35 66.0023 487.779 66.0876C488.208 66.1728 488.652 66.1291 489.056 65.9618C489.46 65.7945 489.805 65.5113 490.048 65.1478C490.29 64.7844 490.42 64.3571 490.42 63.92C490.42 63.3339 490.187 62.7718 489.773 62.3573C489.358 61.9429 488.796 61.71 488.21 61.71Z" fill="white"/>
<path d="M488.21 74.57C487.773 74.57 487.346 74.6996 486.982 74.9425C486.619 75.1853 486.335 75.5305 486.168 75.9343C486.001 76.3381 485.957 76.7825 486.042 77.2112C486.128 77.6399 486.338 78.0337 486.647 78.3427C486.956 78.6518 487.35 78.8623 487.779 78.9476C488.208 79.0328 488.652 78.9891 489.056 78.8218C489.46 78.6545 489.805 78.3713 490.048 78.0078C490.29 77.6444 490.42 77.2171 490.42 76.78C490.42 76.1939 490.187 75.6318 489.773 75.2173C489.358 74.8029 488.796 74.57 488.21 74.57Z" fill="white"/>
<path d="M488.21 87.42C487.773 87.42 487.346 87.5496 486.982 87.7925C486.619 88.0353 486.335 88.3805 486.168 88.7843C486.001 89.1881 485.957 89.6325 486.042 90.0612C486.128 90.4899 486.338 90.8837 486.647 91.1927C486.956 91.5018 487.35 91.7123 487.779 91.7976C488.208 91.8828 488.652 91.8391 489.056 91.6718C489.46 91.5045 489.805 91.2213 490.048 90.8578C490.29 90.4944 490.42 90.0671 490.42 89.63C490.42 89.0439 490.187 88.4818 489.773 88.0673C489.358 87.6529 488.796 87.42 488.21 87.42Z" fill="white"/>
<path d="M488.21 100.28C487.773 100.28 487.346 100.41 486.982 100.652C486.619 100.895 486.335 101.24 486.168 101.644C486.001 102.048 485.957 102.492 486.042 102.921C486.128 103.35 486.338 103.744 486.647 104.053C486.956 104.362 487.35 104.572 487.779 104.658C488.208 104.743 488.652 104.699 489.056 104.532C489.46 104.365 489.805 104.081 490.048 103.718C490.29 103.354 490.42 102.927 490.42 102.49C490.42 101.904 490.187 101.342 489.773 100.927C489.358 100.513 488.796 100.28 488.21 100.28Z" fill="white"/>
<path d="M488.21 113.14C487.773 113.14 487.346 113.27 486.982 113.512C486.619 113.755 486.335 114.1 486.168 114.504C486.001 114.908 485.957 115.352 486.042 115.781C486.128 116.21 486.338 116.604 486.647 116.913C486.956 117.222 487.35 117.432 487.779 117.518C488.208 117.603 488.652 117.559 489.056 117.392C489.46 117.225 489.805 116.941 490.048 116.578C490.29 116.214 490.42 115.787 490.42 115.35C490.42 114.764 490.187 114.202 489.773 113.787C489.358 113.373 488.796 113.14 488.21 113.14Z" fill="white"/>
<path d="M488.21 126C487.772 126 487.345 126.13 486.981 126.373C486.618 126.616 486.334 126.962 486.167 127.367C486 127.771 485.957 128.216 486.043 128.645C486.129 129.074 486.341 129.468 486.651 129.776C486.961 130.085 487.356 130.295 487.785 130.379C488.214 130.463 488.659 130.418 489.063 130.249C489.466 130.08 489.811 129.795 490.052 129.431C490.294 129.066 490.422 128.638 490.42 128.2C490.42 127.91 490.363 127.623 490.252 127.356C490.14 127.088 489.977 126.845 489.772 126.641C489.567 126.436 489.323 126.275 489.055 126.165C488.787 126.055 488.5 125.999 488.21 126Z" fill="white"/>
<path d="M488.21 138.85C487.773 138.85 487.346 138.98 486.982 139.222C486.619 139.465 486.335 139.81 486.168 140.214C486.001 140.618 485.957 141.062 486.042 141.491C486.128 141.92 486.338 142.314 486.647 142.623C486.956 142.932 487.35 143.142 487.779 143.228C488.208 143.313 488.652 143.269 489.056 143.102C489.46 142.935 489.805 142.651 490.048 142.288C490.29 141.924 490.42 141.497 490.42 141.06C490.421 140.769 490.365 140.481 490.254 140.213C490.144 139.944 489.981 139.7 489.776 139.494C489.57 139.289 489.326 139.126 489.057 139.016C488.789 138.905 488.501 138.849 488.21 138.85Z" fill="white"/>
<path d="M501.07 36C500.633 36 500.206 36.1296 499.842 36.3725C499.479 36.6153 499.195 36.9605 499.028 37.3643C498.861 37.7681 498.817 38.2125 498.902 38.6412C498.988 39.0699 499.198 39.4637 499.507 39.7727C499.816 40.0818 500.21 40.2923 500.639 40.3776C501.068 40.4628 501.512 40.4191 501.916 40.2518C502.32 40.0845 502.665 39.8013 502.908 39.4378C503.15 39.0744 503.28 38.6471 503.28 38.21C503.281 37.9194 503.225 37.6315 503.114 37.3627C503.004 37.094 502.841 36.8498 502.636 36.6444C502.43 36.4389 502.186 36.2761 501.917 36.1656C501.649 36.055 501.361 35.9987 501.07 36Z" fill="white"/>
<path d="M501.07 48.85C500.633 48.85 500.206 48.9794 499.843 49.2218C499.48 49.4642 499.197 49.8088 499.029 50.212C498.862 50.6152 498.817 51.0591 498.902 51.4875C498.986 51.9159 499.196 52.3097 499.504 52.6192C499.812 52.9287 500.205 53.1399 500.633 53.2263C501.061 53.3127 501.505 53.2704 501.909 53.1047C502.313 52.9389 502.659 52.6572 502.903 52.2951C503.147 51.933 503.278 51.5067 503.28 51.07C503.281 50.779 503.225 50.4905 503.115 50.2212C503.004 49.9519 502.842 49.7071 502.636 49.5008C502.431 49.2946 502.187 49.1309 501.918 49.0192C501.649 48.9075 501.361 48.85 501.07 48.85Z" fill="white"/>
<path d="M501.07 61.71C500.633 61.71 500.206 61.8396 499.842 62.0825C499.479 62.3253 499.195 62.6705 499.028 63.0743C498.861 63.4781 498.817 63.9225 498.902 64.3512C498.988 64.7799 499.198 65.1737 499.507 65.4827C499.816 65.7918 500.21 66.0023 500.639 66.0876C501.068 66.1728 501.512 66.1291 501.916 65.9618C502.32 65.7945 502.665 65.5113 502.908 65.1478C503.15 64.7844 503.28 64.3571 503.28 63.92C503.281 63.6294 503.225 63.3415 503.114 63.0727C503.004 62.804 502.841 62.5598 502.636 62.3544C502.43 62.1489 502.186 61.9861 501.917 61.8756C501.649 61.765 501.361 61.7087 501.07 61.71Z" fill="white"/>
<path d="M501.07 74.57C500.633 74.57 500.206 74.6996 499.842 74.9425C499.479 75.1853 499.195 75.5305 499.028 75.9343C498.861 76.3381 498.817 76.7825 498.902 77.2112C498.988 77.6399 499.198 78.0337 499.507 78.3427C499.816 78.6518 500.21 78.8623 500.639 78.9476C501.068 79.0328 501.512 78.9891 501.916 78.8218C502.32 78.6545 502.665 78.3713 502.908 78.0078C503.15 77.6444 503.28 77.2171 503.28 76.78C503.281 76.4894 503.225 76.2015 503.114 75.9327C503.004 75.664 502.841 75.4198 502.636 75.2144C502.43 75.0089 502.186 74.8461 501.917 74.7356C501.649 74.625 501.361 74.5687 501.07 74.57Z" fill="white"/>
<path d="M501.07 87.42C500.633 87.42 500.206 87.5496 499.842 87.7925C499.479 88.0353 499.195 88.3805 499.028 88.7843C498.861 89.1881 498.817 89.6325 498.902 90.0612C498.988 90.4899 499.198 90.8837 499.507 91.1927C499.816 91.5018 500.21 91.7123 500.639 91.7976C501.068 91.8828 501.512 91.8391 501.916 91.6718C502.32 91.5045 502.665 91.2213 502.908 90.8578C503.15 90.4944 503.28 90.0671 503.28 89.63C503.281 89.3394 503.225 89.0515 503.114 88.7827C503.004 88.514 502.841 88.2698 502.636 88.0644C502.43 87.8589 502.186 87.6961 501.917 87.5856C501.649 87.475 501.361 87.4187 501.07 87.42Z" fill="white"/>
<path d="M501.07 100.28C500.633 100.28 500.206 100.41 499.842 100.652C499.479 100.895 499.195 101.24 499.028 101.644C498.861 102.048 498.817 102.492 498.902 102.921C498.988 103.35 499.198 103.744 499.507 104.053C499.816 104.362 500.21 104.572 500.639 104.658C501.068 104.743 501.512 104.699 501.916 104.532C502.32 104.365 502.665 104.081 502.908 103.718C503.15 103.354 503.28 102.927 503.28 102.49C503.281 102.199 503.225 101.911 503.114 101.643C503.004 101.374 502.841 101.13 502.636 100.924C502.43 100.719 502.186 100.556 501.917 100.446C501.649 100.335 501.361 100.279 501.07 100.28Z" fill="white"/>
<path d="M501.07 113.14C500.633 113.14 500.206 113.27 499.842 113.512C499.479 113.755 499.195 114.1 499.028 114.504C498.861 114.908 498.817 115.352 498.902 115.781C498.988 116.21 499.198 116.604 499.507 116.913C499.816 117.222 500.21 117.432 500.639 117.518C501.068 117.603 501.512 117.559 501.916 117.392C502.32 117.225 502.665 116.941 502.908 116.578C503.15 116.214 503.28 115.787 503.28 115.35C503.281 115.059 503.225 114.771 503.114 114.503C503.004 114.234 502.841 113.99 502.636 113.784C502.43 113.579 502.186 113.416 501.917 113.306C501.649 113.195 501.361 113.139 501.07 113.14Z" fill="white"/>
<path d="M501.07 126C500.632 126 500.205 126.13 499.841 126.373C499.478 126.616 499.194 126.962 499.027 127.367C498.86 127.771 498.817 128.216 498.903 128.645C498.989 129.074 499.201 129.468 499.511 129.776C499.821 130.085 500.216 130.295 500.645 130.379C501.074 130.463 501.519 130.418 501.923 130.249C502.326 130.08 502.671 129.795 502.912 129.431C503.154 129.066 503.282 128.638 503.28 128.2C503.28 127.91 503.223 127.623 503.112 127.356C503 127.088 502.837 126.845 502.632 126.641C502.427 126.436 502.183 126.275 501.915 126.165C501.647 126.055 501.36 125.999 501.07 126Z" fill="white"/>
<path d="M501.07 138.85C500.633 138.85 500.206 138.98 499.842 139.222C499.479 139.465 499.195 139.81 499.028 140.214C498.861 140.618 498.817 141.062 498.902 141.491C498.988 141.92 499.198 142.314 499.507 142.623C499.816 142.932 500.21 143.142 500.639 143.228C501.068 143.313 501.512 143.269 501.916 143.102C502.32 142.935 502.665 142.651 502.908 142.288C503.15 141.924 503.28 141.497 503.28 141.06C503.281 140.769 503.225 140.481 503.114 140.213C503.004 139.944 502.841 139.7 502.636 139.494C502.43 139.289 502.186 139.126 501.917 139.016C501.649 138.905 501.361 138.849 501.07 138.85Z" fill="white"/>
<path d="M513.92 36C513.483 36 513.056 36.1296 512.692 36.3725C512.329 36.6153 512.045 36.9605 511.878 37.3643C511.711 37.7681 511.667 38.2125 511.752 38.6412C511.838 39.0699 512.048 39.4637 512.357 39.7727C512.666 40.0818 513.06 40.2923 513.489 40.3776C513.918 40.4628 514.362 40.4191 514.766 40.2518C515.17 40.0845 515.515 39.8013 515.758 39.4378C516 39.0744 516.13 38.6471 516.13 38.21C516.13 37.6239 515.897 37.0618 515.483 36.6473C515.068 36.2329 514.506 36 513.92 36Z" fill="white"/>
<path d="M513.92 48.85C513.483 48.85 513.056 48.9794 512.693 49.2218C512.33 49.4642 512.047 49.8088 511.879 50.212C511.712 50.6152 511.667 51.0591 511.752 51.4875C511.836 51.9159 512.046 52.3097 512.354 52.6192C512.662 52.9287 513.055 53.1399 513.483 53.2263C513.911 53.3127 514.355 53.2704 514.759 53.1047C515.163 52.9389 515.509 52.6572 515.753 52.2951C515.997 51.933 516.128 51.5067 516.13 51.07C516.131 50.779 516.075 50.4905 515.965 50.2212C515.854 49.9519 515.692 49.7071 515.486 49.5008C515.281 49.2946 515.037 49.1309 514.768 49.0192C514.499 48.9075 514.211 48.85 513.92 48.85Z" fill="white"/>
<path d="M513.92 61.71C513.483 61.71 513.056 61.8396 512.692 62.0825C512.329 62.3253 512.045 62.6705 511.878 63.0743C511.711 63.4781 511.667 63.9225 511.752 64.3512C511.838 64.7799 512.048 65.1737 512.357 65.4827C512.666 65.7918 513.06 66.0023 513.489 66.0876C513.918 66.1728 514.362 66.1291 514.766 65.9618C515.17 65.7945 515.515 65.5113 515.758 65.1478C516 64.7844 516.13 64.3571 516.13 63.92C516.13 63.3339 515.897 62.7718 515.483 62.3573C515.068 61.9429 514.506 61.71 513.92 61.71Z" fill="white"/>
<path d="M513.92 74.57C513.483 74.57 513.056 74.6996 512.692 74.9425C512.329 75.1853 512.045 75.5305 511.878 75.9343C511.711 76.3381 511.667 76.7825 511.752 77.2112C511.838 77.6399 512.048 78.0337 512.357 78.3427C512.666 78.6518 513.06 78.8623 513.489 78.9476C513.918 79.0328 514.362 78.9891 514.766 78.8218C515.17 78.6545 515.515 78.3713 515.758 78.0078C516 77.6444 516.13 77.2171 516.13 76.78C516.13 76.1939 515.897 75.6318 515.483 75.2173C515.068 74.8029 514.506 74.57 513.92 74.57Z" fill="white"/>
<path d="M513.92 87.42C513.483 87.42 513.056 87.5496 512.692 87.7925C512.329 88.0353 512.045 88.3805 511.878 88.7843C511.711 89.1881 511.667 89.6325 511.752 90.0612C511.838 90.4899 512.048 90.8837 512.357 91.1927C512.666 91.5018 513.06 91.7123 513.489 91.7976C513.918 91.8828 514.362 91.8391 514.766 91.6718C515.17 91.5045 515.515 91.2213 515.758 90.8578C516 90.4944 516.13 90.0671 516.13 89.63C516.13 89.0439 515.897 88.4818 515.483 88.0673C515.068 87.6529 514.506 87.42 513.92 87.42Z" fill="white"/>
<path d="M513.92 100.28C513.483 100.28 513.056 100.41 512.692 100.652C512.329 100.895 512.045 101.24 511.878 101.644C511.711 102.048 511.667 102.492 511.752 102.921C511.838 103.35 512.048 103.744 512.357 104.053C512.666 104.362 513.06 104.572 513.489 104.658C513.918 104.743 514.362 104.699 514.766 104.532C515.17 104.365 515.515 104.081 515.758 103.718C516 103.354 516.13 102.927 516.13 102.49C516.13 101.904 515.897 101.342 515.483 100.927C515.068 100.513 514.506 100.28 513.92 100.28Z" fill="white"/>
<path d="M513.92 113.14C513.483 113.14 513.056 113.27 512.692 113.512C512.329 113.755 512.045 114.1 511.878 114.504C511.711 114.908 511.667 115.352 511.752 115.781C511.838 116.21 512.048 116.604 512.357 116.913C512.666 117.222 513.06 117.432 513.489 117.518C513.918 117.603 514.362 117.559 514.766 117.392C515.17 117.225 515.515 116.941 515.758 116.578C516 116.214 516.13 115.787 516.13 115.35C516.13 114.764 515.897 114.202 515.483 113.787C515.068 113.373 514.506 113.14 513.92 113.14Z" fill="white"/>
<path d="M513.92 126C513.482 126 513.055 126.13 512.691 126.373C512.328 126.616 512.044 126.962 511.877 127.367C511.71 127.771 511.667 128.216 511.753 128.645C511.839 129.074 512.051 129.468 512.361 129.776C512.671 130.085 513.066 130.295 513.495 130.379C513.924 130.463 514.369 130.418 514.773 130.249C515.176 130.08 515.521 129.795 515.762 129.431C516.004 129.066 516.132 128.638 516.13 128.2C516.13 127.91 516.073 127.623 515.962 127.356C515.85 127.088 515.687 126.845 515.482 126.641C515.277 126.436 515.033 126.275 514.765 126.165C514.497 126.055 514.21 125.999 513.92 126Z" fill="white"/>
<path d="M513.92 138.85C513.483 138.85 513.056 138.98 512.692 139.222C512.329 139.465 512.045 139.81 511.878 140.214C511.711 140.618 511.667 141.062 511.752 141.491C511.838 141.92 512.048 142.314 512.357 142.623C512.666 142.932 513.06 143.142 513.489 143.228C513.918 143.313 514.362 143.269 514.766 143.102C515.17 142.935 515.515 142.651 515.758 142.288C516 141.924 516.13 141.497 516.13 141.06C516.131 140.769 516.075 140.481 515.964 140.213C515.854 139.944 515.691 139.7 515.486 139.494C515.28 139.289 515.036 139.126 514.767 139.016C514.499 138.905 514.211 138.849 513.92 138.85Z" fill="white"/>
<path d="M526.78 36C526.343 36.002 525.917 36.1333 525.555 36.3773C525.193 36.6214 524.911 36.9672 524.745 37.3712C524.58 37.7752 524.537 38.2192 524.624 38.6473C524.71 39.0753 524.921 39.4682 525.231 39.7762C525.54 40.0843 525.934 40.2938 526.363 40.3783C526.791 40.4627 527.235 40.4184 527.638 40.2508C528.041 40.0833 528.386 39.8 528.628 39.4368C528.871 39.0736 529 38.6467 529 38.21C529 37.919 528.943 37.6308 528.831 37.362C528.719 37.0932 528.555 36.8491 528.349 36.6438C528.143 36.4384 527.898 36.2758 527.629 36.1654C527.36 36.0549 527.071 35.9987 526.78 36Z" fill="white"/>
<path d="M526.78 48.85C526.344 48.852 525.918 48.983 525.556 49.2266C525.194 49.4702 524.912 49.8155 524.746 50.2189C524.58 50.6223 524.537 51.0658 524.623 51.4936C524.709 51.9214 524.919 52.3142 525.227 52.6227C525.536 52.9312 525.929 53.1415 526.356 53.227C526.784 53.3126 527.228 53.2697 527.631 53.1037C528.035 52.9377 528.38 52.656 528.623 52.2941C528.867 51.9322 528.998 51.5063 529 51.07C529.001 50.7781 528.945 50.4888 528.834 50.2189C528.723 49.949 528.559 49.7037 528.353 49.4973C528.146 49.2909 527.901 49.1274 527.631 49.0163C527.361 48.9052 527.072 48.8487 526.78 48.85Z" fill="white"/>
<path d="M526.78 61.71C526.343 61.712 525.917 61.8433 525.555 62.0873C525.193 62.3314 524.911 62.6772 524.745 63.0812C524.58 63.4852 524.537 63.9292 524.624 64.3573C524.71 64.7853 524.921 65.1782 525.231 65.4862C525.54 65.7943 525.934 66.0038 526.363 66.0883C526.791 66.1727 527.235 66.1284 527.638 65.9608C528.041 65.7933 528.386 65.51 528.628 65.1468C528.871 64.7836 529 64.3567 529 63.92C529 63.629 528.943 63.3408 528.831 63.072C528.719 62.8032 528.555 62.5591 528.349 62.3538C528.143 62.1484 527.898 61.9858 527.629 61.8754C527.36 61.7649 527.071 61.7087 526.78 61.71Z" fill="white"/>
<path d="M526.78 74.57C526.343 74.572 525.917 74.7033 525.555 74.9473C525.193 75.1914 524.911 75.5372 524.745 75.9412C524.58 76.3452 524.537 76.7892 524.624 77.2173C524.71 77.6453 524.921 78.0382 525.231 78.3462C525.54 78.6543 525.934 78.8638 526.363 78.9483C526.791 79.0327 527.235 78.9884 527.638 78.8208C528.041 78.6533 528.386 78.37 528.628 78.0068C528.871 77.6436 529 77.2167 529 76.78C529 76.489 528.943 76.2008 528.831 75.932C528.719 75.6632 528.555 75.4191 528.349 75.2138C528.143 75.0084 527.898 74.8458 527.629 74.7354C527.36 74.6249 527.071 74.5687 526.78 74.57Z" fill="white"/>
<path d="M526.78 87.42C526.343 87.422 525.917 87.5533 525.555 87.7973C525.193 88.0414 524.911 88.3872 524.745 88.7912C524.58 89.1952 524.537 89.6392 524.624 90.0673C524.71 90.4953 524.921 90.8882 525.231 91.1962C525.54 91.5043 525.934 91.7138 526.363 91.7983C526.791 91.8827 527.235 91.8384 527.638 91.6708C528.041 91.5033 528.386 91.22 528.628 90.8568C528.871 90.4936 529 90.0667 529 89.63C529 89.339 528.943 89.0508 528.831 88.782C528.719 88.5132 528.555 88.2691 528.349 88.0638C528.143 87.8584 527.898 87.6958 527.629 87.5854C527.36 87.4749 527.071 87.4187 526.78 87.42Z" fill="white"/>
<path d="M526.78 100.28C526.343 100.282 525.917 100.413 525.555 100.657C525.193 100.901 524.911 101.247 524.745 101.651C524.58 102.055 524.537 102.499 524.624 102.927C524.71 103.355 524.921 103.748 525.231 104.056C525.54 104.364 525.934 104.574 526.363 104.658C526.791 104.743 527.235 104.698 527.638 104.531C528.041 104.363 528.386 104.08 528.628 103.717C528.871 103.354 529 102.927 529 102.49C529 102.199 528.943 101.911 528.831 101.642C528.719 101.373 528.555 101.129 528.349 100.924C528.143 100.718 527.898 100.556 527.629 100.445C527.36 100.335 527.071 100.279 526.78 100.28Z" fill="white"/>
<path d="M526.78 113.14C526.343 113.142 525.917 113.273 525.555 113.517C525.193 113.761 524.911 114.107 524.745 114.511C524.58 114.915 524.537 115.359 524.624 115.787C524.71 116.215 524.921 116.608 525.231 116.916C525.54 117.224 525.934 117.434 526.363 117.518C526.791 117.603 527.235 117.558 527.638 117.391C528.041 117.223 528.386 116.94 528.628 116.577C528.871 116.214 529 115.787 529 115.35C529 115.059 528.943 114.771 528.831 114.502C528.719 114.233 528.555 113.989 528.349 113.784C528.143 113.578 527.898 113.416 527.629 113.305C527.36 113.195 527.071 113.139 526.78 113.14Z" fill="white"/>
<path d="M526.78 126C526.343 126.002 525.916 126.134 525.554 126.378C525.192 126.623 524.91 126.969 524.744 127.374C524.579 127.778 524.537 128.223 524.624 128.651C524.712 129.079 524.924 129.472 525.234 129.78C525.545 130.087 525.94 130.296 526.369 130.379C526.798 130.463 527.242 130.417 527.645 130.248C528.048 130.079 528.392 129.794 528.633 129.429C528.874 129.065 529.002 128.637 529 128.2C529 127.909 528.942 127.622 528.831 127.353C528.719 127.085 528.555 126.842 528.349 126.637C528.142 126.433 527.897 126.271 527.628 126.162C527.359 126.052 527.071 125.997 526.78 126Z" fill="white"/>
<path d="M526.78 138.85C526.343 138.852 525.917 138.983 525.555 139.227C525.193 139.471 524.911 139.817 524.745 140.221C524.58 140.625 524.537 141.069 524.624 141.497C524.71 141.925 524.921 142.318 525.231 142.626C525.54 142.934 525.934 143.144 526.363 143.228C526.791 143.313 527.235 143.268 527.638 143.101C528.041 142.933 528.386 142.65 528.628 142.287C528.871 141.924 529 141.497 529 141.06C529.001 140.769 528.945 140.48 528.834 140.21C528.722 139.941 528.559 139.696 528.352 139.491C528.146 139.285 527.9 139.123 527.63 139.013C527.36 138.903 527.071 138.847 526.78 138.85Z" fill="white"/>
<path d="M539.64 36C539.202 35.998 538.774 36.126 538.409 36.3676C538.045 36.6092 537.76 36.9537 537.591 37.3573C537.422 37.761 537.377 38.2057 537.461 38.635C537.545 39.0644 537.755 39.4591 538.064 39.7692C538.372 40.0792 538.766 40.2907 539.195 40.3768C539.624 40.4629 540.069 40.4197 540.473 40.2527C540.878 40.0858 541.224 39.8025 541.467 39.4389C541.71 39.0752 541.84 38.6475 541.84 38.21C541.837 37.6264 541.605 37.0673 541.193 36.6537C540.782 36.2401 540.224 36.0053 539.64 36Z" fill="white"/>
<path d="M539.64 48.85C539.054 48.85 538.492 49.0829 538.077 49.4973C537.663 49.9118 537.43 50.4739 537.43 51.06C537.43 51.6462 537.663 52.2083 538.077 52.6227C538.492 53.0372 539.054 53.27 539.64 53.27C540.226 53.27 540.788 53.0372 541.203 52.6227C541.617 52.2083 541.85 51.6462 541.85 51.06C541.85 50.4739 541.617 49.9118 541.203 49.4973C540.788 49.0829 540.226 48.85 539.64 48.85Z" fill="white"/>
<path d="M539.64 61.71C539.202 61.708 538.774 61.836 538.409 62.0776C538.045 62.3192 537.76 62.6637 537.591 63.0673C537.422 63.471 537.377 63.9157 537.461 64.345C537.545 64.7744 537.755 65.1691 538.064 65.4792C538.372 65.7892 538.766 66.0007 539.195 66.0868C539.624 66.1729 540.069 66.1297 540.473 65.9627C540.878 65.7958 541.224 65.5125 541.467 65.1489C541.71 64.7852 541.84 64.3575 541.84 63.92C541.837 63.3364 541.605 62.7773 541.193 62.3637C540.782 61.9501 540.224 61.7153 539.64 61.71Z" fill="white"/>
<path d="M539.64 74.57C539.202 74.568 538.774 74.696 538.409 74.9376C538.045 75.1792 537.76 75.5237 537.591 75.9273C537.422 76.331 537.377 76.7757 537.461 77.205C537.545 77.6344 537.755 78.0291 538.064 78.3392C538.372 78.6492 538.766 78.8607 539.195 78.9468C539.624 79.0329 540.069 78.9897 540.473 78.8227C540.878 78.6558 541.224 78.3725 541.467 78.0089C541.71 77.6452 541.84 77.2175 541.84 76.78C541.837 76.1964 541.605 75.6373 541.193 75.2237C540.782 74.8101 540.224 74.5753 539.64 74.57Z" fill="white"/>
<path d="M539.64 87.42C539.202 87.418 538.774 87.546 538.409 87.7876C538.045 88.0292 537.76 88.3737 537.591 88.7773C537.422 89.181 537.377 89.6257 537.461 90.055C537.545 90.4844 537.755 90.8791 538.064 91.1892C538.372 91.4992 538.766 91.7107 539.195 91.7968C539.624 91.8829 540.069 91.8397 540.473 91.6727C540.878 91.5058 541.224 91.2225 541.467 90.8589C541.71 90.4952 541.84 90.0675 541.84 89.63C541.837 89.0464 541.605 88.4873 541.193 88.0737C540.782 87.6601 540.224 87.4253 539.64 87.42Z" fill="white"/>
<path d="M539.64 100.28C539.202 100.278 538.774 100.406 538.409 100.648C538.045 100.889 537.76 101.234 537.591 101.637C537.422 102.041 537.377 102.486 537.461 102.915C537.545 103.344 537.755 103.739 538.064 104.049C538.372 104.359 538.766 104.571 539.195 104.657C539.624 104.743 540.069 104.7 540.473 104.533C540.878 104.366 541.224 104.083 541.467 103.719C541.71 103.355 541.84 102.928 541.84 102.49C541.837 101.906 541.605 101.347 541.193 100.934C540.782 100.52 540.224 100.285 539.64 100.28Z" fill="white"/>
<path d="M539.64 113.14C539.202 113.138 538.774 113.266 538.409 113.508C538.045 113.749 537.76 114.094 537.591 114.497C537.422 114.901 537.377 115.346 537.461 115.775C537.545 116.204 537.755 116.599 538.064 116.909C538.372 117.219 538.766 117.431 539.195 117.517C539.624 117.603 540.069 117.56 540.473 117.393C540.878 117.226 541.224 116.943 541.467 116.579C541.71 116.215 541.84 115.788 541.84 115.35C541.837 114.766 541.605 114.207 541.193 113.794C540.782 113.38 540.224 113.145 539.64 113.14Z" fill="white"/>
<path d="M539.64 126C539.202 125.998 538.773 126.126 538.408 126.368C538.043 126.61 537.759 126.955 537.59 127.36C537.422 127.764 537.377 128.209 537.462 128.639C537.547 129.068 537.758 129.463 538.067 129.773C538.377 130.082 538.772 130.293 539.201 130.378C539.631 130.463 540.076 130.418 540.48 130.25C540.885 130.081 541.23 129.797 541.472 129.432C541.714 129.067 541.842 128.638 541.84 128.2C541.837 127.617 541.605 127.059 541.193 126.647C540.781 126.235 540.223 126.003 539.64 126Z" fill="white"/>
<path d="M539.64 138.85C539.202 138.848 538.774 138.976 538.409 139.218C538.045 139.459 537.76 139.804 537.591 140.207C537.422 140.611 537.377 141.056 537.461 141.485C537.545 141.914 537.755 142.309 538.064 142.619C538.372 142.929 538.766 143.141 539.195 143.227C539.624 143.313 540.069 143.27 540.473 143.103C540.878 142.936 541.224 142.653 541.467 142.289C541.71 141.925 541.84 141.498 541.84 141.06C541.84 140.476 541.609 139.915 541.196 139.501C540.784 139.087 540.224 138.853 539.64 138.85Z" fill="white"/>
<path d="M552.49 36C552.053 36 551.626 36.1296 551.262 36.3725C550.899 36.6153 550.615 36.9605 550.448 37.3643C550.281 37.7681 550.237 38.2125 550.322 38.6412C550.408 39.0699 550.618 39.4637 550.927 39.7727C551.236 40.0818 551.63 40.2923 552.059 40.3776C552.488 40.4628 552.932 40.4191 553.336 40.2518C553.74 40.0845 554.085 39.8013 554.328 39.4378C554.57 39.0744 554.7 38.6471 554.7 38.21C554.7 37.6239 554.467 37.0618 554.053 36.6473C553.638 36.2329 553.076 36 552.49 36Z" fill="white"/>
<path d="M552.49 48.85C552.053 48.85 551.626 48.9794 551.263 49.2218C550.9 49.4642 550.617 49.8088 550.449 50.212C550.282 50.6152 550.237 51.0591 550.322 51.4875C550.406 51.9159 550.616 52.3097 550.924 52.6192C551.232 52.9287 551.625 53.1399 552.053 53.2263C552.481 53.3127 552.925 53.2704 553.329 53.1047C553.733 52.9389 554.079 52.6572 554.323 52.2951C554.567 51.933 554.698 51.5067 554.7 51.07C554.701 50.779 554.645 50.4905 554.535 50.2212C554.424 49.9519 554.262 49.7071 554.056 49.5008C553.851 49.2946 553.607 49.1309 553.338 49.0192C553.069 48.9075 552.781 48.85 552.49 48.85Z" fill="white"/>
<path d="M552.49 61.71C552.053 61.71 551.626 61.8396 551.262 62.0825C550.899 62.3253 550.615 62.6705 550.448 63.0743C550.281 63.4781 550.237 63.9225 550.322 64.3512C550.408 64.7799 550.618 65.1737 550.927 65.4827C551.236 65.7918 551.63 66.0023 552.059 66.0876C552.488 66.1728 552.932 66.1291 553.336 65.9618C553.74 65.7945 554.085 65.5113 554.328 65.1478C554.57 64.7844 554.7 64.3571 554.7 63.92C554.7 63.3339 554.467 62.7718 554.053 62.3573C553.638 61.9429 553.076 61.71 552.49 61.71Z" fill="white"/>
<path d="M552.49 74.57C552.053 74.57 551.626 74.6996 551.262 74.9425C550.899 75.1853 550.615 75.5305 550.448 75.9343C550.281 76.3381 550.237 76.7825 550.322 77.2112C550.408 77.6399 550.618 78.0337 550.927 78.3427C551.236 78.6518 551.63 78.8623 552.059 78.9476C552.488 79.0328 552.932 78.9891 553.336 78.8218C553.74 78.6545 554.085 78.3713 554.328 78.0078C554.57 77.6444 554.7 77.2171 554.7 76.78C554.7 76.1939 554.467 75.6318 554.053 75.2173C553.638 74.8029 553.076 74.57 552.49 74.57Z" fill="white"/>
<path d="M552.49 87.42C552.053 87.42 551.626 87.5496 551.262 87.7925C550.899 88.0353 550.615 88.3805 550.448 88.7843C550.281 89.1881 550.237 89.6325 550.322 90.0612C550.408 90.4899 550.618 90.8837 550.927 91.1927C551.236 91.5018 551.63 91.7123 552.059 91.7976C552.488 91.8828 552.932 91.8391 553.336 91.6718C553.74 91.5045 554.085 91.2213 554.328 90.8578C554.57 90.4944 554.7 90.0671 554.7 89.63C554.7 89.0439 554.467 88.4818 554.053 88.0673C553.638 87.6529 553.076 87.42 552.49 87.42Z" fill="white"/>
<path d="M552.49 100.28C552.053 100.28 551.626 100.41 551.262 100.652C550.899 100.895 550.615 101.24 550.448 101.644C550.281 102.048 550.237 102.492 550.322 102.921C550.408 103.35 550.618 103.744 550.927 104.053C551.236 104.362 551.63 104.572 552.059 104.658C552.488 104.743 552.932 104.699 553.336 104.532C553.74 104.365 554.085 104.081 554.328 103.718C554.57 103.354 554.7 102.927 554.7 102.49C554.7 101.904 554.467 101.342 554.053 100.927C553.638 100.513 553.076 100.28 552.49 100.28Z" fill="white"/>
<path d="M552.49 113.14C552.053 113.14 551.626 113.27 551.262 113.512C550.899 113.755 550.615 114.1 550.448 114.504C550.281 114.908 550.237 115.352 550.322 115.781C550.408 116.21 550.618 116.604 550.927 116.913C551.236 117.222 551.63 117.432 552.059 117.518C552.488 117.603 552.932 117.559 553.336 117.392C553.74 117.225 554.085 116.941 554.328 116.578C554.57 116.214 554.7 115.787 554.7 115.35C554.7 114.764 554.467 114.202 554.053 113.787C553.638 113.373 553.076 113.14 552.49 113.14Z" fill="white"/>
<path d="M552.49 126C552.052 126 551.625 126.13 551.261 126.373C550.898 126.616 550.614 126.962 550.447 127.367C550.28 127.771 550.237 128.216 550.323 128.645C550.409 129.074 550.621 129.468 550.931 129.776C551.241 130.085 551.636 130.295 552.065 130.379C552.494 130.463 552.939 130.418 553.343 130.249C553.746 130.08 554.091 129.795 554.332 129.431C554.574 129.066 554.702 128.638 554.7 128.2C554.7 127.91 554.643 127.623 554.532 127.356C554.42 127.088 554.257 126.845 554.052 126.641C553.847 126.436 553.603 126.275 553.335 126.165C553.067 126.055 552.78 125.999 552.49 126Z" fill="white"/>
<path d="M552.49 138.85C552.053 138.85 551.626 138.98 551.262 139.222C550.899 139.465 550.615 139.81 550.448 140.214C550.281 140.618 550.237 141.062 550.322 141.491C550.408 141.92 550.618 142.314 550.927 142.623C551.236 142.932 551.63 143.142 552.059 143.228C552.488 143.313 552.932 143.269 553.336 143.102C553.74 142.935 554.085 142.651 554.328 142.288C554.57 141.924 554.7 141.497 554.7 141.06C554.701 140.769 554.645 140.481 554.534 140.213C554.424 139.944 554.261 139.7 554.056 139.494C553.85 139.289 553.606 139.126 553.337 139.016C553.069 138.905 552.781 138.849 552.49 138.85Z" fill="white"/>
<path d="M565.35 36C564.913 36 564.486 36.1296 564.122 36.3725C563.759 36.6153 563.475 36.9605 563.308 37.3643C563.141 37.7681 563.097 38.2125 563.182 38.6412C563.268 39.0699 563.478 39.4637 563.787 39.7727C564.096 40.0818 564.49 40.2923 564.919 40.3776C565.348 40.4628 565.792 40.4191 566.196 40.2518C566.6 40.0845 566.945 39.8013 567.188 39.4378C567.43 39.0744 567.56 38.6471 567.56 38.21C567.561 37.9194 567.505 37.6315 567.394 37.3627C567.284 37.094 567.121 36.8498 566.916 36.6444C566.71 36.4389 566.466 36.2761 566.197 36.1656C565.929 36.055 565.641 35.9987 565.35 36Z" fill="white"/>
<path d="M565.35 48.85C564.913 48.85 564.486 48.9794 564.123 49.2218C563.76 49.4642 563.477 49.8088 563.309 50.212C563.142 50.6152 563.097 51.0591 563.182 51.4875C563.266 51.9159 563.476 52.3097 563.784 52.6192C564.092 52.9287 564.485 53.1399 564.913 53.2263C565.341 53.3127 565.785 53.2704 566.189 53.1047C566.593 52.9389 566.939 52.6572 567.183 52.2951C567.427 51.933 567.558 51.5067 567.56 51.07C567.561 50.779 567.505 50.4905 567.395 50.2212C567.284 49.9519 567.122 49.7071 566.916 49.5008C566.711 49.2946 566.467 49.1309 566.198 49.0192C565.929 48.9075 565.641 48.85 565.35 48.85Z" fill="white"/>
<path d="M565.35 61.71C564.913 61.71 564.486 61.8396 564.122 62.0825C563.759 62.3253 563.475 62.6705 563.308 63.0743C563.141 63.4781 563.097 63.9225 563.182 64.3512C563.268 64.7799 563.478 65.1737 563.787 65.4827C564.096 65.7918 564.49 66.0023 564.919 66.0876C565.348 66.1728 565.792 66.1291 566.196 65.9618C566.6 65.7945 566.945 65.5113 567.188 65.1478C567.43 64.7844 567.56 64.3571 567.56 63.92C567.561 63.6294 567.505 63.3415 567.394 63.0727C567.284 62.804 567.121 62.5598 566.916 62.3544C566.71 62.1489 566.466 61.9861 566.197 61.8756C565.929 61.765 565.641 61.7087 565.35 61.71Z" fill="white"/>
<path d="M565.35 74.57C564.913 74.57 564.486 74.6996 564.122 74.9425C563.759 75.1853 563.475 75.5305 563.308 75.9343C563.141 76.3381 563.097 76.7825 563.182 77.2112C563.268 77.6399 563.478 78.0337 563.787 78.3427C564.096 78.6518 564.49 78.8623 564.919 78.9476C565.348 79.0328 565.792 78.9891 566.196 78.8218C566.6 78.6545 566.945 78.3713 567.188 78.0078C567.43 77.6444 567.56 77.2171 567.56 76.78C567.561 76.4894 567.505 76.2015 567.394 75.9327C567.284 75.664 567.121 75.4198 566.916 75.2144C566.71 75.0089 566.466 74.8461 566.197 74.7356C565.929 74.625 565.641 74.5687 565.35 74.57Z" fill="white"/>
<path d="M565.35 87.42C564.913 87.42 564.486 87.5496 564.122 87.7925C563.759 88.0353 563.475 88.3805 563.308 88.7843C563.141 89.1881 563.097 89.6325 563.182 90.0612C563.268 90.4899 563.478 90.8837 563.787 91.1927C564.096 91.5018 564.49 91.7123 564.919 91.7976C565.348 91.8828 565.792 91.8391 566.196 91.6718C566.6 91.5045 566.945 91.2213 567.188 90.8578C567.43 90.4944 567.56 90.0671 567.56 89.63C567.561 89.3394 567.505 89.0515 567.394 88.7827C567.284 88.514 567.121 88.2698 566.916 88.0644C566.71 87.8589 566.466 87.6961 566.197 87.5856C565.929 87.475 565.641 87.4187 565.35 87.42Z" fill="white"/>
<path d="M565.35 100.28C564.913 100.28 564.486 100.41 564.122 100.652C563.759 100.895 563.475 101.24 563.308 101.644C563.141 102.048 563.097 102.492 563.182 102.921C563.268 103.35 563.478 103.744 563.787 104.053C564.096 104.362 564.49 104.572 564.919 104.658C565.348 104.743 565.792 104.699 566.196 104.532C566.6 104.365 566.945 104.081 567.188 103.718C567.43 103.354 567.56 102.927 567.56 102.49C567.561 102.199 567.505 101.911 567.394 101.643C567.284 101.374 567.121 101.13 566.916 100.924C566.71 100.719 566.466 100.556 566.197 100.446C565.929 100.335 565.641 100.279 565.35 100.28Z" fill="white"/>
<path d="M565.35 113.14C564.913 113.14 564.486 113.27 564.122 113.512C563.759 113.755 563.475 114.1 563.308 114.504C563.141 114.908 563.097 115.352 563.182 115.781C563.268 116.21 563.478 116.604 563.787 116.913C564.096 117.222 564.49 117.432 564.919 117.518C565.348 117.603 565.792 117.559 566.196 117.392C566.6 117.225 566.945 116.941 567.188 116.578C567.43 116.214 567.56 115.787 567.56 115.35C567.561 115.059 567.505 114.771 567.394 114.503C567.284 114.234 567.121 113.99 566.916 113.784C566.71 113.579 566.466 113.416 566.197 113.306C565.929 113.195 565.641 113.139 565.35 113.14Z" fill="white"/>
<path d="M565.35 126C564.912 126 564.485 126.13 564.121 126.373C563.758 126.616 563.474 126.962 563.307 127.367C563.14 127.771 563.097 128.216 563.183 128.645C563.269 129.074 563.481 129.468 563.791 129.776C564.101 130.085 564.496 130.295 564.925 130.379C565.354 130.463 565.799 130.418 566.203 130.249C566.606 130.08 566.951 129.795 567.192 129.431C567.434 129.066 567.562 128.638 567.56 128.2C567.56 127.91 567.503 127.623 567.392 127.356C567.28 127.088 567.117 126.845 566.912 126.641C566.707 126.436 566.463 126.275 566.195 126.165C565.927 126.055 565.64 125.999 565.35 126Z" fill="white"/>
<path d="M565.35 138.85C564.913 138.85 564.486 138.98 564.122 139.222C563.759 139.465 563.475 139.81 563.308 140.214C563.141 140.618 563.097 141.062 563.182 141.491C563.268 141.92 563.478 142.314 563.787 142.623C564.096 142.932 564.49 143.142 564.919 143.228C565.348 143.313 565.792 143.269 566.196 143.102C566.6 142.935 566.945 142.651 567.188 142.288C567.43 141.924 567.56 141.497 567.56 141.06C567.561 140.769 567.505 140.481 567.394 140.213C567.284 139.944 567.121 139.7 566.916 139.494C566.71 139.289 566.466 139.126 566.197 139.016C565.929 138.905 565.641 138.849 565.35 138.85Z" fill="white"/>
<path d="M162.89 268.59L172.79 258.69L182.69 268.58L185.59 265.69L175.69 255.79L185.59 245.9L182.69 243L172.79 252.9L162.89 243L160 245.89L169.9 255.79L160 265.69L162.89 268.59Z" fill="#FF5E03"/>
<path d="M805.033 89L811.996 82.0363L818.96 88.993L821 86.9601L814.036 79.9965L821 73.0399L818.96 71L811.996 77.9637L805.033 71L803 73.0328L809.964 79.9965L803 86.9601L805.033 89Z" fill="#FF5E03"/>
<path d="M111.102 212.35H110.102V213.35H111.102V212.35ZM111.102 180.85L110.308 180.242L110.102 180.511V180.85H111.102ZM231.852 23V22H231.358L231.058 22.3924L231.852 23ZM280.502 23L281.301 23.602L282.508 22H280.502V23ZM161.502 180.85L161.208 181.806L161.878 182.012L162.301 181.452L161.502 180.85ZM138.752 173.85V172.85L138.458 174.806L138.752 173.85ZM333.002 173.85H334.002V172.85H333.002V173.85ZM333.002 212.35V213.35H334.002V212.35H333.002ZM245.502 268H244.502V269H245.502V268ZM245.502 212.35L244.503 212.314L244.502 212.332V212.35H245.502ZM246.902 173.85L247.901 173.886L247.902 173.868V173.85H246.902ZM246.902 124.5V123.5H245.902V124.5H246.902ZM289.602 124.5H290.602V123.5H289.602V124.5ZM289.602 268V269H290.602V268H289.602ZM112.102 212.35V180.85H110.102V212.35H112.102ZM111.896 181.458L232.646 23.6076L231.058 22.3924L110.308 180.242L111.896 181.458ZM231.852 24H280.502V22H231.852V24ZM279.704 22.398L160.704 180.248L162.301 181.452L281.301 23.602L279.704 22.398ZM161.796 179.894L139.046 172.894L138.458 174.806L161.208 181.806L161.796 179.894ZM138.752 174.85H333.002V172.85H138.752V174.85ZM332.002 173.85V212.35H334.002V173.85H332.002ZM333.002 211.35H111.102V213.35H333.002V211.35ZM246.502 268V212.35H244.502V268H246.502ZM246.501 212.386L247.901 173.886L245.903 173.814L244.503 212.314L246.501 212.386ZM247.902 173.85V124.5H245.902V173.85H247.902ZM246.902 125.5H289.602V123.5H246.902V125.5ZM288.602 124.5V268H290.602V124.5H288.602ZM289.602 267H245.502V269H289.602V267ZM419.351 256.8L418.814 257.644L418.82 257.647L419.351 256.8ZM382.951 214.1L382.046 214.525L382.048 214.529L382.951 214.1ZM382.951 77.25L383.854 77.6791L383.856 77.6747L382.951 77.25ZM419.351 34.2L418.82 33.3527L418.814 33.3563L419.351 34.2ZM560.751 77.25L559.846 77.6747L559.849 77.6815L559.852 77.6882L560.751 77.25ZM560.751 214.1L559.85 213.666L559.848 213.671L560.751 214.1ZM524.351 256.8L523.814 255.956L524.351 256.8ZM501.601 222.85L502.186 223.661L502.194 223.655L502.201 223.65L501.601 222.85ZM521.201 194.15L520.267 193.793L520.264 193.801L520.261 193.808L521.201 194.15ZM521.201 96.85L520.261 97.1917L520.265 97.2021L520.269 97.2124L521.201 96.85ZM501.601 68.5L501.001 69.3L501.008 69.3054L501.016 69.3107L501.601 68.5ZM442.451 68.5L443.036 69.3107L443.04 69.3078L442.451 68.5ZM422.501 96.85L421.567 96.4933L421.563 96.5027L422.501 96.85ZM422.501 194.15L421.561 194.492L421.564 194.499L421.567 194.507L422.501 194.15ZM442.451 222.85L441.851 223.65L441.863 223.659L441.876 223.668L442.451 222.85ZM471.851 270.5C452.662 270.5 435.348 265.648 419.882 255.953L418.82 257.647C434.62 267.552 452.306 272.5 471.851 272.5V270.5ZM419.888 255.956C404.667 246.27 392.651 232.191 383.854 213.671L382.048 214.529C390.984 233.343 403.235 247.73 418.814 257.644L419.888 255.956ZM383.856 213.675C375.067 194.94 370.651 172.227 370.651 145.5H368.651C368.651 172.44 373.102 195.46 382.046 214.525L383.856 213.675ZM370.651 145.5C370.651 118.772 375.067 96.1779 383.854 77.6791L382.048 76.8209C373.101 95.6554 368.651 118.561 368.651 145.5H370.651ZM383.856 77.6747C392.654 58.9212 404.67 44.7278 419.888 35.0436L418.814 33.3563C403.232 43.2722 390.981 57.7788 382.046 76.8253L383.856 77.6747ZM419.882 35.0473C435.348 25.3521 452.662 20.5 471.851 20.5V18.5C452.306 18.5 434.62 23.4478 418.82 33.3527L419.882 35.0473ZM471.851 20.5C491.275 20.5 508.586 25.3533 523.814 35.0436L524.888 33.3563C509.315 23.4466 491.627 18.5 471.851 18.5V20.5ZM523.814 35.0436C539.032 44.7278 551.048 58.9212 559.846 77.6747L561.656 76.8253C552.721 57.7788 540.47 43.2722 524.888 33.3563L523.814 35.0436ZM559.852 77.6882C568.869 96.1845 573.401 118.776 573.401 145.5H575.401C575.401 118.558 570.833 95.6488 561.65 76.8118L559.852 77.6882ZM573.401 145.5C573.401 172.224 568.869 194.934 559.85 213.666L561.652 214.534C570.833 195.466 575.401 172.443 575.401 145.5H573.401ZM559.848 213.671C551.051 232.191 539.035 246.27 523.814 255.956L524.888 257.644C540.467 247.73 552.718 233.343 561.654 214.529L559.848 213.671ZM523.814 255.956C508.586 265.647 491.275 270.5 471.851 270.5V272.5C491.627 272.5 509.315 267.553 524.888 257.644L523.814 255.956ZM471.851 232.95C483.472 232.95 493.598 229.863 502.186 223.661L501.016 222.039C492.804 227.97 483.097 230.95 471.851 230.95V232.95ZM502.201 223.65C510.797 217.203 517.427 207.453 522.141 194.492L520.261 193.808C515.641 206.513 509.205 215.897 501.001 222.05L502.201 223.65ZM522.135 194.507C527.093 181.522 529.551 165.174 529.551 145.5H527.551C527.551 165.026 525.109 181.111 520.267 193.793L522.135 194.507ZM529.551 145.5C529.551 125.595 527.094 109.244 522.133 96.4875L520.269 97.2124C525.108 109.656 527.551 125.738 527.551 145.5H529.551ZM522.141 96.5082C517.427 83.5457 510.793 73.9053 502.186 67.6893L501.016 69.3107C509.209 75.228 515.642 84.4877 520.261 97.1917L522.141 96.5082ZM502.201 67.7C493.612 61.2585 483.48 58.05 471.851 58.05V60.05C483.088 60.05 492.79 63.1415 501.001 69.3L502.201 67.7ZM471.851 58.05C460.678 58.05 450.671 61.2638 441.862 67.6922L443.04 69.3078C451.498 63.1361 461.09 60.05 471.851 60.05V58.05ZM441.865 67.6893C433.264 73.9018 426.514 83.536 421.567 96.4933L423.435 97.2067C428.288 84.4973 434.838 75.2315 443.036 69.3107L441.865 67.6893ZM421.563 96.5027C416.841 109.253 414.501 125.599 414.501 145.5H416.501C416.501 125.734 418.828 109.647 423.439 97.1973L421.563 96.5027ZM414.501 145.5C414.501 165.17 416.841 181.512 421.561 194.492L423.441 193.808C418.827 181.121 416.501 165.03 416.501 145.5H414.501ZM421.567 194.507C426.514 207.463 433.26 217.207 441.851 223.65L443.051 222.05C434.842 215.893 428.288 206.504 423.435 193.793L421.567 194.507ZM441.876 223.668C450.685 229.858 460.687 232.95 471.851 232.95V230.95C461.081 230.95 451.484 227.975 443.026 222.032L441.876 223.668ZM619.149 212.35H618.149V213.35H619.149V212.35ZM619.149 180.85L618.355 180.242L618.149 180.511V180.85H619.149ZM739.899 23V22H739.405L739.105 22.3924L739.899 23ZM788.549 23L789.348 23.602L790.555 22H788.549V23ZM669.549 180.85L669.255 181.806L669.925 182.012L670.348 181.452L669.549 180.85ZM646.799 173.85V172.85L646.505 174.806L646.799 173.85ZM841.049 173.85H842.049V172.85H841.049V173.85ZM841.049 212.35V213.35H842.049V212.35H841.049ZM753.549 268H752.549V269H753.549V268ZM753.549 212.35L752.55 212.314L752.549 212.332V212.35H753.549ZM754.949 173.85L755.948 173.886L755.949 173.868V173.85H754.949ZM754.949 124.5V123.5H753.949V124.5H754.949ZM797.649 124.5H798.649V123.5H797.649V124.5ZM797.649 268V269H798.649V268H797.649ZM620.149 212.35V180.85H618.149V212.35H620.149ZM619.943 181.458L740.693 23.6076L739.105 22.3924L618.355 180.242L619.943 181.458ZM739.899 24H788.549V22H739.899V24ZM787.75 22.398L668.75 180.248L670.348 181.452L789.348 23.602L787.75 22.398ZM669.843 179.894L647.093 172.894L646.505 174.806L669.255 181.806L669.843 179.894ZM646.799 174.85H841.049V172.85H646.799V174.85ZM840.049 173.85V212.35H842.049V173.85H840.049ZM841.049 211.35H619.149V213.35H841.049V211.35ZM754.549 268V212.35H752.549V268H754.549ZM754.548 212.386L755.948 173.886L753.95 173.814L752.55 212.314L754.548 212.386ZM755.949 173.85V124.5H753.949V173.85H755.949ZM754.949 125.5H797.649V123.5H754.949V125.5ZM796.649 124.5V268H798.649V124.5H796.649ZM797.649 267H753.549V269H797.649V267Z" fill="white" fill-opacity="0.2"/>
<path d="M313.002 213.35H269.602V269H225.502V213.35H91.1021V181.85L211.852 24H260.502L146.752 174.85H226.902V125.5H269.602V174.85H313.002V213.35ZM821.049 213.35H777.649V269H733.549V213.35H599.149V181.85L719.899 24H768.549L654.799 174.85H734.949V125.5H777.649V174.85H821.049V213.35Z" fill="white"/>
<path d="M451.851 272.5C432.251 272.5 414.751 267.6 399.351 257.8C383.951 247.767 371.818 233.3 362.951 214.4C354.084 195.267 349.651 172.633 349.651 146.5C349.651 120.367 354.084 97.85 362.951 78.95C371.818 59.8167 383.951 45.35 399.351 35.55C414.751 25.5167 432.251 20.5 451.851 20.5C471.451 20.5 488.951 25.5167 504.351 35.55C519.984 45.35 532.234 59.8167 541.101 78.95C549.968 97.85 554.401 120.367 554.401 146.5C554.401 172.633 549.968 195.267 541.101 214.4C532.234 233.3 519.984 247.767 504.351 257.8C488.951 267.6 471.451 272.5 451.851 272.5ZM451.851 232.95C469.351 232.95 483.118 225.717 493.151 211.25C503.418 196.783 508.551 175.2 508.551 146.5C508.551 117.8 503.418 96.2167 493.151 81.75C483.118 67.2833 469.351 60.05 451.851 60.05C434.584 60.05 420.818 67.2833 410.551 81.75C400.518 96.2167 395.501 117.8 395.501 146.5C395.501 175.2 400.518 196.783 410.551 211.25C420.818 225.717 434.584 232.95 451.851 232.95Z" fill="#FF5E03"/>
</svg>
