<svg width="61" height="60" viewBox="0 0 61 60" fill="none" xmlns="http://www.w3.org/2000/svg">
<g clip-path="url(#clip0_3068_1767)">
<path d="M11.9981 50H35.9981H59.9981C60.5981 50 60.9981 49.6001 60.9981 49.0001V31.0001V13.0001V0.999961C60.9981 0.399961 60.5981 0 59.9981 0H40.998H29.998H11.998C11.398 0 10.998 0.399961 10.998 0.999961V25V33V45V49C10.998 49.6 11.3981 50 11.9981 50ZM12.9981 34H22.998C22.498 39.3 18.298 43.5 12.9981 43.9999V34ZM12.9981 2.00004H28.998V8.00004H27.9981C27.3981 8.00004 26.9981 8.4 26.9981 9C26.9981 9.6 27.3981 9.99996 27.9981 9.99996H31.998C32.598 9.99996 32.998 9.6 32.998 9C32.998 8.4 32.598 8.00004 31.998 8.00004H30.9981V2.00004H39.9981V13.0001C39.9981 13.6001 40.398 14 40.998 14H44.998V15C44.998 15.6 45.398 16 45.998 16C46.598 16 46.9979 15.6 46.9979 15V11C46.9979 10.4 46.598 10.0001 45.998 10.0001C45.398 10.0001 44.998 10.4 44.998 11V12H41.998V2.00004H58.998V12H54.9981V11C54.9981 10.4 54.5981 10.0001 53.9981 10.0001C53.3981 10.0001 52.9982 10.4 52.9982 11V15C52.9982 15.6 53.3981 16 53.9981 16C54.5981 16 54.9981 15.6 54.9981 15V14H58.998V30H52.998V29C52.998 28.4 52.5981 28.0001 51.9981 28.0001C51.3981 28.0001 50.9981 28.4 50.9981 29V33C50.9981 33.6 51.3981 34 51.9981 34C52.5981 34 52.998 33.6 52.998 33V32H58.998V48H36.9981V32H42.9981V33C42.9981 33.6 43.398 34 43.998 34C44.598 34 44.998 33.6 44.998 33V29C44.998 28.4 44.598 28.0001 43.998 28.0001C43.398 28.0001 42.9981 28.4 42.9981 29V30H35.9981C35.3981 30 34.9982 30.4 34.9982 31V48H12.9981V45.9623C19.7276 45.4547 24.9981 39.8634 24.9981 33C24.9981 32.4 24.5981 32 23.9981 32H12.9981V26H29.9981C30.5981 26 30.9981 25.6001 30.9981 25.0001V18H31.998C32.598 18 32.998 17.6 32.998 17C32.998 16.4 32.598 16.0001 31.998 16.0001H27.9981C27.3981 16.0001 26.9981 16.4 26.9981 17C26.9981 17.6 27.3981 18 27.9981 18H28.998V24H12.9981V2.00004Z" fill="#020202"/>
<path d="M8.69806 49.7C9.09802 49.3001 9.09802 48.7001 8.69806 48.3C8.2981 47.9 7.6981 47.9 7.29802 48.3L5.99806 49.6V3.39996L7.29802 4.70004C7.49806 4.90008 7.69798 5.00004 7.99798 5.00004C8.29798 5.00004 8.49802 4.90008 8.69794 4.70004C9.0979 4.30008 9.0979 3.70008 8.69794 3.3L5.86915 0.471094C5.70567 0.17707 5.3963 0 4.99798 0C4.59966 0 4.2904 0.17707 4.12681 0.471094L1.29802 3.3C0.898057 3.69996 0.898057 4.29996 1.29802 4.70004C1.69798 5.10012 2.29798 5.1 2.69806 4.70004L3.99802 3.39996V49.6L2.69806 48.3C2.2981 47.9 1.6981 47.9 1.29802 48.3C0.898057 48.7 0.898057 49.3 1.29802 49.7L4.12692 52.5289C4.2904 52.823 4.59966 53 4.9981 53C5.39642 53 5.70567 52.823 5.86915 52.5289L8.69806 49.7Z" fill="#FF5E03"/>
<path d="M60.9981 56.0007C60.9981 56.0002 60.9981 55.9996 60.9981 55.9989C60.9979 55.601 60.8209 55.2921 60.527 55.1286L57.6981 52.2997C57.2981 51.8998 56.6981 51.8998 56.298 52.2997C55.8981 52.6997 55.8981 53.2997 56.298 53.6998L57.598 54.9997H11.3981L12.6981 53.6999C13.098 53.2999 13.098 52.6999 12.6981 52.2998C12.2981 51.8999 11.6981 51.8999 11.298 52.2998L8.46914 55.1288C8.17512 55.2922 7.99805 55.6015 7.99805 55.9999C7.99805 56.3984 8.17512 56.7075 8.46914 56.8711L11.298 59.7C11.4981 59.9 11.698 60 11.998 60C12.298 60 12.498 59.9 12.698 59.7C13.0979 59.3 13.0979 58.7 12.698 58.3L11.3981 56.9999H57.5981L56.2982 58.2998C55.8982 58.6998 55.8982 59.2998 56.2982 59.6999C56.4982 59.8999 56.6981 59.9999 56.9981 59.9999C57.2981 59.9999 57.4982 59.8999 57.6981 59.6999L60.527 56.871C60.8208 56.7076 60.9977 56.3987 60.9981 56.0007Z" fill="#020202"/>
</g>
<defs>
<clipPath id="clip0_3068_1767">
<rect width="60" height="60" fill="white" transform="translate(0.998047)"/>
</clipPath>
</defs>
</svg>
