<svg width="61" height="60" viewBox="0 0 61 60" fill="none" xmlns="http://www.w3.org/2000/svg">
<g clip-path="url(#clip0_3068_1777)">
<path d="M17.0586 42.9223C16.8777 42.9221 16.7013 42.866 16.5535 42.7617L12.1461 39.668H1.87695C1.64385 39.668 1.4203 39.5754 1.25547 39.4105C1.09065 39.2457 0.998047 39.0222 0.998047 38.7891V21.2109C0.998047 20.9778 1.09065 20.7543 1.25547 20.5895C1.4203 20.4246 1.64385 20.332 1.87695 20.332H12.1461L24.0664 11.9648C24.8393 11.4216 25.4702 10.7005 25.9059 9.86218C26.3415 9.02392 26.5692 8.09315 26.5695 7.14844C26.5695 6.91534 26.6621 6.69178 26.827 6.52696C26.9918 6.36213 27.2153 6.26953 27.4484 6.26953C27.6815 6.26953 27.9051 6.36213 28.0699 6.52696C28.2347 6.69178 28.3273 6.91534 28.3273 7.14844C28.3268 8.37537 28.0311 9.58417 27.4653 10.6729C26.8996 11.7616 26.0803 12.6983 25.0766 13.4039L12.9289 21.9305C12.7808 22.0339 12.6045 22.0895 12.4238 22.0898H2.75586V37.9102H12.4238C12.6045 37.9105 12.7808 37.9661 12.9289 38.0695L17.5637 41.3238C17.7167 41.4312 17.8315 41.5844 17.8914 41.7615C17.9514 41.9385 17.9533 42.13 17.897 42.3082C17.8407 42.4864 17.7291 42.642 17.5783 42.7524C17.4275 42.8628 17.2455 42.9223 17.0586 42.9223Z" fill="#020202"/>
<path d="M27.4488 53.7305C27.2157 53.7305 26.9922 53.6379 26.8274 53.4731C26.6625 53.3083 26.5699 53.0847 26.5699 52.8516C26.5696 51.9069 26.3419 50.9762 25.9063 50.1379C25.4706 49.2996 24.8397 48.5784 24.0668 48.0352L19.432 44.7821C15.8227 42.3633 13.5702 40.5711 16.5258 42.3633C13.5702 40.5711 17.095 42.144 17.2289 41.9532C17.3629 41.7624 16.8821 41.1731 17.1117 41.1329C17.3414 41.0927 20.2514 43.2091 20.4422 43.343L25.077 46.5973C26.0807 47.3027 26.9001 48.2391 27.4659 49.3276C28.0316 50.4162 28.3273 51.6248 28.3277 52.8516C28.3277 53.0847 28.2351 53.3083 28.0703 53.4731C27.9055 53.6379 27.6819 53.7305 27.4488 53.7305Z" fill="#020202"/>
<path d="M30.9652 38.597C30.7779 38.5973 30.5954 38.5377 30.4443 38.427C30.2932 38.3162 30.1815 38.1601 30.1253 37.9814C30.0692 37.8027 30.0717 37.6107 30.1323 37.4335C30.193 37.2563 30.3086 37.103 30.4625 36.9962L33.6008 34.8142V25.186L30.4625 23.004C30.2801 22.8674 30.1579 22.6653 30.1217 22.4403C30.0854 22.2153 30.138 21.9851 30.2683 21.7981C30.3985 21.6111 30.5963 21.4821 30.8199 21.4381C31.0435 21.3942 31.2755 21.4388 31.4668 21.5626L34.9824 24.0071C35.099 24.088 35.1942 24.1959 35.2599 24.3216C35.3256 24.4474 35.3599 24.5871 35.3598 24.729V35.2759C35.3599 35.4177 35.3256 35.5575 35.2599 35.6832C35.1942 35.809 35.099 35.9169 34.9824 35.9977L31.4668 38.4376C31.3199 38.5408 31.1448 38.5965 30.9652 38.597Z" fill="#FF5E03"/>
<path d="M29.2061 55.4883C28.507 55.4874 27.8369 55.2093 27.3426 54.715C26.8484 54.2207 26.5703 53.5506 26.5693 52.8516V7.14844C26.5693 6.44914 26.8471 5.77848 27.3416 5.284C27.8361 4.78951 28.5068 4.51172 29.2061 4.51172C29.9054 4.51172 30.576 4.78951 31.0705 5.284C31.565 5.77848 31.8428 6.44914 31.8428 7.14844V52.8516C31.8422 53.5507 31.5642 54.221 31.0698 54.7153C30.5755 55.2097 29.9052 55.4877 29.2061 55.4883ZM29.2061 6.26953C28.973 6.26984 28.7497 6.36254 28.5849 6.5273C28.4202 6.69206 28.3275 6.91543 28.3271 7.14844V52.8516C28.3271 53.0847 28.4197 53.3082 28.5846 53.473C28.7494 53.6379 28.973 53.7305 29.2061 53.7305C29.4392 53.7305 29.6627 53.6379 29.8275 53.473C29.9924 53.3082 30.085 53.0847 30.085 52.8516V7.14844C30.085 6.91534 29.9924 6.69178 29.8275 6.52696C29.6627 6.36213 29.4392 6.26953 29.2061 6.26953Z" fill="#020202"/>
<path d="M5.39258 39.668C5.15948 39.668 4.93592 39.5754 4.7711 39.4105C4.60627 39.2457 4.51367 39.0222 4.51367 38.7891V21.2109C4.51367 20.9778 4.60627 20.7543 4.7711 20.5895C4.93592 20.4246 5.15948 20.332 5.39258 20.332C5.62568 20.332 5.84923 20.4246 6.01406 20.5895C6.17889 20.7543 6.27148 20.9778 6.27148 21.2109V38.7891C6.27148 39.0222 6.17889 39.2457 6.01406 39.4105C5.84923 39.5754 5.62568 39.668 5.39258 39.668Z" fill="#020202"/>
<path d="M12.4238 39.668C12.1907 39.668 11.9672 39.5754 11.8023 39.4105C11.6375 39.2457 11.5449 39.0222 11.5449 38.7891V21.2109C11.5449 20.9778 11.6375 20.7543 11.8023 20.5895C11.9672 20.4246 12.1907 20.332 12.4238 20.332C12.6569 20.332 12.8805 20.4246 13.0453 20.5895C13.2101 20.7543 13.3027 20.9778 13.3027 21.2109V38.7891C13.3027 39.0222 13.2101 39.2457 13.0453 39.4105C12.8805 39.5754 12.6569 39.668 12.4238 39.668Z" fill="#020202"/>
<path d="M60.1191 60H49.5723C49.3392 60 49.1156 59.9074 48.9508 59.7426C48.786 59.5777 48.6934 59.3542 48.6934 59.1211V0.878906C48.6934 0.645806 48.786 0.422253 48.9508 0.257426C49.1156 0.0925988 49.3392 0 49.5723 0L60.1191 0C60.3522 0 60.5758 0.0925988 60.7406 0.257426C60.9054 0.422253 60.998 0.645806 60.998 0.878906V59.1211C60.998 59.3542 60.9054 59.5777 60.7406 59.7426C60.5758 59.9074 60.3522 60 60.1191 60ZM50.4512 58.2422H59.2402V1.75781H50.4512V58.2422Z" fill="#020202"/>
<path d="M53.0879 60C52.8548 60 52.6312 59.9074 52.4664 59.7426C52.3016 59.5777 52.209 59.3542 52.209 59.1211V0.878906C52.209 0.645806 52.3016 0.422253 52.4664 0.257426C52.6312 0.0925988 52.8548 0 53.0879 0C53.321 0 53.5445 0.0925988 53.7094 0.257426C53.8742 0.422253 53.9668 0.645806 53.9668 0.878906V59.1211C53.9668 59.3542 53.8742 59.5777 53.7094 59.7426C53.5445 59.9074 53.321 60 53.0879 60Z" fill="#020202"/>
<path d="M37.9953 33.3643C37.8216 33.3642 37.6518 33.3126 37.5074 33.216C37.363 33.1194 37.2505 32.9822 37.184 32.8217C37.1176 32.6612 37.1002 32.4846 37.134 32.3142C37.1679 32.1438 37.2515 31.9873 37.3742 31.8643C37.6191 31.6195 37.8133 31.3288 37.9458 31.0089C38.0783 30.689 38.1465 30.3461 38.1465 29.9999C38.1465 29.6536 38.0783 29.3108 37.9458 28.9908C37.8133 28.6709 37.6191 28.3803 37.3742 28.1354C37.2188 27.969 37.1341 27.7487 37.1379 27.521C37.1417 27.2933 37.2337 27.0759 37.3946 26.9148C37.5555 26.7536 37.7726 26.6611 38.0003 26.6569C38.228 26.6527 38.4485 26.737 38.6152 26.8921C39.4376 27.7164 39.8995 28.8332 39.8995 29.9975C39.8995 31.1619 39.4376 32.2787 38.6152 33.103C38.4514 33.2688 38.2284 33.3628 37.9953 33.3643Z" fill="#FF5E03"/>
<path d="M42.9672 38.3367C42.7934 38.3368 42.6234 38.2853 42.4789 38.1888C42.3343 38.0923 42.2216 37.9551 42.155 37.7946C42.0884 37.634 42.0709 37.4573 42.1047 37.2868C42.1385 37.1163 42.2221 36.9597 42.3449 36.8367C43.243 35.939 43.9553 34.8732 44.4413 33.7001C44.9274 32.5271 45.1775 31.2698 45.1775 30C45.1775 28.7302 44.9274 27.4729 44.4413 26.2998C43.9553 25.1268 43.243 24.061 42.3449 23.1633C42.1849 22.9974 42.0964 22.7754 42.0985 22.5449C42.1006 22.3145 42.1932 22.0941 42.3562 21.9312C42.5192 21.7683 42.7397 21.676 42.9702 21.6741C43.2006 21.6722 43.4226 21.7609 43.5883 21.9211C44.6493 22.982 45.491 24.2415 46.0652 25.6277C46.6394 27.0138 46.935 28.4996 46.935 30C46.935 31.5004 46.6394 32.9861 46.0652 34.3723C45.491 35.7585 44.6493 37.018 43.5883 38.0789C43.507 38.1608 43.4102 38.2258 43.3036 38.2701C43.197 38.3144 43.0826 38.337 42.9672 38.3367Z" fill="#FF5E03"/>
<path d="M40.4823 35.8512C40.3085 35.851 40.1387 35.7993 39.9942 35.7026C39.8497 35.606 39.7371 35.4687 39.6706 35.3081C39.604 35.1476 39.5865 34.9709 39.6202 34.8004C39.6539 34.6299 39.7374 34.4732 39.86 34.35C40.4314 33.7788 40.8846 33.1007 41.1938 32.3543C41.503 31.6079 41.6621 30.8079 41.6621 30C41.6621 29.1921 41.503 28.3922 41.1938 27.6458C40.8846 26.8994 40.4314 26.2212 39.86 25.65C39.7784 25.5684 39.7136 25.4715 39.6695 25.3648C39.6253 25.2581 39.6025 25.1438 39.6025 25.0284C39.6025 24.9129 39.6253 24.7986 39.6695 24.6919C39.7136 24.5852 39.7784 24.4883 39.86 24.4067C39.9417 24.325 40.0386 24.2603 40.1453 24.2161C40.2519 24.1719 40.3663 24.1492 40.4817 24.1492C40.5972 24.1492 40.7115 24.1719 40.8182 24.2161C40.9248 24.2603 41.0218 24.325 41.1034 24.4067C41.8379 25.1412 42.4206 26.0132 42.8181 26.9729C43.2157 27.9326 43.4203 28.9613 43.4203 30C43.4203 31.0388 43.2157 32.0674 42.8181 33.0271C42.4206 33.9869 41.8379 34.8589 41.1034 35.5934C40.9386 35.7581 40.7153 35.8507 40.4823 35.8512Z" fill="#FF5E03"/>
</g>
<defs>
<clipPath id="clip0_3068_1777">
<rect width="60" height="60" fill="white" transform="translate(0.998047)"/>
</clipPath>
</defs>
</svg>
