<svg width="65" height="65" viewBox="0 0 65 65" fill="none" xmlns="http://www.w3.org/2000/svg">
<g id="clock 1" clip-path="url(#clip0_3330_9685)">
<g id="Group">
<path id="Vector" d="M55.4811 9.51895C49.3425 3.38051 41.1811 0 32.5 0C23.8189 0 15.6575 3.38051 9.51895 9.51895C3.38038 15.6574 0 23.8189 0 32.5C0 41.1811 3.38051 49.3425 9.51895 55.4811C15.6574 61.6196 23.8189 65 32.5 65C41.1811 65 49.3425 61.6195 55.4811 55.4811C61.6196 49.3426 65 41.1811 65 32.5C65 23.8189 61.6195 15.6575 55.4811 9.51895ZM54.0447 54.0447C48.2899 59.7995 40.6385 62.9688 32.5 62.9688C24.3615 62.9688 16.7101 59.7995 10.9553 54.0447C5.20051 48.2899 2.03125 40.6385 2.03125 32.5C2.03125 24.3615 5.20051 16.7101 10.9553 10.9553C16.7101 5.20051 24.3615 2.03125 32.5 2.03125C40.6385 2.03125 48.2899 5.20051 54.0447 10.9553C59.7995 16.7101 62.9688 24.3615 62.9688 32.5C62.9688 40.6385 59.7995 48.2899 54.0447 54.0447Z" fill="black"/>
<path id="Vector_2" d="M6.09375 32.5C6.09375 17.9396 17.9396 6.09375 32.5 6.09375C37.7518 6.09375 42.8246 7.63128 47.1701 10.5402C47.6361 10.8522 48.2669 10.7273 48.579 10.2611C48.891 9.79507 48.7661 9.16424 48.2999 8.85219C43.6191 5.71873 38.1555 4.0625 32.5 4.0625C24.904 4.0625 17.7628 7.02051 12.3916 12.3916C7.02051 17.7628 4.0625 24.904 4.0625 32.5C4.0625 39.5078 6.63381 46.2404 11.3029 51.4577C11.5035 51.6819 11.7813 51.796 12.06 51.796C12.3011 51.796 12.5432 51.7107 12.737 51.5371C13.1549 51.163 13.1906 50.521 12.8164 50.1031C8.48136 45.2588 6.09375 39.0072 6.09375 32.5Z" fill="black"/>
<path id="Vector_3" d="M56.1483 16.7003C55.8362 16.2341 55.2054 16.1092 54.7393 16.4213C54.2733 16.7333 54.1483 17.3642 54.4603 17.8302C57.3691 22.1756 58.9066 27.2483 58.9066 32.5C58.9066 47.0604 47.0607 58.9063 32.5003 58.9063C26.4595 58.9063 20.5546 56.8142 15.8734 53.0155C15.4378 52.6621 14.7982 52.7286 14.4448 53.1642C14.0914 53.5998 14.1579 54.2393 14.5935 54.5928C19.6354 58.6842 25.9949 60.9375 32.5003 60.9375C40.0963 60.9375 47.2376 57.9795 52.6087 52.6084C57.9798 47.2372 60.9378 40.096 60.9378 32.5C60.9378 26.8446 59.2816 21.3811 56.1483 16.7003Z" fill="black"/>
<path id="Vector_4" d="M50.1039 12.8165C50.7868 13.4276 51.4452 14.0815 52.0608 14.7599C52.2613 14.9808 52.5367 15.0931 52.8133 15.0931C53.0566 15.0931 53.301 15.006 53.4955 14.8295C53.9108 14.4526 53.942 13.8102 53.5651 13.3948C52.9024 12.6646 52.1936 11.9607 51.4585 11.3029C51.0406 10.9289 50.3985 10.9644 50.0245 11.3823C49.6505 11.8003 49.6859 12.4424 50.1039 12.8165Z" fill="black"/>
<path id="Vector_5" d="M32.5 13.2031C33.0609 13.2031 33.5156 12.7484 33.5156 12.1875V9.14062C33.5156 8.57975 33.0609 8.125 32.5 8.125C31.9391 8.125 31.4844 8.57975 31.4844 9.14062V12.1875C31.4844 12.7484 31.9391 13.2031 32.5 13.2031Z" fill="black"/>
<path id="Vector_6" d="M31.4844 52.8125V55.8594C31.4844 56.4203 31.9391 56.875 32.5 56.875C33.0609 56.875 33.5156 56.4203 33.5156 55.8594V52.8125C33.5156 52.2516 33.0609 51.7969 32.5 51.7969C31.9391 51.7969 31.4844 52.2516 31.4844 52.8125Z" fill="black"/>
<path id="Vector_7" d="M13.2031 32.5C13.2031 31.9391 12.7484 31.4844 12.1875 31.4844H9.14062C8.57975 31.4844 8.125 31.9391 8.125 32.5C8.125 33.0609 8.57975 33.5156 9.14062 33.5156H12.1875C12.7484 33.5156 13.2031 33.0609 13.2031 32.5Z" fill="black"/>
<path id="Vector_8" d="M51.7969 32.5C51.7969 33.0609 52.2516 33.5156 52.8125 33.5156H55.8594C56.4203 33.5156 56.875 33.0609 56.875 32.5C56.875 31.9391 56.4203 31.4844 55.8594 31.4844H52.8125C52.2516 31.4844 51.7969 31.9391 51.7969 32.5Z" fill="black"/>
<path id="Vector_9" d="M23.2234 14.401L21.7 11.7623C21.4195 11.2765 20.7984 11.1103 20.3126 11.3906C19.8269 11.671 19.6605 12.2922 19.9409 12.7779L21.4644 15.4167C21.6525 15.7424 21.9939 15.9246 22.3449 15.9246C22.5172 15.9246 22.6919 15.8807 22.8518 15.7884C23.3374 15.5079 23.5039 14.8868 23.2234 14.401Z" fill="black"/>
<path id="Vector_10" d="M43.5359 49.5833C43.2555 49.0976 42.6342 48.9314 42.1486 49.2116C41.6628 49.4921 41.4964 50.1132 41.7769 50.599L43.3003 53.2377C43.4884 53.5634 43.8298 53.7456 44.1808 53.7456C44.3531 53.7456 44.5278 53.7017 44.6878 53.6094C45.1735 53.329 45.3399 52.7078 45.0595 52.2221L43.5359 49.5833Z" fill="black"/>
<path id="Vector_11" d="M12.2715 45.1955C12.4438 45.1955 12.6185 45.1515 12.7785 45.0592L15.4172 43.5358C15.9029 43.2554 16.0693 42.6342 15.7889 42.1485C15.5085 41.6627 14.8871 41.4966 14.4015 41.7767L11.7628 43.3002C11.2771 43.5806 11.1107 44.2018 11.3911 44.6875C11.5791 45.0133 11.9205 45.1955 12.2715 45.1955Z" fill="black"/>
<path id="Vector_12" d="M50.0928 23.3595C50.2651 23.3595 50.4398 23.3156 50.5997 23.2233L53.2385 21.6999C53.7242 21.4194 53.8906 20.7982 53.6102 20.3125C53.3297 19.8268 52.7086 19.6606 52.2228 19.9408L49.5841 21.4642C49.0984 21.7447 48.932 22.3659 49.2124 22.8516C49.4005 23.1773 49.7419 23.3595 50.0928 23.3595Z" fill="black"/>
<path id="Vector_13" d="M44.6876 11.3906C44.2019 11.1101 43.5807 11.2765 43.3003 11.7624L41.7769 14.4011C41.4964 14.8868 41.6628 15.508 42.1486 15.7884C42.3085 15.8808 42.4831 15.9246 42.6555 15.9246C43.0065 15.9246 43.3479 15.7425 43.536 15.4167L45.0595 12.778C45.3398 12.2923 45.1734 11.6711 44.6876 11.3906Z" fill="black"/>
<path id="Vector_14" d="M22.8517 49.2116C22.366 48.9312 21.7448 49.0976 21.4644 49.5833L19.9409 52.222C19.6605 52.7078 19.8269 53.329 20.3126 53.6094C20.4726 53.7018 20.6472 53.7456 20.8196 53.7456C21.1706 53.7456 21.512 53.5634 21.7001 53.2377L23.2235 50.5989C23.5039 50.1132 23.3374 49.492 22.8517 49.2116Z" fill="black"/>
<path id="Vector_15" d="M49.5841 43.5358L52.2228 45.0592C52.3828 45.1516 52.5573 45.1954 52.7297 45.1954C53.0808 45.1954 53.4221 45.0133 53.6103 44.6875C53.8907 44.2018 53.7243 43.5806 53.2386 43.3002L50.5998 41.7767C50.1141 41.4962 49.4929 41.6627 49.2125 42.1484C48.9319 42.6342 49.0984 43.2554 49.5841 43.5358Z" fill="black"/>
<path id="Vector_16" d="M15.4162 21.4642L12.7775 19.9408C12.2918 19.6602 11.6706 19.8268 11.3901 20.3125C11.1097 20.7982 11.2761 21.4194 11.7619 21.6998L14.4006 23.2233C14.5605 23.3157 14.7351 23.3595 14.9075 23.3595C15.2585 23.3595 15.5999 23.1773 15.788 22.8516C16.0684 22.3658 15.9019 21.7447 15.4162 21.4642Z" fill="black"/>
<path id="Vector_17" d="M39.5703 45.7604C39.7425 45.7604 39.9172 45.7165 40.0772 45.6242C40.5629 45.3437 40.7294 44.7225 40.4489 44.2368L34.8147 34.4781C35.2706 33.9452 35.5469 33.2545 35.5469 32.5C35.5469 31.176 34.6977 30.047 33.5156 29.6278V16.25C33.5156 15.6891 33.0609 15.2344 32.5 15.2344C31.9391 15.2344 31.4844 15.6891 31.4844 16.25V29.6278C30.3023 30.047 29.4531 31.176 29.4531 32.5C29.4531 34.1801 30.8199 35.5469 32.5 35.5469C32.69 35.5469 32.8759 35.5285 33.0564 35.4951L38.6899 45.2524C38.878 45.5782 39.2194 45.7604 39.5703 45.7604ZM31.4844 32.5C31.4844 31.94 31.94 31.4844 32.5 31.4844C33.06 31.4844 33.5156 31.94 33.5156 32.5C33.5156 33.06 33.06 33.5156 32.5 33.5156C31.94 33.5156 31.4844 33.06 31.4844 32.5Z" fill="#FF5E03"/>
</g>
</g>
<defs>
<clipPath id="clip0_3330_9685">
<rect width="65" height="65" fill="white"/>
</clipPath>
</defs>
</svg>
