<svg width="60" height="61" viewBox="0 0 60 61" fill="none" xmlns="http://www.w3.org/2000/svg">
<g clip-path="url(#clip0_3068_1741)">
<path d="M17.3486 27.7424H22.3828C22.8683 27.7424 23.2617 27.3489 23.2617 26.8635C23.2617 26.3781 22.8683 25.9846 22.3828 25.9846H17.3486C16.8631 25.9846 16.4697 26.3781 16.4697 26.8635C16.4697 27.3489 16.8631 27.7424 17.3486 27.7424Z" fill="#FF5E03"/>
<path d="M17.3486 32.002H37.7943C38.2798 32.002 38.6732 31.6084 38.6732 31.123C38.6732 30.6377 38.2798 30.2441 37.7943 30.2441H17.3486C16.8631 30.2441 16.4697 30.6377 16.4697 31.123C16.4697 31.6084 16.8631 32.002 17.3486 32.002Z" fill="#FF5E03"/>
<path d="M37.7944 34.5037H32.3438C31.8582 34.5037 31.4648 34.8972 31.4648 35.3826C31.4648 35.868 31.8582 36.2615 32.3438 36.2615H37.7944C38.2799 36.2615 38.6733 35.868 38.6733 35.3826C38.6733 34.8972 38.2798 34.5037 37.7944 34.5037Z" fill="#FF5E03"/>
<path d="M57.5247 5.90254L46.1483 0.216953C45.5742 -0.0700391 44.8888 -0.0700391 44.3147 0.216953L32.9381 5.90254C32.2387 6.25211 31.8041 6.955 31.8041 7.73699V9.37258H19.4534C18.9679 9.37258 18.5745 9.76609 18.5745 10.2515C18.5745 10.7369 18.9679 11.1304 19.4534 11.1304H31.8042V13.8033C31.8042 15.0854 31.9003 16.3041 32.0926 17.4657H17.3489C16.8634 17.4657 16.47 17.8592 16.47 18.3446C16.47 18.83 16.8634 19.2235 17.3489 19.2235H32.4688C32.6992 20.0907 32.9905 20.9235 33.3424 21.7252H17.3489C16.8634 21.7252 16.47 22.1187 16.47 22.6041C16.47 23.0895 16.8634 23.483 17.3489 23.483H34.241C34.5497 24.0077 34.8878 24.518 35.2562 25.0149C35.4988 25.3421 35.7552 25.6649 36.0265 25.9847H25.8987C25.4132 25.9847 25.0198 26.3782 25.0198 26.8636C25.0198 27.349 25.4132 27.7425 25.8987 27.7425H37.7032C39.3602 29.302 41.4546 30.8372 44.1589 32.4922C44.4897 32.6945 44.8604 32.7957 45.2313 32.7957C45.6022 32.7957 45.973 32.6945 46.3038 32.4922C46.3937 32.4372 46.4818 32.3825 46.5703 32.3279V53.6717H23.5746V47.9314C23.5746 47.446 23.1812 51.154 22.6957 51.154C22.2102 51.154 21.8168 47.446 21.8168 47.9314V57.9509C21.8168 58.1124 21.6854 58.2439 21.5238 58.2439H3.39258C3.23098 58.2439 3.09961 58.1124 3.09961 57.9509V45.2915C3.09961 45.13 3.23098 44.9985 3.39258 44.9985H21.5238C21.6854 44.9985 21.8168 45.13 21.8168 45.2915V47.9314C21.8168 48.4168 22.2102 51.6323 22.6957 51.6323C23.1812 51.6323 23.5746 48.4168 23.5746 47.9314V45.2915C23.5746 45.1149 23.5498 44.9443 23.5076 44.7807H37.7946C38.2801 44.7807 38.6735 44.3871 38.6735 43.9018C38.6735 43.4164 38.2801 43.0229 37.7946 43.0229H20.7504V40.5211H37.7945C38.28 40.5211 38.6734 40.1276 38.6734 39.6422C38.6734 39.1568 38.28 38.7633 37.7945 38.7633H20.7136C20.6324 37.8827 20.4136 37.0415 20.0777 36.2616H29.1799C29.6654 36.2616 30.0588 35.8681 30.0588 35.3827C30.0588 34.8973 29.6654 34.5038 29.1799 34.5038H19.0471C17.5305 32.5206 15.1418 31.2381 12.4582 31.2381C11.0549 31.2381 9.73266 31.5897 8.57285 32.2076V11.1304H21.3046C21.7901 11.1304 20.435 10.7369 20.435 10.2515C20.435 9.76609 22.2249 9.37258 21.7394 9.37258H8.27988C7.47211 9.37258 6.81504 10.0296 6.81504 10.8374V33.4621C5.18695 34.9771 4.16602 37.1363 4.16602 39.5303V43.2406H3.39258C2.26184 43.2406 1.3418 44.1606 1.3418 45.2914V57.9509C1.3418 59.0816 2.26184 60.0017 3.39258 60.0017H21.5238C22.6546 60.0017 23.5746 59.0816 23.5746 57.9509V55.4294H46.8634C47.6712 55.4294 48.3282 54.7723 48.3282 53.9645V31.1987C51.4567 29.1052 53.6227 27.151 55.2066 25.0149C57.5293 21.8825 58.6586 18.2151 58.6586 13.8034V7.73699C58.6587 6.95512 58.2241 6.25223 57.5247 5.90254ZM15.4771 43.2407H9.43945V39.5304C9.43945 37.8658 10.7938 36.5116 12.4583 36.5116C14.1229 36.5116 15.4772 37.8658 15.4772 39.5304L15.4771 43.2407ZM5.92383 39.5304C5.92383 35.9273 8.85527 32.9959 12.4583 32.9959C16.0614 32.9959 18.9927 35.9273 18.9927 39.5304V43.2407H17.235V39.5304C17.235 36.8965 15.0922 34.7537 12.4583 34.7537C9.82441 34.7537 7.68164 36.8965 7.68164 39.5304V43.2407H5.92383V39.5304ZM56.9009 13.8034C56.9009 22.2498 52.4951 26.6427 45.3865 30.9927C45.292 31.0505 45.1704 31.0504 45.0764 30.9927C37.9677 26.6426 33.5619 22.2498 33.5619 13.8034V7.73699C33.5619 7.6252 33.624 7.52477 33.724 7.47484L45.1004 1.78914C45.1823 1.74813 45.2802 1.74813 45.3623 1.78914L56.7387 7.47473C56.8386 7.52465 56.9007 7.62508 56.9007 7.73688L56.9009 13.8034Z" fill="black"/>
<path d="M50.2061 13.9171L45.6165 19.6262C45.5266 19.7385 45.4158 19.8299 45.2912 19.8945C45.1665 19.9591 45.0306 19.9955 44.8921 20.0016H44.8518C44.5863 20.0017 44.3316 19.8898 44.1434 19.6905L42.0251 17.4539C41.8408 17.2529 41.7382 16.9829 41.7393 16.7021C41.7404 16.4213 41.8451 16.1523 42.031 15.9529C42.2168 15.7535 42.4688 15.6398 42.7327 15.6362C42.9966 15.6327 43.2513 15.7396 43.4418 15.9339L44.7914 17.3612L48.6821 12.5284C48.8577 12.3215 49.1023 12.1957 49.3638 12.1778C49.6253 12.1598 49.8831 12.2511 50.0823 12.4321C50.2815 12.6132 50.4065 12.8698 50.4306 13.1474C50.4548 13.425 50.3761 13.7017 50.2115 13.9186L50.2061 13.9171Z" fill="#FF5E03"/>
</g>
<defs>
<clipPath id="clip0_3068_1741">
<rect width="60" height="60" fill="white" transform="translate(0 0.00170898)"/>
</clipPath>
</defs>
</svg>
