<svg width="24" height="24" viewBox="0 0 24 24" fill="none" xmlns="http://www.w3.org/2000/svg">
<path d="M10.3788 13.052C10.3236 13.052 9.11092 13.052 8.55969 13.052C8.2657 13.052 8.17383 12.9449 8.17383 12.6773C8.17383 11.9637 8.17383 11.2322 8.17383 10.5186C8.17383 10.2331 8.28407 10.1439 8.55969 10.1439H10.3788C10.3788 10.0904 10.3788 9.05562 10.3788 8.57392C10.3788 7.86028 10.5074 7.18233 10.8749 6.5579C11.2607 5.91562 11.812 5.48744 12.5102 5.23767C12.9696 5.0771 13.4289 5.00574 13.925 5.00574H15.7257C15.983 5.00574 16.0932 5.11278 16.0932 5.36256V7.39642C16.0932 7.64619 15.983 7.75324 15.7257 7.75324C15.2296 7.75324 14.7335 7.75324 14.2374 7.77108C13.7413 7.77108 13.484 8.00301 13.484 8.50256C13.4657 9.03778 13.484 9.55517 13.484 10.1082H15.6155C15.9095 10.1082 16.0197 10.2153 16.0197 10.5007V12.6595C16.0197 12.9449 15.9278 13.0341 15.6155 13.0341C14.954 13.0341 13.5392 13.0341 13.484 13.0341V18.8503C13.484 19.1536 13.3922 19.2606 13.0614 19.2606C12.2897 19.2606 11.5363 19.2606 10.7646 19.2606C10.489 19.2606 10.3788 19.1536 10.3788 18.886C10.3788 17.0127 10.3788 13.1055 10.3788 13.052Z" fill="white"/>
</svg>
