<svg width="65" height="65" viewBox="0 0 65 65" fill="none" xmlns="http://www.w3.org/2000/svg">
<g id="Capa_1" clip-path="url(#clip0_3330_9641)">
<path id="Vector" d="M6.29922 51.7144C6.14474 51.7147 5.99251 51.6773 5.85574 51.6054C5.71896 51.5335 5.60177 51.4293 5.51432 51.3018C1.77301 45.8321 -0.15301 39.3218 0.00949984 32.6945C0.172009 26.0671 2.4148 19.6593 6.41968 14.38L6.4387 14.3559L7.24642 13.3631C7.32535 13.2662 7.42258 13.1857 7.53256 13.1264C7.64253 13.0671 7.7631 13.03 7.88739 13.0174C8.01167 13.0047 8.13722 13.0166 8.25689 13.0525C8.37655 13.0885 8.48798 13.1476 8.58481 13.2266C8.68164 13.3057 8.76198 13.403 8.82123 13.5131C8.88048 13.6232 8.9175 13.7439 8.93015 13.8684C8.94281 13.9928 8.93087 14.1185 8.895 14.2383C8.85913 14.3581 8.80005 14.4697 8.72112 14.5666L7.92354 15.5467C4.16552 20.5067 2.06199 26.525 1.9111 32.7488C1.76021 38.9725 3.56961 45.086 7.08285 50.2227C7.22446 50.4306 7.27808 50.6862 7.23198 50.9337C7.18589 51.1811 7.04382 51.4001 6.83686 51.543C6.67956 51.6542 6.49179 51.7141 6.29922 51.7144Z" fill="#FF5E03"/>
<path id="Vector_2" d="M31.4936 65C30.8283 65 30.1609 64.9789 29.4914 64.9366C21.8458 64.4516 14.6396 61.1902 9.22481 55.7642C8.95346 55.4938 8.67576 55.2043 8.37651 54.8755C8.28769 54.7846 8.21797 54.6767 8.17147 54.5584C8.12496 54.44 8.10262 54.3135 8.10576 54.1863C8.1089 54.0592 8.13745 53.9339 8.18974 53.818C8.24203 53.7021 8.31699 53.5978 8.41019 53.5113C8.50339 53.4249 8.61295 53.358 8.73239 53.3147C8.85184 53.2713 8.97875 53.2524 9.10563 53.259C9.2325 53.2655 9.35678 53.2975 9.47112 53.353C9.58546 53.4084 9.68753 53.4863 9.77133 53.5819C10.0554 53.8878 10.3166 54.1608 10.5689 54.4147C15.63 59.4805 22.3528 62.5391 29.493 63.0244C36.6331 63.5096 43.7071 61.3887 49.4055 57.054C49.6062 56.9008 49.8593 56.8337 50.1094 56.8674C50.3594 56.9011 50.5858 57.0328 50.7389 57.2337C50.8919 57.4345 50.9589 57.688 50.9253 57.9383C50.8916 58.1887 50.76 58.4154 50.5594 58.5686C45.0788 62.7443 38.3808 65.0037 31.4936 65Z" fill="black"/>
<path id="Vector_3" d="M9.40855 19.2486C9.17583 19.2484 8.95128 19.1627 8.77742 19.0078C8.60356 18.8529 8.49245 18.6396 8.46515 18.4082L7.93892 14.1197L3.65685 14.6479C3.5288 14.6729 3.39698 14.6713 3.26957 14.6432C3.14216 14.615 3.0219 14.561 2.91627 14.4843C2.81064 14.4076 2.72189 14.31 2.65555 14.1975C2.58921 14.0851 2.5467 13.9601 2.53065 13.8305C2.51461 13.7008 2.52538 13.5693 2.5623 13.444C2.59921 13.3187 2.66148 13.2024 2.74523 13.1022C2.82898 13.002 2.93242 12.9202 3.04911 12.8618C3.1658 12.8034 3.29325 12.7696 3.42354 12.7626L8.64901 12.119C8.77318 12.1035 8.89917 12.1128 9.01976 12.1462C9.14036 12.1795 9.25318 12.2364 9.35178 12.3136C9.45037 12.3907 9.53279 12.4865 9.59432 12.5956C9.65585 12.7047 9.69527 12.8249 9.71033 12.9492L10.3532 18.1822C10.3685 18.3063 10.3591 18.4321 10.3258 18.5526C10.2924 18.673 10.2356 18.7857 10.1587 18.8841C10.0818 18.9826 9.98628 19.0649 9.87757 19.1264C9.76887 19.1878 9.64913 19.2272 9.5252 19.2423C9.48649 19.2469 9.44753 19.249 9.40855 19.2486Z" fill="#FF5E03"/>
<path id="Vector_4" d="M13.0109 10.0686C12.8117 10.0689 12.6175 10.0066 12.4556 9.8904C12.2937 9.77423 12.1723 9.61011 12.1086 9.42119C12.0449 9.23226 12.042 9.02807 12.1004 8.83742C12.1587 8.64676 12.2754 8.47927 12.434 8.35857C16.9477 4.92687 22.3017 2.77655 27.9329 2.13381C33.564 1.49106 39.2641 2.37966 44.4335 4.70613C44.6633 4.80966 44.8427 5.00038 44.9321 5.23632C45.0215 5.47226 45.0137 5.7341 44.9103 5.96423C44.8069 6.19437 44.6164 6.37395 44.3807 6.46347C44.145 6.55299 43.8835 6.54511 43.6537 6.44158C38.7966 4.25582 33.4411 3.42062 28.1502 4.0238C22.8593 4.62698 17.8285 6.64625 13.5866 9.86931C13.4221 9.99791 13.2196 10.068 13.0109 10.0686Z" fill="black"/>
<path id="Vector_5" d="M54.9053 54.0186C54.7244 54.0184 54.5472 53.9666 54.3947 53.8691C54.2421 53.7717 54.1205 53.6327 54.044 53.4685C53.9676 53.3043 53.9396 53.1217 53.9632 52.942C53.9869 52.7624 54.0612 52.5933 54.1775 52.4545L55.079 51.3792C58.3309 47.0845 60.3529 41.9841 60.9279 36.6257C61.5029 31.2673 60.6093 25.8533 58.3429 20.965C58.2428 20.737 58.2359 20.4788 58.3237 20.2457C58.4115 20.0127 58.5871 19.8234 58.8127 19.7184C59.0383 19.6134 59.2961 19.6011 59.5306 19.6842C59.7652 19.7673 59.9579 19.939 60.0674 20.1627C62.4814 25.3688 63.4323 31.1353 62.8177 36.8421C62.203 42.5488 60.0462 47.9798 56.5791 52.551L56.5499 52.5853L55.6344 53.6783C55.5452 53.785 55.4336 53.8708 55.3076 53.9295C55.1816 53.9883 55.0443 54.0187 54.9053 54.0186Z" fill="black"/>
<path id="Vector_6" d="M54.2264 54.8196C53.9941 54.8195 53.7698 54.7344 53.5959 54.5803C53.4219 54.4262 53.3101 54.2138 53.2817 53.983L52.6401 48.75C52.6163 48.6221 52.619 48.4908 52.6478 48.364C52.6767 48.2373 52.7312 48.1178 52.808 48.0129C52.8847 47.908 52.9821 47.82 53.0942 47.7543C53.2062 47.6885 53.3305 47.6465 53.4594 47.6307C53.5883 47.6149 53.7191 47.6256 53.8437 47.6624C53.9682 47.6991 54.084 47.761 54.1838 47.8442C54.2835 47.9274 54.3652 48.0302 54.4238 48.1463C54.4824 48.2623 54.5166 48.3891 54.5243 48.5189L55.0544 52.8125L59.3428 52.2793C59.4687 52.2596 59.5974 52.2655 59.721 52.2965C59.8447 52.3276 59.9608 52.3833 60.0625 52.4602C60.1643 52.5371 60.2495 52.6337 60.3132 52.7443C60.3769 52.8549 60.4178 52.9771 60.4333 53.1038C60.4489 53.2305 60.4388 53.359 60.4038 53.4817C60.3688 53.6045 60.3094 53.7189 60.2294 53.8182C60.1493 53.9175 60.05 53.9997 59.9376 54.0598C59.8252 54.12 59.7018 54.1569 59.5748 54.1683L54.3481 54.812C54.3077 54.8173 54.2671 54.8199 54.2264 54.8196Z" fill="black"/>
<path id="Vector_7" d="M57.7216 12.7258H52.9032C52.6509 12.7258 52.409 12.6255 52.2307 12.4469C52.0523 12.2683 51.9521 12.0261 51.9521 11.7736V5.62274C51.9521 5.37022 52.0523 5.12803 52.2307 4.94947C52.409 4.77091 52.6509 4.67059 52.9032 4.67059C53.1554 4.67059 53.3973 4.77091 53.5756 4.94947C53.754 5.12803 53.8542 5.37022 53.8542 5.62274V10.8215H57.7241C57.9764 10.8215 58.2183 10.9218 58.3966 11.1003C58.5749 11.2789 58.6751 11.5211 58.6751 11.7736C58.6751 12.0261 58.5749 12.2683 58.3966 12.4469C58.2183 12.6255 57.9764 12.7258 57.7241 12.7258H57.7216Z" fill="#FF5E03"/>
<path id="Vector_8" d="M17.1082 38.4033C16.856 38.4033 16.6141 38.303 16.4358 38.1244C16.2574 37.9459 16.1572 37.7037 16.1572 37.4512V27.8027C16.1572 27.5502 16.2574 27.308 16.4358 27.1295C16.6141 26.9509 16.856 26.8506 17.1082 26.8506C17.3605 26.8506 17.6024 26.9509 17.7807 27.1295C17.959 27.308 18.0592 27.5502 18.0592 27.8027V37.4512C18.0592 37.7037 17.959 37.9459 17.7807 38.1244C17.6024 38.303 17.3605 38.4033 17.1082 38.4033Z" fill="black"/>
<path id="Vector_9" d="M44.6177 50.9793H18.3762C17.7879 50.9786 17.2239 50.7443 16.8079 50.3278C16.3919 49.9113 16.1579 49.3466 16.1572 48.7576V41.8945C16.1572 41.642 16.2574 41.3998 16.4358 41.2213C16.6141 41.0427 16.856 40.9424 17.1082 40.9424C17.3605 40.9424 17.6024 41.0427 17.7807 41.2213C17.959 41.3998 18.0592 41.642 18.0592 41.8945V48.7576C18.0592 48.8418 18.0926 48.9225 18.1521 48.982C18.2115 49.0416 18.2922 49.075 18.3762 49.075H44.6241C44.708 49.0747 44.7885 49.0411 44.8479 48.9817C44.9072 48.9222 44.9407 48.8417 44.9411 48.7576V27.8027C44.9411 27.5502 45.0413 27.308 45.2196 27.1295C45.398 26.9509 45.6399 26.8506 45.8921 26.8506C46.1443 26.8506 46.3862 26.9509 46.5646 27.1295C46.7429 27.308 46.8431 27.5502 46.8431 27.8027V48.75C46.8436 49.0428 46.7864 49.3328 46.6747 49.6034C46.5631 49.874 46.3992 50.1199 46.1925 50.327C45.9858 50.5341 45.7403 50.6983 45.47 50.8103C45.1998 50.9222 44.9102 50.9796 44.6177 50.9793Z" fill="black"/>
<path id="Vector_10" d="M49.0516 31.2064C48.8418 31.2066 48.6379 31.1369 48.4721 31.0083L31.496 17.9004L14.5211 31.0083C14.3213 31.1625 14.0686 31.231 13.8184 31.1986C13.5683 31.1662 13.3412 31.0357 13.1872 30.8357C13.0331 30.6357 12.9648 30.3826 12.9971 30.1321C13.0295 29.8817 13.1598 29.6543 13.3596 29.5001L30.4384 16.3122C30.7417 16.0787 31.1134 15.9521 31.496 15.9521C31.8785 15.9521 32.2503 16.0787 32.5535 16.3122L49.6336 29.5001C49.7909 29.6215 49.9063 29.7892 49.9636 29.9797C50.0209 30.1701 50.0172 30.3737 49.953 30.5619C49.8888 30.7501 49.7673 30.9135 49.6056 31.0291C49.444 31.1447 49.2502 31.2067 49.0516 31.2064Z" fill="black"/>
<path id="Vector_11" d="M35.9654 50.9793H27.0272C26.775 50.9793 26.5331 50.879 26.3547 50.7004C26.1764 50.5219 26.0762 50.2797 26.0762 50.0272V34.7547C26.0768 34.334 26.244 33.9308 26.5412 33.6333C26.8383 33.3359 27.241 33.1685 27.6612 33.1678H35.3314C35.7516 33.1685 36.1543 33.3359 36.4514 33.6333C36.7485 33.9308 36.9157 34.334 36.9164 34.7547V50.0272C36.9164 50.2797 36.8162 50.5219 36.6379 50.7004C36.4595 50.879 36.2176 50.9793 35.9654 50.9793ZM27.9769 49.075H35.0131V35.0721H27.9782L27.9769 49.075Z" fill="black"/>
<path id="Vector_12" d="M52.9 23.5473C50.2191 23.5463 47.6189 22.6285 45.5301 20.9459C43.4413 19.2632 41.9892 16.9167 41.4144 14.2949C41.3843 14.1715 41.3791 14.0434 41.3992 13.9179C41.4193 13.7925 41.4643 13.6724 41.5314 13.5647C41.5986 13.4569 41.6866 13.3637 41.7903 13.2905C41.894 13.2174 42.0113 13.1657 42.1353 13.1386C42.2592 13.1115 42.3873 13.1095 42.512 13.1327C42.6368 13.1559 42.7556 13.2039 42.8615 13.2738C42.9675 13.3437 43.0584 13.4341 43.1289 13.5397C43.1994 13.6453 43.248 13.7639 43.272 13.8887C43.7953 16.2722 45.1822 18.3769 47.1649 19.7964C49.1476 21.2159 51.5853 21.8494 54.0073 21.5745C56.4292 21.2997 58.6635 20.1359 60.2785 18.3081C61.8935 16.4803 62.7747 14.1181 62.7518 11.6779C62.7289 9.2376 61.8036 6.8924 60.1546 5.09529C58.5055 3.29817 56.2498 2.17666 53.8231 1.94738C51.3965 1.71811 48.971 2.39734 47.0153 3.85387C45.0596 5.3104 43.7124 7.44089 43.234 9.83379C43.2119 9.95847 43.1651 10.0775 43.0964 10.1838C43.0278 10.2902 42.9386 10.3818 42.8342 10.4532C42.7298 10.5247 42.6122 10.5745 42.4882 10.5999C42.3643 10.6253 42.2366 10.6256 42.1125 10.601C41.9885 10.5763 41.8706 10.5271 41.7657 10.4563C41.6609 10.3855 41.5712 10.2944 41.5019 10.1884C41.4327 10.0825 41.3852 9.96375 41.3624 9.8392C41.3395 9.71465 41.3417 9.58678 41.3688 9.46309C41.8058 7.2768 42.8539 5.25971 44.3912 3.64648C45.9284 2.03324 47.8916 0.890205 50.0523 0.35034C52.213 -0.189524 54.4824 -0.104016 56.5965 0.596914C58.7105 1.29784 60.5823 2.58538 61.9941 4.30972C63.4059 6.03407 64.2996 8.12433 64.5713 10.3373C64.843 12.5503 64.4815 14.795 63.5288 16.8104C62.5761 18.8257 61.0714 20.5287 59.1898 21.7214C57.3082 22.914 55.127 23.5472 52.9 23.5473Z" fill="black"/>
</g>
<defs>
<clipPath id="clip0_3330_9641">
<rect width="64.6597" height="65" fill="white"/>
</clipPath>
</defs>
</svg>
