<svg width="65" height="65" viewBox="0 0 65 65" fill="none" xmlns="http://www.w3.org/2000/svg">
<g id="idea 1" clip-path="url(#clip0_3330_9631)">
<g id="XMLID_14_">
<path id="Vector" d="M45.0685 19.2072C41.7911 16.0122 37.327 14.2526 32.4986 14.2526C27.6703 14.2526 23.2061 16.0122 19.9288 19.2072C16.6521 22.4015 14.8477 26.7447 14.8477 31.4368C14.8477 36.4446 17.0742 41.2229 20.9564 44.5468C22.9907 46.2883 24.2747 48.6969 24.7035 51.5458C23.66 52.1582 22.9584 53.2851 22.9584 54.5721V55.6253C22.9584 57.2257 24.0434 58.5789 25.522 59.0019C25.3246 59.4393 25.2139 59.923 25.2139 60.4324V61.4855C25.2139 63.4235 26.804 65.0001 28.7585 65.0001H36.2389C38.1934 65.0001 39.7835 63.4235 39.7835 61.4855V60.4324C39.7835 59.923 39.6728 59.4392 39.4754 59.0019C40.9541 58.5789 42.0391 57.2258 42.0391 55.6253V54.5721C42.0391 53.2851 41.3374 52.1582 40.2939 51.5458C40.7228 48.6969 42.0068 46.2883 44.041 44.5468C47.9232 41.223 50.1497 36.4447 50.1497 31.4368C50.1497 26.7447 48.3452 22.4015 45.0685 19.2072ZM37.5613 61.4854C37.5613 62.198 36.9681 62.7778 36.2389 62.7778H28.7584C28.0292 62.7778 27.436 62.198 27.436 61.4854V60.4322C27.436 59.7196 28.0292 59.1397 28.7584 59.1397H36.2388C36.9679 59.1397 37.5611 59.7194 37.5611 60.4322L37.5613 61.4854ZM39.8167 55.6251C39.8167 56.3378 39.2235 56.9175 38.4943 56.9175H36.2388H28.7584H26.5028C25.7736 56.9175 25.1804 56.3378 25.1804 55.6251V54.5719C25.1804 53.8593 25.7736 53.2796 26.5028 53.2796H38.4943C39.2235 53.2796 39.8167 53.8593 39.8167 54.5719V55.6251ZM29.0527 37.1176H26.8488C25.9575 37.1176 25.2325 36.4075 25.2325 35.5347C25.2325 34.6619 25.9575 33.9517 26.8488 33.9517H27.4364C28.3277 33.9517 29.0527 34.6618 29.0527 35.5347V37.1176ZM33.802 51.0574H31.2749V39.3398H33.802V51.0574ZM42.5957 42.8586C40.1845 44.9229 38.6531 47.7422 38.1214 51.0574H36.024V39.3398H38.2642C40.3807 39.3398 42.1027 37.6328 42.1027 35.5347C42.1027 33.4365 40.3807 31.7294 38.2642 31.7294H37.6403C35.5238 31.7294 33.8018 33.4365 33.8018 35.5347V37.1176H31.2747V35.5347C31.2747 33.4365 29.5528 31.7294 27.4363 31.7294H26.8486C24.7321 31.7294 23.0102 33.4365 23.0102 35.5347C23.0102 37.6329 24.7321 39.3398 26.8486 39.3398H29.0525V51.0574H26.8756C26.3439 47.7422 24.8125 44.9229 22.4013 42.8586C19.0129 39.9576 17.0695 35.7944 17.0695 31.4368C17.0695 22.9071 23.7024 16.4748 32.4984 16.4748C41.2943 16.4748 47.9272 22.9071 47.9272 31.4368C47.9275 35.7944 45.9842 39.9575 42.5957 42.8586ZM36.0242 37.1176V35.5347C36.0242 34.6618 36.7492 33.9517 37.6404 33.9517H38.2643C39.1556 33.9517 39.8806 34.6618 39.8806 35.5347C39.8806 36.4076 39.1556 37.1176 38.2643 37.1176H36.0242Z" fill="black"/>
<g id="Group">
<path id="Vector_2" d="M50.2936 56.1854C49.4692 56.1854 48.6696 55.8736 48.0533 55.259L44.9287 52.1431L46.4979 50.5696L49.6225 53.6856C50.0467 54.1085 50.6144 53.9844 50.9985 53.7372L54.8286 50.045C55.241 49.6279 55.1217 49.0726 54.8793 48.6936L51.8289 45.6515C51.4494 45.2732 51.3942 44.6781 51.6972 44.2363C53.3599 41.8129 54.5611 38.9886 55.1711 36.0688C55.2788 35.5538 55.7326 35.1849 56.2588 35.1849H60.6049C60.9722 35.121 61.5269 34.8576 61.5269 34.2186V28.8464C61.479 28.5708 61.2754 27.9293 60.4249 27.9293H55.9983C55.4554 27.9293 54.9919 27.5369 54.9024 27.0014C54.4414 24.2429 53.2829 21.3814 51.5524 18.7261C51.2653 18.2856 51.3262 17.704 51.6986 17.3326L54.8232 14.2167C55.2444 13.7965 55.1212 13.2338 54.8749 12.8531L51.1725 9.03361C50.7517 8.61972 50.1912 8.73958 49.809 8.98306L46.7585 12.0251C46.3807 12.4019 45.7883 12.4568 45.3476 12.1563C42.9171 10.4978 40.0843 9.29945 37.1554 8.69097C36.6399 8.58389 36.2703 8.12958 36.2703 7.60306V3.18847C36.2703 2.61056 35.835 2.22222 35.4285 2.22222H30.0407C29.6733 2.28597 29.1186 2.54944 29.1186 3.18847V7.73264C29.1186 8.27597 28.7257 8.73958 28.1897 8.82875C25.4226 9.28875 22.5524 10.4443 19.8892 12.1706C19.4497 12.4554 18.871 12.3947 18.5003 12.025L15.3757 8.90903C14.9515 8.48625 14.3837 8.61014 13.9997 8.85736L10.1694 12.5497C9.75722 12.9667 9.87666 13.5219 10.119 13.9008L13.1694 16.9429C13.5489 17.3213 13.6042 17.9165 13.3011 18.3582C11.6385 20.7815 10.4372 23.6058 9.82722 26.5258C9.71958 27.0408 9.26569 27.4097 8.73958 27.4097H4.39347C4.02611 27.4735 3.47125 27.7369 3.47125 28.376V33.7479C3.53541 34.1136 3.80013 34.6653 4.44319 34.6653H8.86958C9.4125 34.6653 9.87597 35.0576 9.96555 35.5932C10.4265 38.3518 11.585 41.2133 13.3157 43.8685C13.6028 44.309 13.5418 44.8906 13.1694 45.2619L10.0449 48.3779C9.62361 48.7981 9.7468 49.3608 9.99333 49.7415L13.6957 53.5611C14.1167 53.9749 14.6769 53.855 15.0592 53.6117L18.1097 50.5694L19.6789 52.1429L16.5543 55.2589C16.511 55.3021 16.4643 55.3417 16.4144 55.3771C15.0253 56.3667 13.2597 56.2647 12.121 55.129C12.1165 55.1246 12.1122 55.1201 12.1078 55.1156L8.33222 51.2208C8.29402 51.1814 8.25875 51.1392 8.22666 51.0946C7.23236 49.7064 7.33472 47.9422 8.47555 46.8044L10.9719 44.315C9.52138 41.92 8.49 39.3836 7.95152 36.8875H4.44319C2.80944 36.8875 1.46972 35.6593 1.25763 33.9671C1.25194 33.9213 1.24902 33.8751 1.24902 33.8289V28.376C1.24902 26.7449 2.47972 25.4075 4.17555 25.196C4.22111 25.1903 4.26708 25.1874 4.31305 25.1874H7.85361C8.49389 22.6021 9.5543 20.1053 10.9586 17.8764L8.47569 15.4003C8.43222 15.3571 8.39263 15.3103 8.35694 15.2606C7.36263 13.8724 7.465 12.1082 8.60583 10.9706C8.61027 10.9661 8.61472 10.9618 8.6193 10.9574L12.525 7.19222C12.5646 7.15417 12.6068 7.11903 12.6515 7.08722C14.0406 6.09764 15.8062 6.19958 16.945 7.33542L19.4446 9.82806C21.8475 8.38 24.3925 7.35069 26.8967 6.81347V3.18847C26.8967 1.55722 28.1274 0.219861 29.8232 0.00861111C29.8685 0.00291667 29.9144 0 29.9603 0H35.4283C37.1178 0 38.4924 1.43028 38.4924 3.18847V6.71583C41.0864 7.35458 43.5912 8.41292 45.8274 9.81486L48.3137 7.33542C48.3571 7.29222 48.4037 7.25264 48.4536 7.21722C49.8426 6.22764 51.6082 6.32958 52.7471 7.46528C52.7515 7.46972 52.756 7.47417 52.7603 7.47875L56.5358 11.3738C56.574 11.4132 56.6093 11.4554 56.6414 11.5001C57.6357 12.8883 57.5332 14.6525 56.3925 15.7901L53.8962 18.2796C55.3467 20.6746 56.3781 23.2113 56.9167 25.7071H60.425C62.1617 25.7071 63.5251 26.9079 63.7407 28.6275C63.7464 28.6733 63.7493 28.7196 63.7493 28.7657V34.2186C63.7493 35.8497 62.5186 37.1871 60.8228 37.3986C60.7772 37.4043 60.7313 37.4072 60.6853 37.4072H57.1447C56.5044 39.9925 55.444 42.4893 54.0397 44.7182L56.5226 47.1943C56.5661 47.2375 56.6057 47.2843 56.6414 47.334C57.6357 48.7222 57.5333 50.4864 56.3925 51.6242C56.3881 51.6286 56.3836 51.6329 56.379 51.6374L52.4733 55.4025C52.4338 55.4406 52.3915 55.4757 52.3468 55.5075C51.7093 55.9611 50.9925 56.1854 50.2936 56.1854Z" fill="#FF5E03"/>
</g>
</g>
</g>
<defs>
<clipPath id="clip0_3330_9631">
<rect width="65" height="65" fill="white" transform="translate(-0.000976562)"/>
</clipPath>
</defs>
</svg>
