<svg width="24" height="24" viewBox="0 0 24 24" fill="none" xmlns="http://www.w3.org/2000/svg">
<path d="M15.6689 4H8.33105C5.94287 4 4 5.94287 4 8.33105V15.6691C4 18.0571 5.94287 20 8.33105 20H15.6691C18.0571 20 20 18.0571 20 15.6691V8.33105C20 5.94287 18.0571 4 15.6689 4ZM12 16.3749C9.58765 16.3749 7.62512 14.4124 7.62512 12C7.62512 9.58765 9.58765 7.62512 12 7.62512C14.4124 7.62512 16.3749 9.58765 16.3749 12C16.3749 14.4124 14.4124 16.3749 12 16.3749ZM16.4795 8.65686C15.7666 8.65686 15.1868 8.07703 15.1868 7.36414C15.1868 6.65125 15.7666 6.07129 16.4795 6.07129C17.1924 6.07129 17.7723 6.65125 17.7723 7.36414C17.7723 8.07703 17.1924 8.65686 16.4795 8.65686Z" fill="white"/>
<path d="M12 8.56311C10.105 8.56311 8.56311 10.1049 8.56311 12C8.56311 13.895 10.105 15.4369 12 15.4369C13.8951 15.4369 15.4369 13.895 15.4369 12C15.4369 10.1049 13.8951 8.56311 12 8.56311Z" fill="white"/>
<path d="M16.4795 7.0094C16.2839 7.0094 16.1248 7.16858 16.1248 7.36414C16.1248 7.55969 16.2839 7.71887 16.4795 7.71887C16.6752 7.71887 16.8343 7.55981 16.8343 7.36414C16.8343 7.16846 16.6752 7.0094 16.4795 7.0094Z" fill="white"/>
</svg>
