<svg width="60" height="60" viewBox="0 0 60 60" fill="none" xmlns="http://www.w3.org/2000/svg">
<g clip-path="url(#clip0_3068_1760)">
<path d="M58.1252 0.9375H22.5002C22.2516 0.9375 22.0131 1.03627 21.8373 1.21209C21.6615 1.3879 21.5627 1.62636 21.5627 1.875V29.25L19.1196 28.2028C19.003 28.1521 18.8773 28.1256 18.7502 28.125H7.50021C5.98384 28.1261 4.51464 28.6523 3.34235 29.6141C2.17006 30.5759 1.36702 31.914 1.06974 33.4009C0.772463 34.8879 0.999291 36.4319 1.71167 37.7705C2.42405 39.1091 3.57801 40.1597 4.9774 40.7437L1.90709 52.2581C1.88549 52.3369 1.87476 52.4183 1.87521 52.5V55.3125C1.87521 56.3071 2.2703 57.2609 2.97356 57.9641C3.67682 58.6674 4.63065 59.0625 5.62521 59.0625H11.2502C12.2448 59.0625 13.1986 58.6674 13.9019 57.9641C14.6051 57.2609 15.0002 56.3071 15.0002 55.3125V52.5C15.0002 52.3457 14.9622 52.1938 14.8894 52.0577C14.8166 51.9216 14.7114 51.8056 14.583 51.72C13.9169 51.2727 13.4018 50.6342 13.1056 49.8885C12.8094 49.1429 12.746 48.3249 12.9236 47.5425L13.294 45.9375H14.0627C15.071 45.9397 16.0471 45.5831 16.8165 44.9314C17.5858 44.2797 18.0981 43.3755 18.2618 42.3806L18.4502 41.25H18.7502C18.8773 41.2497 19.0029 41.2235 19.1196 41.1731L21.5627 40.125V58.125C21.5627 58.3736 21.6615 58.6121 21.8373 58.7879C22.0131 58.9637 22.2516 59.0625 22.5002 59.0625H58.1252C58.3738 59.0625 58.6123 58.9637 58.7881 58.7879C58.9639 58.6121 59.0627 58.3736 59.0627 58.125V1.875C59.0627 1.62636 58.9639 1.3879 58.7881 1.21209C58.6123 1.03627 58.3738 0.9375 58.1252 0.9375ZM24.3752 32.4928V36.8822L19.6877 38.8913V30.4837L24.3752 32.4928ZM2.81271 34.6875C2.81408 33.6073 3.1878 32.5606 3.87089 31.7238C4.55397 30.887 5.50466 30.3113 6.56271 30.0937V34.6875H8.43771V30H10.3127V34.6875H12.1877V30H14.0627V34.6875H15.9377V30H17.8127V39.375H7.50021C6.25747 39.3735 5.06605 38.8792 4.18729 38.0004C3.30854 37.1217 2.8142 35.9302 2.81271 34.6875ZM7.50021 41.25H12.4511L11.0965 47.1206C10.9262 47.8761 10.908 48.6579 11.0428 49.4205C11.1777 50.1831 11.463 50.9113 11.8821 51.5625H4.03146L6.79334 41.2106C7.02811 41.2361 7.26406 41.2492 7.50021 41.25ZM13.1252 55.3125C13.1252 55.8098 12.9277 56.2867 12.576 56.6383C12.2244 56.99 11.7475 57.1875 11.2502 57.1875H5.62521C5.12793 57.1875 4.65102 56.99 4.29939 56.6383C3.94776 56.2867 3.75021 55.8098 3.75021 55.3125V53.4375H13.1252V55.3125ZM16.4121 42.0713C16.3206 42.628 16.034 43.1341 15.6036 43.4989C15.1731 43.8637 14.627 44.0635 14.0627 44.0625H13.7271L14.3758 41.25H16.549L16.4121 42.0713ZM23.4377 39.3234L25.3127 38.52V57.1875H23.4377V39.3234ZM53.4377 57.1875H27.1877V38.4375H28.1252C28.9542 38.4344 29.7587 38.1567 30.4131 37.6478C31.0675 37.139 31.5349 36.4276 31.7421 35.625H37.5002V33.75H31.7421C31.5349 32.9474 31.0675 32.236 30.4131 31.7272C29.7587 31.2183 28.9542 30.9406 28.1252 30.9375H27.1877V6.5625H53.4377V57.1875ZM26.2502 32.8125H28.1252C28.6225 32.8125 29.0994 33.01 29.451 33.3617C29.8027 33.7133 30.0002 34.1902 30.0002 34.6875C30.0002 35.1848 29.8027 35.6617 29.451 36.0133C29.0994 36.365 28.6225 36.5625 28.1252 36.5625H26.2502V32.8125ZM57.1877 57.1875H55.3127V5.625C55.3127 5.37636 55.2139 5.1379 55.0381 4.96209C54.8623 4.78627 54.6238 4.6875 54.3752 4.6875H26.2502C26.0016 4.6875 25.7631 4.78627 25.5873 4.96209C25.4115 5.1379 25.3127 5.37636 25.3127 5.625V30.855L23.4377 30.0516V2.8125H57.1877V57.1875Z" fill="black"/>
<path d="M31.875 29.0625H48.75C48.9986 29.0625 49.2371 28.9637 49.4129 28.7879C49.5887 28.6121 49.6875 28.3736 49.6875 28.125V19.6875C49.6875 17.2011 48.6998 14.8165 46.9416 13.0584C45.1835 11.3002 42.7989 10.3125 40.3125 10.3125C37.8261 10.3125 35.4415 11.3002 33.6834 13.0584C31.9252 14.8165 30.9375 17.2011 30.9375 19.6875V28.125C30.9375 28.3736 31.0363 28.6121 31.2121 28.7879C31.3879 28.9637 31.6264 29.0625 31.875 29.0625ZM32.8125 20.625H39.375V27.1875H32.8125V20.625ZM41.25 27.1875V20.625H47.8125V27.1875H41.25ZM47.7478 18.75H41.25V12.2522C42.8998 12.4625 44.4331 13.2148 45.6092 14.3908C46.7852 15.5669 47.5375 17.1002 47.7478 18.75ZM39.375 12.2522V18.75H32.8772C33.0875 17.1002 33.8398 15.5669 35.0158 14.3908C36.1919 13.2148 37.7252 12.4625 39.375 12.2522Z" fill="#FF5E03"/>
<path d="M48.75 39.375H31.875C31.6264 39.375 31.3879 39.4738 31.2121 39.6496C31.0363 39.8254 30.9375 40.0639 30.9375 40.3125V53.4375C30.9375 53.6861 31.0363 53.9246 31.2121 54.1004C31.3879 54.2762 31.6264 54.375 31.875 54.375H48.75C48.9986 54.375 49.2371 54.2762 49.4129 54.1004C49.5887 53.9246 49.6875 53.6861 49.6875 53.4375V40.3125C49.6875 40.0639 49.5887 39.8254 49.4129 39.6496C49.2371 39.4738 48.9986 39.375 48.75 39.375ZM47.8125 45.9375H41.25V41.25H47.8125V45.9375ZM39.375 41.25V45.9375H32.8125V41.25H39.375ZM32.8125 47.8125H39.375V52.5H32.8125V47.8125ZM41.25 52.5V47.8125H47.8125V52.5H41.25Z" fill="black"/>
</g>
<defs>
<clipPath id="clip0_3068_1760">
<rect width="60" height="60" fill="white"/>
</clipPath>
</defs>
</svg>
