<svg width="15" height="15" viewBox="0 0 15 15" fill="none" xmlns="http://www.w3.org/2000/svg">
<path d="M11.3357 15C9.20208 15 6.41908 13.5162 4.00715 11.0124C0.389252 7.48841 -1.00225 3.3153 0.760319 1.55332L1.68799 0.625966C2.52289 -0.208655 4.00715 -0.208655 5.02759 0.625966L6.51185 2.10974C7.06845 2.66615 7.43952 3.40804 7.34675 4.05719C7.34675 4.70634 7.06845 5.17001 6.60462 5.63369L6.41908 5.81916C6.32632 6.00464 6.32632 6.19011 6.51185 6.46831C6.79015 6.83926 7.06845 7.30294 7.43952 7.48841C7.90335 7.95209 8.18165 8.32303 8.64548 8.60124C8.83102 8.78671 9.10932 8.78671 9.29485 8.5085L9.48038 8.32303C10.3153 7.48841 11.7995 7.48841 12.82 8.32303L14.3042 9.8068C15.2319 10.7342 15.2319 12.2179 14.3042 13.1453L13.3766 14.2581C12.9127 14.7218 12.1706 15 11.3357 15ZM3.35779 1.08964C3.07949 1.08964 2.70842 1.18238 2.52289 1.36785L1.59522 2.29521C0.482019 3.40804 1.59522 7.02473 4.74928 10.1777C6.97568 12.4034 9.48038 13.7944 11.3357 13.7944C11.8923 13.7944 12.3561 13.609 12.6344 13.3308L13.5621 12.3107C14.1187 11.7542 14.1187 11.0124 13.5621 10.5487L12.0778 9.06491C11.614 8.60124 10.7791 8.60124 10.3153 9.06491L10.1298 9.25039C9.57315 9.8068 8.64548 9.89954 7.99612 9.43586C7.53228 9.06491 7.16122 8.78671 6.79015 8.32303C6.32632 8.04482 5.95525 7.58114 5.58418 7.11747C5.12035 6.46832 5.12035 5.72643 5.58418 5.07728L5.86248 4.79907C6.14078 4.6136 6.23355 4.33539 6.23355 4.05719C6.23355 3.68624 6.04802 3.3153 5.76972 2.94436L4.28545 1.36785C4.00715 1.18238 3.72885 1.08964 3.35779 1.08964Z" fill="black"/>
</svg>
