<svg width="65" height="65" viewBox="0 0 65 65" fill="none" xmlns="http://www.w3.org/2000/svg">
<g id="price-tag 1" clip-path="url(#clip0_3330_9599)">
<g id="Group">
<g id="Group_2">
<path id="Vector" d="M62.1128 49.9922L51.8947 28.1745C51.6718 27.6983 51.1048 27.4933 50.6284 27.7161C50.1522 27.9391 49.947 28.5061 50.17 28.9823L60.388 50.7995C60.8451 51.7769 60.4221 52.9445 59.445 53.4023L39.854 62.577C38.8771 63.0346 37.7098 62.612 37.2518 61.635L33.5891 53.812L43.1224 30.8104C43.5344 29.8163 43.5113 28.6863 43.0593 27.7099L37.8447 16.4456L44.6041 18.584C45.1242 18.7483 45.5549 19.1256 45.7859 19.6202L48.2897 24.9642C48.4516 25.3098 51.8376 32.4901 51.6001 32.0357C50.1436 29.25 51.4049 29.0434 51.5356 28.9823C52.0118 28.7593 53.4914 31.5834 53.2682 31.1072L47.5107 18.8131C47.0552 17.8378 46.2047 17.0924 45.1779 16.7682L37.0262 14.1893C38.7068 11.7342 40.4772 8.45133 41.0863 6.98159C42.6837 3.12778 41.3945 0.984542 39.6554 0.263698C37.9163 -0.456892 35.4891 0.146011 33.8917 3.99982C33.2048 5.65733 32.5745 9.26714 32.1262 12.3639C31.5927 12.3971 31.0565 12.5088 30.5342 12.7085L18.201 17.4207C17.2143 17.7978 16.4164 18.5737 16.0119 19.5494L2.8208 51.3774C2.42585 52.3303 2.4256 53.3798 2.82017 54.3328C3.21461 55.2859 3.95666 56.0282 4.90945 56.423L13.4641 59.9687C13.95 60.1701 13.2629 59.4501 13.4641 58.9643C13.6655 58.4784 15.3429 58.6858 14.857 58.4845L5.63867 54.6636C5.15587 54.4635 4.7797 54.0873 4.57975 53.6043C4.3798 53.1212 4.37992 52.5894 4.58013 52.1065L17.7717 20.2781C17.9767 19.7836 18.381 19.3903 18.8811 19.1992L31.2143 14.487C31.4262 14.406 31.6416 14.3473 31.8581 14.3091C31.7404 15.2035 31.6449 15.9857 31.5759 16.5719C31.172 16.595 30.772 16.6947 30.3945 16.8714C29.6163 17.2358 29.0266 17.8815 28.7341 18.6894C28.4415 19.4975 28.4811 20.3709 28.8455 21.1491C29.3917 22.3158 30.5534 23.0016 31.7639 23.0016C32.22 23.0016 32.6834 22.9041 33.1232 22.6982C33.9014 22.3339 34.4911 21.6881 34.7837 20.8802C35.0762 20.0722 35.0367 19.1987 34.6724 18.4205C34.401 17.8411 33.9734 17.3665 33.4392 17.0409C33.51 16.4346 33.618 15.5404 33.7551 14.4995C34.5793 14.8207 35.2839 15.4467 35.68 16.3025L41.331 28.5095C41.5601 29.0043 41.5717 29.5772 41.3629 30.081L28.1802 61.8879C27.9801 62.3707 27.604 62.7468 27.1209 62.9468C26.638 63.1469 26.106 63.1466 25.6231 62.9465L13.8419 58.0638C13.3563 57.8622 12.799 58.093 12.5976 58.5788C12.3964 59.0647 12.6268 59.6217 13.1127 59.8231L24.8939 64.7059C25.3757 64.9056 25.8755 65 26.3673 65C27.883 65 29.3241 64.1021 29.9394 62.617L32.6015 56.1942L35.527 62.4427C36.183 63.8427 37.5773 64.6659 39.0298 64.6659C39.5775 64.6659 40.1338 64.5488 40.6617 64.3014L60.2527 55.1268C62.1802 54.2237 63.0147 51.9206 62.1128 49.9922ZM32.993 20.2318C32.8737 20.5613 32.6331 20.8248 32.3155 20.9736C31.6602 21.2805 30.8771 20.9969 30.5701 20.3416C30.4215 20.0242 30.4053 19.6677 30.5247 19.338C30.644 19.0084 30.8846 18.745 31.2021 18.5962C31.3791 18.5133 31.5681 18.4717 31.7579 18.4717C31.9086 18.4717 32.0597 18.498 32.2055 18.5508C32.5351 18.6701 32.7985 18.9107 32.9473 19.2282C33.0963 19.5458 33.1125 19.9021 32.993 20.2318ZM35.3923 13.2052C34.9655 12.9347 34.5032 12.7246 34.0198 12.5805C34.4492 9.6089 35.0381 6.2092 35.6516 4.72879C36.0836 3.68612 37.2677 1.3357 38.9266 2.0229C40.5854 2.71048 39.7596 5.20969 39.3273 6.25224C38.7418 7.66498 37.0153 10.8576 35.3923 13.2052Z" fill="black"/>
</g>
</g>
<g id="Group_3">
<g id="Group_4">
<path id="Vector_2" d="M19.6028 32.1057C21.6658 31.0077 24.033 30.7785 26.2684 31.4612C29.9788 32.5939 32.4692 35.9586 32.4657 39.834C32.4652 40.3599 32.8911 40.7867 33.4171 40.7872C33.4173 40.7872 33.4176 40.7872 33.418 40.7872C33.9434 40.7872 34.3697 40.3614 34.3702 39.8358C34.3723 37.5998 33.645 35.3681 32.3224 33.5516C30.9542 31.6728 29.053 30.32 26.8244 29.6395C21.2055 27.9244 15.2391 31.1 13.524 36.7186C12.6931 39.4405 12.9719 42.3228 14.3091 44.835C15.6462 47.3472 17.8813 49.1883 20.6031 50.0192C21.6204 50.3297 22.6689 50.4838 23.7155 50.4838C25.2038 50.4838 26.6871 50.1718 28.0661 49.554C30.3915 48.5122 32.2673 46.6752 33.3479 44.3813C33.5721 43.9056 33.3681 43.3381 32.8924 43.114C32.4167 42.8897 31.8492 43.0938 31.6251 43.5695C29.7884 47.4687 25.2894 49.4585 21.1594 48.1975C18.9241 47.5153 17.0885 46.0032 15.9904 43.9402C14.8923 41.8772 14.6633 39.5099 15.3458 37.2747C16.0278 35.0395 17.54 33.2038 19.6028 32.1057Z" fill="black"/>
</g>
</g>
<g id="Group_5">
<g id="Group_6">
<path id="Vector_3" d="M27.3766 37.2376C27.1488 36.8092 26.7677 36.4951 26.3034 36.3536L25.8708 36.2216L26.1647 35.2587C26.3182 34.7558 26.035 34.2234 25.5321 34.0699C25.0289 33.9167 24.497 34.1997 24.3433 34.7026L24.0428 35.6872C22.7742 35.4682 21.5072 36.2218 21.1219 37.4845C20.9195 38.1473 20.9874 38.8494 21.3131 39.461C21.6386 40.0727 22.1831 40.5212 22.8458 40.7235L24.0445 41.0894C24.2208 41.1432 24.3656 41.2624 24.4521 41.4251C24.5387 41.5878 24.5568 41.7745 24.5029 41.9509C24.4491 42.1271 24.3299 42.2718 24.1671 42.3584C24.0045 42.4451 23.8179 42.4631 23.6415 42.4092L23.0423 42.2262L21.7791 41.8407C21.8783 41.3642 21.5992 40.8819 21.1246 40.7371C20.6213 40.5838 20.0892 40.8668 19.9358 41.3698C19.6434 42.3278 20.1847 43.3451 21.1428 43.6377L21.5755 43.7697L21.2816 44.7325C21.1281 45.2355 21.4113 45.7679 21.9142 45.9213C22.0069 45.9497 22.1004 45.9631 22.1925 45.9631C22.6003 45.9631 22.9777 45.699 23.103 45.2886L23.4032 44.305C23.5505 44.3306 23.6985 44.345 23.8463 44.345C24.2656 44.345 24.6814 44.2421 25.062 44.0395C25.6737 43.714 26.1222 43.1695 26.3245 42.5068C26.7421 41.1385 25.9689 39.6855 24.6005 39.2678L23.4019 38.9019C23.2256 38.8481 23.0809 38.7289 22.9943 38.5661C22.9077 38.4035 22.8896 38.2168 22.9435 38.0404C23.0545 37.6766 23.4407 37.4707 23.8051 37.582L24.4039 37.7648L24.4043 37.7649H24.4045L25.6673 38.1505C25.5682 38.6268 25.8472 39.1091 26.3219 39.254C26.8249 39.4075 27.3572 39.1242 27.5107 38.6212C27.6523 38.1574 27.6047 37.6659 27.3766 37.2376Z" fill="#FF5E03"/>
</g>
</g>
<g id="Group_7">
<g id="Group_8">
<path id="Vector_4" d="M55.8057 49.9421L49.7114 36.9917C49.4873 36.5157 48.9199 36.3114 48.4444 36.5355C47.9686 36.7595 47.7644 37.3268 47.9883 37.8025L54.0826 50.753C54.2449 51.0978 54.5873 51.3 54.9448 51.3C55.0807 51.3 55.2187 51.2708 55.3496 51.2091C55.8254 50.9852 56.0295 50.4179 55.8057 49.9421Z" fill="black"/>
</g>
</g>
<g id="Group_9">
<g id="Group_10">
<path id="Vector_5" d="M51.5489 52.219L45.4546 39.2686C45.2307 38.7926 44.6631 38.5885 44.1876 38.8124C43.7118 39.0364 43.5075 39.6037 43.7315 40.0794L49.8258 53.0299C49.988 53.3747 50.3306 53.5769 50.6881 53.5769C50.8239 53.5769 50.9619 53.5477 51.0928 53.486C51.5686 53.2621 51.7727 52.6947 51.5489 52.219Z" fill="#FF5E03"/>
</g>
</g>
</g>
<defs>
<clipPath id="clip0_3330_9599">
<rect width="65" height="65" fill="white"/>
</clipPath>
</defs>
</svg>
