<svg width="65" height="65" viewBox="0 0 65 65" fill="none" xmlns="http://www.w3.org/2000/svg">
<g id="property 1">
<path id="Vector" d="M31.2632 17.8541H22.9912C22.7892 17.8541 22.5954 17.9343 22.4526 18.0772C22.3097 18.22 22.2295 18.4138 22.2295 18.6158C22.2295 18.8178 22.3097 19.0116 22.4526 19.1544C22.5954 19.2973 22.7892 19.3775 22.9912 19.3775H31.2637C31.4657 19.3775 31.6595 19.2973 31.8023 19.1544C31.9452 19.0116 32.0254 18.8178 32.0254 18.6158C32.0254 18.4138 31.9452 18.22 31.8023 18.0772C31.6595 17.9343 31.4657 17.8541 31.2637 17.8541H31.2632Z" fill="black"/>
<path id="Vector_2" d="M42.9041 25.1438H37.5703C37.3683 25.1438 37.1745 25.2241 37.0317 25.3669C36.8888 25.5098 36.8086 25.7035 36.8086 25.9055C36.8086 26.1075 36.8888 26.3013 37.0317 26.4441C37.1745 26.587 37.3683 26.6672 37.5703 26.6672H42.9041C43.1061 26.6672 43.2999 26.587 43.4427 26.4441C43.5856 26.3013 43.6658 26.1075 43.6658 25.9055C43.6658 25.7035 43.5856 25.5098 43.4427 25.3669C43.2999 25.2241 43.1061 25.1438 42.9041 25.1438Z" fill="black"/>
<path id="Vector_3" d="M31.2632 22.1994H22.9912C22.7892 22.1994 22.5954 22.2797 22.4526 22.4225C22.3097 22.5654 22.2295 22.7591 22.2295 22.9611C22.2295 23.1631 22.3097 23.3569 22.4526 23.4997C22.5954 23.6426 22.7892 23.7228 22.9912 23.7228H31.2637C31.4657 23.7228 31.6595 23.6426 31.8023 23.4997C31.9452 23.3569 32.0254 23.1631 32.0254 22.9611C32.0254 22.7591 31.9452 22.5654 31.8023 22.4225C31.6595 22.2797 31.4657 22.1994 31.2637 22.1994H31.2632Z" fill="black"/>
<path id="Vector_4" d="M31.2632 26.545H22.9912C22.7892 26.545 22.5954 26.6252 22.4526 26.7681C22.3097 26.9109 22.2295 27.1047 22.2295 27.3067C22.2295 27.5087 22.3097 27.7025 22.4526 27.8453C22.5954 27.9882 22.7892 28.0684 22.9912 28.0684H31.2637C31.4657 28.0684 31.6595 27.9882 31.8023 27.8453C31.9452 27.7025 32.0254 27.5087 32.0254 27.3067C32.0254 27.1047 31.9452 26.9109 31.8023 26.7681C31.6595 26.6252 31.4657 26.545 31.2637 26.545H31.2632Z" fill="black"/>
<path id="Vector_5" d="M31.2632 30.8904H22.9912C22.7892 30.8904 22.5954 30.9706 22.4526 31.1135C22.3097 31.2563 22.2295 31.4501 22.2295 31.6521C22.2295 31.8541 22.3097 32.0479 22.4526 32.1907C22.5954 32.3336 22.7892 32.4138 22.9912 32.4138H31.2637C31.4657 32.4138 31.6595 32.3336 31.8023 32.1907C31.9452 32.0479 32.0254 31.8541 32.0254 31.6521C32.0254 31.4501 31.9452 31.2563 31.8023 31.1135C31.6595 30.9706 31.4657 30.8904 31.2637 30.8904H31.2632Z" fill="black"/>
<path id="Vector_6" d="M31.2632 35.2358H22.9912C22.7892 35.2358 22.5954 35.3161 22.4526 35.4589C22.3097 35.6018 22.2295 35.7955 22.2295 35.9976C22.2295 36.1996 22.3097 36.3933 22.4526 36.5362C22.5954 36.679 22.7892 36.7593 22.9912 36.7593H31.2637C31.4657 36.7593 31.6595 36.679 31.8023 36.5362C31.9452 36.3933 32.0254 36.1996 32.0254 35.9976C32.0254 35.7955 31.9452 35.6018 31.8023 35.4589C31.6595 35.3161 31.4657 35.2358 31.2637 35.2358H31.2632Z" fill="black"/>
<path id="Vector_7" d="M42.9041 29.4016H37.5703C37.3683 29.4016 37.1745 29.4819 37.0317 29.6247C36.8888 29.7676 36.8086 29.9613 36.8086 30.1633C36.8086 30.3654 36.8888 30.5591 37.0317 30.7019C37.1745 30.8448 37.3683 30.925 37.5703 30.925H42.9041C43.1061 30.925 43.2999 30.8448 43.4427 30.7019C43.5856 30.5591 43.6658 30.3654 43.6658 30.1633C43.6658 29.9613 43.5856 29.7676 43.4427 29.6247C43.2999 29.4819 43.1061 29.4016 42.9041 29.4016Z" fill="black"/>
<path id="Vector_8" d="M42.9041 33.6595H37.5703C37.3683 33.6595 37.1745 33.7397 37.0317 33.8826C36.8888 34.0254 36.8086 34.2192 36.8086 34.4212C36.8086 34.6232 36.8888 34.817 37.0317 34.9598C37.1745 35.1027 37.3683 35.1829 37.5703 35.1829H42.9041C43.1061 35.1829 43.2999 35.1027 43.4427 34.9598C43.5856 34.817 43.6658 34.6232 43.6658 34.4212C43.6658 34.2192 43.5856 34.0254 43.4427 33.8826C43.2999 33.7397 43.1061 33.6595 42.9041 33.6595Z" fill="black"/>
<path id="Vector_9" d="M37.5703 22.4094H40.4806C40.6826 22.4094 40.8764 22.3291 41.0192 22.1863C41.1621 22.0434 41.2423 21.8497 41.2423 21.6476C41.2423 21.4456 41.1621 21.2519 41.0192 21.109C40.8764 20.9662 40.6826 20.8859 40.4806 20.8859H37.5703C37.3683 20.8859 37.1745 20.9662 37.0317 21.109C36.8888 21.2519 36.8086 21.4456 36.8086 21.6476C36.8086 21.8497 36.8888 22.0434 37.0317 22.1863C37.1745 22.3291 37.3683 22.4094 37.5703 22.4094Z" fill="black"/>
<path id="Vector_10" d="M37.5703 18.1516H38.0571C38.2591 18.1516 38.4528 18.0714 38.5957 17.9285C38.7385 17.7857 38.8188 17.5919 38.8188 17.3899C38.8188 17.1879 38.7385 16.9941 38.5957 16.8513C38.4528 16.7084 38.2591 16.6282 38.0571 16.6282H37.5703C37.3683 16.6282 37.1745 16.7084 37.0317 16.8513C36.8888 16.9941 36.8086 17.1879 36.8086 17.3899C36.8086 17.5919 36.8888 17.7857 37.0317 17.9285C37.1745 18.0714 37.3683 18.1516 37.5703 18.1516Z" fill="black"/>
<path id="Vector_11" d="M31.2632 13.5085H22.9912C22.7892 13.5085 22.5954 13.5888 22.4526 13.7316C22.3097 13.8745 22.2295 14.0682 22.2295 14.2703C22.2295 14.4723 22.3097 14.666 22.4526 14.8089C22.5954 14.9517 22.7892 15.032 22.9912 15.032H31.2637C31.4657 15.032 31.6595 14.9517 31.8023 14.8089C31.9452 14.666 32.0254 14.4723 32.0254 14.2703C32.0254 14.0682 31.9452 13.8745 31.8023 13.7316C31.6595 13.5888 31.4657 13.5085 31.2637 13.5085H31.2632Z" fill="black"/>
<path id="Vector_12" d="M48.3311 37.713H50.8761C51.0781 37.713 51.2719 37.6327 51.4147 37.4898C51.5576 37.347 51.6378 37.1533 51.6378 36.9512C51.6378 36.7492 51.5576 36.5555 51.4147 36.4126C51.2719 36.2698 51.0781 36.1895 50.8761 36.1895H48.3311C48.129 36.1895 47.9353 36.2698 47.7924 36.4126C47.6496 36.5555 47.5693 36.7492 47.5693 36.9512C47.5693 37.1533 47.6496 37.347 47.7924 37.4898C47.9353 37.6327 48.129 37.713 48.3311 37.713Z" fill="black"/>
<path id="Vector_13" d="M48.3311 34.8397H50.8761C51.0781 34.8397 51.2719 34.7595 51.4147 34.6166C51.5576 34.4738 51.6378 34.28 51.6378 34.078C51.6378 33.876 51.5576 33.6822 51.4147 33.5394C51.2719 33.3965 51.0781 33.3163 50.8761 33.3163H48.3311C48.129 33.3163 47.9353 33.3965 47.7924 33.5394C47.6496 33.6822 47.5693 33.876 47.5693 34.078C47.5693 34.28 47.6496 34.4738 47.7924 34.6166C47.9353 34.7595 48.129 34.8397 48.3311 34.8397Z" fill="black"/>
<path id="Vector_14" d="M48.3311 31.9668H50.8761C51.0781 31.9668 51.2719 31.8865 51.4147 31.7437C51.5576 31.6008 51.6378 31.4071 51.6378 31.2051C51.6378 31.0031 51.5576 30.8093 51.4147 30.6665C51.2719 30.5236 51.0781 30.4434 50.8761 30.4434H48.3311C48.129 30.4434 47.9353 30.5236 47.7924 30.6665C47.6496 30.8093 47.5693 31.0031 47.5693 31.2051C47.5693 31.4071 47.6496 31.6008 47.7924 31.7437C47.9353 31.8865 48.129 31.9668 48.3311 31.9668Z" fill="black"/>
<path id="Vector_15" d="M16.4327 26.1127H11.9355C11.7335 26.1127 11.5398 26.193 11.3969 26.3358C11.2541 26.4787 11.1738 26.6724 11.1738 26.8745C11.1738 27.0765 11.2541 27.2702 11.3969 27.4131C11.5398 27.5559 11.7335 27.6362 11.9355 27.6362H16.4327C16.6348 27.6362 16.8285 27.5559 16.9714 27.4131C17.1142 27.2702 17.1945 27.0765 17.1945 26.8745C17.1945 26.6724 17.1142 26.4787 16.9714 26.3358C16.8285 26.193 16.6348 26.1127 16.4327 26.1127Z" fill="black"/>
<path id="Vector_16" d="M16.4327 29.0276H11.9355C11.7335 29.0276 11.5398 29.1078 11.3969 29.2507C11.2541 29.3935 11.1738 29.5873 11.1738 29.7893C11.1738 29.9913 11.2541 30.1851 11.3969 30.3279C11.5398 30.4708 11.7335 30.551 11.9355 30.551H16.4327C16.6348 30.551 16.8285 30.4708 16.9714 30.3279C17.1142 30.1851 17.1945 29.9913 17.1945 29.7893C17.1945 29.5873 17.1142 29.3935 16.9714 29.2507C16.8285 29.1078 16.6348 29.0276 16.4327 29.0276Z" fill="black"/>
<path id="Vector_17" d="M16.4327 34.8571H11.9355C11.7335 34.8571 11.5398 34.9374 11.3969 35.0802C11.2541 35.2231 11.1738 35.4168 11.1738 35.6188C11.1738 35.8209 11.2541 36.0146 11.3969 36.1575C11.5398 36.3003 11.7335 36.3806 11.9355 36.3806H16.4327C16.6348 36.3806 16.8285 36.3003 16.9714 36.1575C17.1142 36.0146 17.1945 35.8209 17.1945 35.6188C17.1945 35.4168 17.1142 35.2231 16.9714 35.0802C16.8285 34.9374 16.6348 34.8571 16.4327 34.8571Z" fill="black"/>
<path id="Vector_18" d="M16.4327 31.9423H11.9355C11.8355 31.9423 11.7365 31.962 11.644 32.0003C11.5516 32.0386 11.4677 32.0947 11.3969 32.1654C11.3262 32.2362 11.2701 32.3201 11.2318 32.4125C11.1935 32.505 11.1738 32.604 11.1738 32.704C11.1738 32.8041 11.1935 32.9031 11.2318 32.9955C11.2701 33.088 11.3262 33.1719 11.3969 33.2427C11.4677 33.3134 11.5516 33.3695 11.644 33.4078C11.7365 33.4461 11.8355 33.4658 11.9355 33.4658H16.4327C16.6348 33.4658 16.8285 33.3855 16.9714 33.2427C17.1142 33.0998 17.1945 32.9061 17.1945 32.704C17.1945 32.502 17.1142 32.3083 16.9714 32.1654C16.8285 32.0226 16.6348 31.9423 16.4327 31.9423Z" fill="black"/>
<path id="Vector_19" d="M8.93066 40.47H53.7634C53.9654 40.47 54.1592 40.3897 54.302 40.2469C54.4449 40.104 54.5251 39.9103 54.5251 39.7083V27.8318C54.5251 27.6298 54.4449 27.436 54.302 27.2932C54.1592 27.1503 53.9654 27.0701 53.7634 27.0701H52.4733V25.8246C52.4733 25.6225 52.393 25.4288 52.2502 25.2859C52.1073 25.1431 51.9136 25.0628 51.7116 25.0628H50.5031V23.5963C50.5031 23.3942 50.4229 23.2005 50.28 23.0577C50.1372 22.9148 49.9434 22.8346 49.7414 22.8346C49.5394 22.8346 49.3456 22.9148 49.2028 23.0577C49.0599 23.2005 48.9797 23.3942 48.9797 23.5963V25.0628H47.7711C47.5691 25.0628 47.3753 25.1431 47.2325 25.2859C47.0896 25.4288 47.0094 25.6225 47.0094 25.8246V27.0701H46.481V21.9422C47.7437 21.8068 48.9475 21.337 49.9682 20.5813C50.9888 19.8255 51.7894 18.8112 52.2874 17.6429C52.7853 16.4746 52.9626 15.1947 52.801 13.935C52.6393 12.6754 52.1446 11.4816 51.3678 10.4769C50.591 9.47219 49.5602 8.69288 48.3818 8.21934C47.2034 7.74579 45.9201 7.59516 44.664 7.78297C43.408 7.97078 42.2248 8.49024 41.2365 9.28778C40.2482 10.0853 39.4905 11.132 39.0415 12.32H35.7123V9.38666C35.7123 9.18464 35.6321 8.99089 35.4892 8.84804C35.3464 8.70519 35.1526 8.62494 34.9506 8.62494H33.5079V5.09323C33.5079 4.89121 33.4276 4.69747 33.2848 4.55462C33.1419 4.41177 32.9482 4.33151 32.7462 4.33151H27.7301V2.03125C27.7301 1.82923 27.6499 1.63548 27.507 1.49263C27.3642 1.34978 27.1704 1.26953 26.9684 1.26953C26.7664 1.26953 26.5727 1.34978 26.4298 1.49263C26.287 1.63548 26.2067 1.82923 26.2067 2.03125V4.33151H21.5085C21.3065 4.33151 21.1128 4.41177 20.9699 4.55462C20.8271 4.69747 20.7468 4.89121 20.7468 5.09323V8.62494H19.3045C19.1025 8.62494 18.9087 8.70519 18.7659 8.84804C18.623 8.99089 18.5428 9.18464 18.5428 9.38666V18.3653L16.9448 19.1516V17.5301C16.9448 17.328 16.8646 17.1343 16.7217 16.9915C16.5789 16.8486 16.3851 16.7683 16.1831 16.7683H14.8232V16.1407C14.8232 15.9387 14.7429 15.7449 14.6001 15.6021C14.4572 15.4592 14.2635 15.379 14.0615 15.379C13.8595 15.379 13.6657 15.4592 13.5229 15.6021C13.38 15.7449 13.2998 15.9387 13.2998 16.1407V16.7683H11.6859C11.4839 16.7683 11.2902 16.8486 11.1473 16.9915C11.0045 17.1343 10.9242 17.328 10.9242 17.5301V22.1143L8.59424 23.2609C8.46661 23.3237 8.35912 23.421 8.28395 23.5418C8.20879 23.6626 8.16895 23.802 8.16895 23.9442V39.7083C8.16895 39.9103 8.2492 40.104 8.39205 40.2469C8.5349 40.3897 8.72864 40.47 8.93066 40.47ZM48.5328 26.5863H50.9499V27.0701H48.5328V26.5863ZM53.0016 28.5935V38.9466H46.481V28.5935H53.0016ZM45.7193 9.22797C46.8302 9.22784 47.9161 9.55715 48.8399 10.1743C49.7636 10.7914 50.4836 11.6685 50.9088 12.6948C51.334 13.7211 51.4452 14.8505 51.2286 15.94C51.0119 17.0296 50.4769 18.0304 49.6914 18.8159C48.9059 19.6015 47.9051 20.1364 46.8156 20.3531C45.726 20.5698 44.5967 20.4586 43.5703 20.0334C42.544 19.6083 41.6668 18.8883 41.0497 17.9646C40.4326 17.0409 40.1033 15.9549 40.1034 14.844C40.105 13.3551 40.6973 11.9276 41.7501 10.8748C42.8029 9.82192 44.2303 9.22968 45.7193 9.22797ZM35.7123 13.8435H38.6518C38.6046 14.1749 38.5807 14.5092 38.5803 14.844C38.576 16.3825 39.0728 17.8805 39.9956 19.1115C40.5853 19.8974 41.3299 20.5538 42.1835 21.0404C43.037 21.5269 43.9813 21.8332 44.9579 21.9402V38.9466H35.7123V13.8435ZM22.2703 5.85495H31.9845V8.62494H22.2703V5.85495ZM20.0662 10.1484H34.1889V38.9466H20.0662V10.1484ZM12.4476 18.2918H15.4214V19.9013L12.4476 21.3647V18.2918ZM9.69276 24.4184L18.5432 20.0633V38.9466H9.69238L9.69276 24.4184Z" fill="black"/>
<path id="Vector_20" d="M45.7301 17.0652C45.7264 17.0652 45.7227 17.0652 45.7191 17.0652C45.7154 17.0652 45.7117 17.0652 45.708 17.0652C45.5119 17.0621 45.3248 16.9822 45.1871 16.8425C45.0493 16.7029 44.972 16.5147 44.9717 16.3185C44.9717 16.1165 44.8914 15.9228 44.7486 15.7799C44.6057 15.6371 44.412 15.5568 44.21 15.5568C44.0079 15.5568 43.8142 15.6371 43.6713 15.7799C43.5285 15.9228 43.4482 16.1165 43.4482 16.3185C43.4491 16.7867 43.5945 17.2432 43.8646 17.6256C44.1347 18.008 44.5163 18.2976 44.9572 18.4549V18.7256C44.9572 18.9276 45.0375 19.1213 45.1803 19.2642C45.3232 19.407 45.5169 19.4873 45.7189 19.4873C45.9209 19.4873 46.1147 19.407 46.2575 19.2642C46.4004 19.1213 46.4806 18.9276 46.4806 18.7256V18.4553C46.9848 18.2761 47.4095 17.9245 47.6796 17.4625C47.9497 17.0006 48.0478 16.4581 47.9567 15.9308C47.8655 15.4035 47.591 14.9254 47.1815 14.581C46.7721 14.2365 46.254 14.0478 45.7189 14.0482C45.5712 14.0482 45.4267 14.0044 45.3039 13.9223C45.181 13.8402 45.0853 13.7235 45.0288 13.5869C44.9722 13.4504 44.9575 13.3002 44.9863 13.1553C45.0151 13.0104 45.0863 12.8773 45.1908 12.7728C45.2953 12.6683 45.4284 12.5972 45.5733 12.5683C45.7183 12.5395 45.8685 12.5543 46.005 12.6109C46.1415 12.6674 46.2582 12.7632 46.3403 12.8861C46.4224 13.0089 46.4662 13.1534 46.4662 13.3011C46.4662 13.5031 46.5464 13.6969 46.6893 13.8397C46.8321 13.9826 47.0259 14.0628 47.2279 14.0628C47.4299 14.0628 47.6237 13.9826 47.7665 13.8397C47.9094 13.6969 47.9896 13.5031 47.9896 13.3011C47.9888 12.833 47.8434 12.3765 47.5733 11.9941C47.3032 11.6117 46.9216 11.322 46.4806 11.1648V10.9628C46.4806 10.7607 46.4004 10.567 46.2575 10.4242C46.1147 10.2813 45.9209 10.201 45.7189 10.201C45.5169 10.201 45.3232 10.2813 45.1803 10.4242C45.0375 10.567 44.9572 10.7607 44.9572 10.9628V11.1644C44.4531 11.3436 44.0286 11.6953 43.7585 12.1572C43.4885 12.6191 43.3904 13.1615 43.4815 13.6887C43.5727 14.2159 43.8472 14.694 44.2566 15.0385C44.666 15.3829 45.1839 15.5716 45.7189 15.5713C45.9156 15.572 46.1042 15.6502 46.2436 15.789C46.3829 15.9278 46.4619 16.116 46.4634 16.3128C46.4649 16.5095 46.3886 16.6988 46.2513 16.8397C46.114 16.9806 45.9267 17.0616 45.73 17.0652H45.7301Z" fill="#FF5E03"/>
<path id="Vector_21" d="M51.22 43.7432L51.0677 43.8251C50.0173 42.6266 48.262 42.177 46.9163 42.859C46.9106 42.8618 46.9049 42.8648 46.8993 42.8677L46.3938 43.1402C45.6751 42.5559 44.7961 42.2034 43.8729 42.129C42.9497 42.0547 42.0256 42.2621 41.2227 42.7238L38.103 44.4209H33.9431C33.0553 44.4198 32.1791 44.219 31.3794 43.8336L30.8025 43.5543C29.1378 42.7443 27.2813 42.4109 25.4387 42.5908C23.5961 42.7708 21.8393 43.4571 20.3627 44.5739C20.346 44.5866 20.3298 44.5992 20.3143 44.6135L18.9214 45.8535C18.4437 46.2786 17.8844 46.6017 17.2776 46.8032L16.5251 44.3352C16.4775 44.1791 16.381 44.0423 16.2499 43.9452C16.1187 43.8481 15.9598 43.7956 15.7965 43.7956H9.06054C8.95274 43.7956 8.84617 43.8185 8.74787 43.8628C8.64957 43.907 8.56179 43.9716 8.49032 44.0523C8.41884 44.133 8.36531 44.228 8.33327 44.3309C8.30122 44.4338 8.29138 44.5424 8.30441 44.6494L10.5502 63.061C10.5727 63.2456 10.662 63.4156 10.8013 63.5389C10.9405 63.6622 11.12 63.7304 11.306 63.7304H21.4099C21.5289 63.7304 21.6463 63.7025 21.7526 63.649C21.8589 63.5954 21.9512 63.5177 22.022 63.422C22.0929 63.3264 22.1403 63.2154 22.1605 63.0981C22.1808 62.9808 22.1732 62.8604 22.1385 62.7466L20.8405 58.4892L24.8842 55.9327C25.4071 55.6451 26.0195 55.5663 26.5981 55.7125C26.6138 55.7164 26.6297 55.7198 26.6457 55.7228L35.0553 57.2716C37.3691 57.6854 39.7546 57.3486 41.8633 56.3103C41.8957 56.2943 41.9268 56.276 41.9565 56.2556L56.5015 46.2689C56.6616 46.159 56.7736 45.9922 56.8147 45.8024C56.8558 45.6127 56.823 45.4144 56.7228 45.2481C56.1759 44.3368 55.2985 43.6717 54.2734 43.3914C53.2483 43.111 52.1545 43.2371 51.22 43.7432ZM47.6129 44.2139C48.2694 43.8863 49.0845 44.1147 49.6594 44.585L44.3147 47.4685L44.1264 47.5678C43.9692 47.1624 43.759 46.7796 43.5013 46.4295L47.6129 44.2139ZM41.9596 44.0575C41.9657 44.0542 41.9716 44.0508 41.9776 44.0474C42.4151 43.7944 42.9087 43.654 43.4138 43.6388C43.919 43.6236 44.4201 43.7339 44.8721 43.96L42.3595 45.314C41.9219 45.0061 41.4369 44.7719 40.9236 44.6207L41.9596 44.0575ZM11.9803 62.207L9.9209 45.3188H15.2324L20.3813 62.207H11.9803ZM41.1397 54.9683C39.3364 55.8437 37.3022 56.1253 35.3289 55.7728L26.9442 54.2286C25.9895 53.994 24.9814 54.1312 24.1242 54.6123C24.1121 54.6189 24.1003 54.626 24.0887 54.6334L20.3798 56.9782L17.7218 48.2598C18.539 47.9943 19.2923 47.5623 19.9343 46.9912L21.3034 45.7724C22.5558 44.8322 24.0433 44.2557 25.6022 44.1062C27.1612 43.9568 28.7311 44.2403 30.1393 44.9255L30.7162 45.2048C31.7228 45.6901 32.8257 45.9428 33.9432 45.9442H39.5374C40.2989 45.9452 41.0381 46.2015 41.6367 46.6722C42.2353 47.1429 42.6588 47.8008 42.8393 48.5406L38.9594 48.3649C37.4772 48.2981 35.992 48.3667 34.5223 48.5698C34.3221 48.5975 34.1412 48.7035 34.0193 48.8646C33.8973 49.0257 33.8444 49.2286 33.8721 49.4287C33.8997 49.6288 34.0058 49.8098 34.1669 49.9317C34.3279 50.0536 34.5309 50.1066 34.731 50.0789C36.1087 49.8885 37.501 49.8242 38.8905 49.8868L43.6621 50.1027C43.6737 50.1027 43.6852 50.1034 43.6965 50.1034C43.8986 50.1034 44.0923 50.0232 44.2351 49.8803C44.378 49.7375 44.4582 49.5437 44.4582 49.3417C44.4582 49.2668 44.456 49.1924 44.4527 49.1183L45.0314 48.8136L51.9435 45.0847C52.4247 44.8243 52.9756 44.7219 53.5182 44.792C54.0609 44.8622 54.5676 45.1013 54.9668 45.4755L41.1397 54.9683Z" fill="black"/>
<path id="Vector_22" d="M13.7188 59.7473C13.7187 60.1644 13.8424 60.5722 14.0742 60.919C14.3059 61.2658 14.6353 61.5361 15.0206 61.6957C15.406 61.8553 15.83 61.8971 16.2391 61.8157C16.6482 61.7344 17.024 61.5335 17.3189 61.2386C17.6139 60.9436 17.8147 60.5678 17.8961 60.1587C17.9775 59.7497 17.9357 59.3256 17.7761 58.9403C17.6165 58.5549 17.3462 58.2255 16.9994 57.9938C16.6525 57.7621 16.2448 57.6384 15.8277 57.6384C15.2686 57.639 14.7325 57.8614 14.3372 58.2568C13.9418 58.6521 13.7194 59.1882 13.7188 59.7473ZM15.8277 59.1618C15.9435 59.1618 16.0567 59.1961 16.153 59.2605C16.2493 59.3248 16.3243 59.4163 16.3686 59.5232C16.4129 59.6302 16.4245 59.748 16.402 59.8615C16.3794 59.9751 16.3236 60.0794 16.2417 60.1613C16.1598 60.2432 16.0555 60.299 15.9419 60.3216C15.8283 60.3442 15.7106 60.3326 15.6036 60.2882C15.4966 60.2439 15.4052 60.1689 15.3409 60.0726C15.2765 59.9763 15.2422 59.8631 15.2422 59.7473C15.2424 59.5921 15.3041 59.4432 15.4139 59.3335C15.5236 59.2237 15.6725 59.162 15.8277 59.1618Z" fill="#FF5E03"/>
</g>
</svg>
