<svg width="35" height="24" viewBox="0 0 35 24" fill="none" xmlns="http://www.w3.org/2000/svg">
<path id="&#226;&#128;&#157;" d="M15.6076 8.30233C15.5637 10.0698 15.3881 11.6744 15.0807 13.1163C14.7734 14.5116 14.3124 15.8372 13.6978 17.093C13.1271 18.3023 12.4027 19.4651 11.5246 20.5814C10.6904 21.6977 9.72456 22.8372 8.62698 24L3.75372 21.5581C4.06105 21.186 4.36837 20.7442 4.67569 20.2326C5.24643 19.3023 5.79522 18.0233 6.32206 16.3953C4.47813 16.0233 2.96347 15.1163 1.77808 13.6744C0.592693 12.186 0 10.3953 0 8.30233C0 7.13953 0.197564 6.06977 0.592693 5.09302C1.03173 4.06977 1.60247 3.18605 2.30492 2.44186C3.00737 1.69767 3.81958 1.11628 4.74155 0.697674C5.70742 0.232558 6.71719 0 7.77087 0C8.86845 0 9.87822 0.232558 10.8002 0.697674C11.7661 1.11628 12.6002 1.69767 13.3027 2.44186C14.0051 3.18605 14.5539 4.06977 14.949 5.09302C15.3881 6.06977 15.6076 7.13953 15.6076 8.30233ZM34.903 8.30233C34.903 10.0233 34.7494 11.5814 34.4421 12.9767C34.1347 14.3721 33.6738 15.6744 33.0591 16.8837C32.4884 18.093 31.764 19.2791 30.8859 20.4419C30.0078 21.6047 28.9981 22.7907 27.8566 24L23.0492 21.5581C23.3565 21.186 23.6638 20.7442 23.9711 20.2326C24.5419 19.3023 25.0907 18.0233 25.6175 16.3953C23.7736 16.0233 22.237 15.1163 21.0077 13.6744C19.8223 12.186 19.2296 10.3953 19.2296 8.30233C19.2296 7.13953 19.4272 6.06977 19.8223 5.09302C20.2613 4.06977 20.8321 3.18605 21.5345 2.44186C22.237 1.69767 23.0711 1.11628 24.037 0.697674C25.0029 0.232558 26.0126 0 27.0663 0C28.1639 0 29.1737 0.232558 30.0956 0.697674C31.0615 1.11628 31.8957 1.69767 32.5981 2.44186C33.3006 3.18605 33.8494 4.06977 34.2445 5.09302C34.6835 6.06977 34.903 7.13953 34.903 8.30233Z" fill="#FF5E03"/>
</svg>
