<svg width="65" height="65" viewBox="0 0 65 65" fill="none" xmlns="http://www.w3.org/2000/svg">
<g id="transaction 1">
<path id="Vector" d="M32.5 40.7936C34.107 40.7936 35.6779 40.3171 37.014 39.4243C38.3502 38.5315 39.3916 37.2625 40.0065 35.7779C40.6215 34.2932 40.7824 32.6596 40.4689 31.0835C40.1554 29.5074 39.3815 28.0596 38.2452 26.9233C37.1089 25.787 35.6612 25.0132 34.0851 24.6997C32.509 24.3862 30.8753 24.5471 29.3907 25.1621C27.906 25.777 26.6371 26.8184 25.7443 28.1546C24.8515 29.4907 24.375 31.0616 24.375 32.6686C24.3775 34.8227 25.2343 36.8879 26.7575 38.4111C28.2807 39.9343 30.3459 40.7911 32.5 40.7936ZM32.5 26.5748C33.7052 26.5748 34.8834 26.9322 35.8855 27.6018C36.8876 28.2714 37.6687 29.2231 38.1299 30.3366C38.5911 31.4501 38.7118 32.6753 38.4767 33.8574C38.2415 35.0395 37.6612 36.1253 36.8089 36.9775C35.9567 37.8297 34.8709 38.4101 33.6888 38.6452C32.5068 38.8804 31.2815 38.7597 30.168 38.2985C29.0545 37.8373 28.1028 37.0562 27.4332 36.0541C26.7636 35.052 26.4062 33.8738 26.4062 32.6686C26.408 31.053 27.0506 29.504 28.193 28.3616C29.3354 27.2192 30.8844 26.5766 32.5 26.5748Z" fill="black"/>
<path id="Vector_2" d="M32.5 34.678C32.0636 34.678 31.7383 34.4221 31.7383 34.194H29.707C29.7244 34.7198 29.9047 35.2271 30.2232 35.6458C30.5416 36.0645 30.9824 36.3739 31.4844 36.531V37.5781H33.5156V36.531C34.0176 36.3739 34.4584 36.0645 34.7768 35.6458C35.0953 35.2271 35.2756 34.7198 35.293 34.194C35.2535 33.4911 34.9377 32.8323 34.4146 32.3611C33.8914 31.89 33.2032 31.6447 32.5 31.6788C32.0636 31.6788 31.7383 31.4228 31.7383 31.1947C31.7383 30.9667 32.0636 30.7107 32.5 30.7107C32.9364 30.7107 33.2617 30.9667 33.2617 31.1947H35.293C35.2756 30.669 35.0953 30.1616 34.7768 29.7429C34.4584 29.3242 34.0176 29.0149 33.5156 28.8577V27.5905H31.4844V28.8577C30.9824 29.0148 30.5416 29.3242 30.2232 29.7429C29.9047 30.1616 29.7244 30.669 29.707 31.1947C29.7465 31.8977 30.0623 32.5565 30.5854 33.0276C31.1086 33.4988 31.7968 33.7441 32.5 33.71C32.9364 33.71 33.2617 33.9659 33.2617 34.194C33.2617 34.4221 32.9364 34.678 32.5 34.678Z" fill="#FF5E03"/>
<path id="Vector_3" d="M50.7812 45.7031C51.3198 45.7024 51.836 45.4882 52.2168 45.1074C52.5976 44.7266 52.8118 44.2104 52.8125 43.6719V21.3281C52.8118 20.7896 52.5976 20.2734 52.2168 19.8926C51.836 19.5118 51.3198 19.2976 50.7812 19.2969H14.2188C13.6802 19.2976 13.164 19.5118 12.7832 19.8926C12.4024 20.2734 12.1882 20.7896 12.1875 21.3281V43.6719C12.1882 44.2104 12.4024 44.7266 12.7832 45.1074C13.164 45.4882 13.6802 45.7024 14.2188 45.7031H50.7812ZM14.2188 39.712C15.1935 39.913 16.088 40.3951 16.7918 41.0988C17.4955 41.8026 17.9777 42.6971 18.1786 43.6719H14.2188V39.712ZM20.2314 21.3281H44.7686C44.9899 22.8442 45.6947 24.2483 46.7781 25.3317C47.8615 26.415 49.2657 27.1197 50.7818 27.3408L50.7827 37.659C49.2664 37.88 47.862 38.5846 46.7784 39.668C45.6948 40.7514 44.9899 42.1556 44.7686 43.6719H20.2314C20.0101 42.1559 19.3054 40.7518 18.2221 39.6685C17.1388 38.5852 15.7347 37.8805 14.2188 37.6593V27.3407C15.7347 27.1195 17.1388 26.4148 18.2221 25.3315C19.3054 24.2482 20.0101 22.8441 20.2314 21.3281ZM46.8214 43.6719C47.0225 42.6969 47.5048 41.8022 48.2089 41.0984C48.9129 40.3946 49.8078 39.9126 50.7829 39.712L50.7833 43.6719H46.8214ZM50.7817 25.288C49.8068 25.0871 48.9122 24.605 48.2084 23.9012C47.5046 23.1975 47.0224 22.3029 46.8214 21.3281H50.7812L50.7817 25.288ZM18.1786 21.3281C17.9777 22.3029 17.4955 23.1974 16.7918 23.9012C16.088 24.6049 15.1935 25.087 14.2188 25.288V21.3281H18.1786Z" fill="black"/>
<path id="Vector_4" d="M59.9219 28.4375C59.1184 28.4375 58.3329 28.6758 57.6649 29.1222C56.9968 29.5685 56.4761 30.203 56.1686 30.9453C55.8611 31.6877 55.7807 32.5045 55.9374 33.2926C56.0942 34.0806 56.4811 34.8045 57.0493 35.3726C57.6174 35.9408 58.3413 36.3277 59.1293 36.4844C59.9174 36.6412 60.7342 36.5607 61.4765 36.2533C62.2189 35.9458 62.8533 35.4251 63.2997 34.757C63.7461 34.0889 63.9844 33.3035 63.9844 32.5C63.9833 31.4229 63.5549 30.3902 62.7933 29.6286C62.0317 28.8669 60.999 28.4386 59.9219 28.4375ZM59.9219 34.5312C59.5201 34.5312 59.1274 34.4121 58.7934 34.1889C58.4593 33.9657 58.199 33.6485 58.0452 33.2773C57.8915 32.9062 57.8513 32.4977 57.9297 32.1037C58.008 31.7097 58.2015 31.3478 58.4856 31.0637C58.7696 30.7796 59.1316 30.5862 59.5256 30.5078C59.9196 30.4294 60.328 30.4696 60.6992 30.6234C61.0704 30.7771 61.3876 31.0375 61.6108 31.3715C61.834 31.7055 61.9531 32.0983 61.9531 32.5C61.9524 33.0385 61.7382 33.5548 61.3574 33.9355C60.9766 34.3163 60.4604 34.5306 59.9219 34.5312Z" fill="#FF5E03"/>
<path id="Vector_5" d="M1.01562 32.5C1.01563 33.3035 1.25389 34.0889 1.70028 34.757C2.14667 35.4251 2.78115 35.9458 3.52347 36.2533C4.2658 36.5607 5.08263 36.6412 5.87068 36.4844C6.65873 36.3277 7.3826 35.9408 7.95075 35.3726C8.5189 34.8045 8.90581 34.0806 9.06257 33.2926C9.21932 32.5045 9.13887 31.6877 8.83139 30.9453C8.5239 30.203 8.0032 29.5685 7.33513 29.1222C6.66705 28.6758 5.88161 28.4375 5.07812 28.4375C4.00101 28.4386 2.96833 28.8669 2.20669 29.6286C1.44506 30.3902 1.0167 31.4229 1.01562 32.5ZM5.07812 30.4688C5.47987 30.4688 5.87259 30.5879 6.20663 30.8111C6.54066 31.0343 6.80101 31.3515 6.95476 31.7227C7.1085 32.0938 7.14872 32.5023 7.07035 32.8963C6.99197 33.2903 6.79851 33.6522 6.51444 33.9363C6.23036 34.2204 5.86843 34.4138 5.4744 34.4922C5.08038 34.5706 4.67196 34.5304 4.3008 34.3766C3.92964 34.2229 3.6124 33.9625 3.3892 33.6285C3.16601 33.2945 3.04688 32.9017 3.04688 32.5C3.04757 31.9615 3.2618 31.4452 3.64259 31.0645C4.02337 30.6837 4.53962 30.4694 5.07812 30.4688Z" fill="#FF5E03"/>
<path id="Vector_6" d="M9.64152 3.1788C9.48497 3.09038 9.30779 3.045 9.12801 3.04726C8.94822 3.04953 8.77224 3.09936 8.61797 3.1917L3.53984 6.23857C3.38949 6.32881 3.26506 6.45645 3.17867 6.60905C3.09228 6.76166 3.04687 6.93403 3.04688 7.10939C3.04687 7.28475 3.09228 7.45712 3.17867 7.60972C3.26506 7.76233 3.38949 7.88996 3.53984 7.98021L8.61797 11.0271C8.77207 11.1196 8.94798 11.1696 9.12773 11.1719C9.30748 11.1742 9.48462 11.1288 9.64106 11.0402C9.79749 10.9517 9.92762 10.8232 10.0181 10.6679C10.1087 10.5126 10.1563 10.336 10.1563 10.1563V8.12501H49.7657C52.1891 8.12766 54.5125 9.09154 56.2261 10.8052C57.9398 12.5188 58.9036 14.8422 58.9063 17.2656V27.4219H60.9375V17.2656C60.9342 14.3037 59.7561 11.464 57.6617 9.36963C55.5673 7.27522 52.7276 6.09711 49.7657 6.09376H10.1563V4.06251C10.1563 3.88284 10.1087 3.70637 10.0183 3.55111C9.92786 3.39585 9.79785 3.26738 9.64152 3.1788ZM8.12503 8.36206L6.03626 7.10939L8.12503 5.85672V8.36206Z" fill="black"/>
<path id="Vector_7" d="M61.4602 57.0198L56.3821 53.9729C56.228 53.8804 56.052 53.8304 55.8723 53.8281C55.6926 53.8258 55.5154 53.8712 55.359 53.9598C55.2025 54.0483 55.0724 54.1768 54.9819 54.3321C54.8914 54.4874 54.8437 54.664 54.8438 54.8438V56.875H15.2344C12.8109 56.8724 10.4875 55.9085 8.7739 54.1949C7.06027 52.4812 6.0964 50.1578 6.09375 47.7344V37.5781H4.0625V47.7344C4.06585 50.6963 5.24395 53.536 7.33836 55.6304C9.43277 57.7248 12.2724 58.9029 15.2344 58.9062H54.8438V60.9375C54.8437 61.1172 54.8914 61.2938 54.982 61.4491C55.0725 61.6043 55.2026 61.7328 55.359 61.8214C55.5155 61.9099 55.6926 61.9554 55.8723 61.9531C56.052 61.9508 56.228 61.9008 56.3821 61.8083L61.4602 58.7614C61.6105 58.6712 61.735 58.5436 61.8214 58.391C61.9078 58.2384 61.9532 58.066 61.9532 57.8906C61.9532 57.7153 61.9078 57.5429 61.8214 57.3903C61.735 57.2377 61.6105 57.11 61.4602 57.0198ZM56.875 59.1433V56.638L58.9638 57.8906L56.875 59.1433Z" fill="black"/>
</g>
</svg>
