<svg width="24" height="24" viewBox="0 0 24 24" fill="none" xmlns="http://www.w3.org/2000/svg">
<path d="M21.8939 16.8373C21.8697 16.7824 21.8471 16.7369 21.8262 16.7004C21.4792 16.0432 20.8161 15.2365 19.8372 14.2801L19.8166 14.2582L19.8062 14.2475L19.7957 14.2365H19.7852C19.341 13.7911 19.0597 13.4917 18.9419 13.3384C18.7263 13.0463 18.678 12.7507 18.7959 12.4512C18.8791 12.2249 19.1917 11.747 19.733 11.0168C20.0178 10.6299 20.2433 10.3197 20.4098 10.0861C21.6109 8.40687 22.1316 7.33383 21.9719 6.86655L21.9098 6.75735C21.8681 6.69161 21.7605 6.63147 21.5872 6.57662C21.4134 6.52189 21.1914 6.51284 20.9206 6.54931L17.9216 6.5711C17.8731 6.55299 17.8037 6.55468 17.7133 6.57662C17.623 6.59856 17.5779 6.60957 17.5779 6.60957L17.5257 6.63699L17.4843 6.66994C17.4495 6.69173 17.4114 6.73004 17.3697 6.78481C17.3282 6.83939 17.2935 6.90345 17.2658 6.97644C16.9393 7.8598 16.5681 8.68111 16.1515 9.44032C15.8946 9.89303 15.6587 10.2854 15.4432 10.6176C15.2281 10.9496 15.0476 11.1943 14.9019 11.3511C14.756 11.5081 14.6244 11.6339 14.5061 11.7289C14.388 11.824 14.2979 11.8641 14.2355 11.8494C14.173 11.8347 14.1141 11.8202 14.0583 11.8056C13.9612 11.7398 13.883 11.6504 13.8241 11.5373C13.765 11.4241 13.7252 11.2817 13.7043 11.1102C13.6836 10.9385 13.6714 10.7908 13.6679 10.6667C13.6646 10.5427 13.6661 10.3673 13.6732 10.141C13.6804 9.91454 13.6836 9.76135 13.6836 9.68103C13.6836 9.40357 13.6888 9.10244 13.6991 8.77757C13.7096 8.4527 13.7181 8.1953 13.7252 8.00567C13.7323 7.81585 13.7356 7.61502 13.7356 7.4033C13.7356 7.19157 13.7233 7.02553 13.6991 6.90502C13.6752 6.78466 13.6384 6.66783 13.59 6.55457C13.5413 6.44142 13.4701 6.35389 13.3766 6.29176C13.2829 6.2297 13.1664 6.18045 13.0277 6.14386C12.6598 6.05629 12.1912 6.00892 11.6218 6.00156C10.3307 5.98698 9.50103 6.07466 9.1331 6.26448C8.98732 6.34469 8.8554 6.45427 8.73744 6.59288C8.61245 6.75355 8.59502 6.84124 8.68525 6.85566C9.10184 6.92128 9.39676 7.07827 9.57033 7.32647L9.63288 7.45799C9.68153 7.55288 9.73011 7.72088 9.77873 7.96175C9.82728 8.20262 9.85861 8.46908 9.87239 8.76096C9.90704 9.29399 9.90704 9.75027 9.87239 10.1298C9.83764 10.5096 9.80481 10.8052 9.77348 11.0169C9.74215 11.2286 9.69532 11.4002 9.63288 11.5315C9.57033 11.6629 9.52871 11.7433 9.50785 11.7724C9.48703 11.8016 9.46967 11.8199 9.45588 11.8271C9.36565 11.8635 9.2718 11.882 9.17468 11.882C9.0774 11.882 8.95945 11.8309 8.82064 11.7286C8.68186 11.6263 8.53783 11.4859 8.38855 11.307C8.23927 11.1281 8.07091 10.878 7.88341 10.5568C7.69605 10.2357 7.50165 9.85605 7.30032 9.41803L7.13375 9.10037C7.02962 8.89601 6.88738 8.59845 6.70688 8.20795C6.52627 7.8173 6.36663 7.43943 6.22785 7.0744C6.17237 6.92109 6.08903 6.80438 5.97798 6.72406L5.92586 6.69111C5.89121 6.66196 5.83559 6.63101 5.75929 6.59802C5.68288 6.56508 5.60315 6.54145 5.51977 6.52691L2.66657 6.5487C2.37501 6.5487 2.17718 6.61816 2.07302 6.75689L2.03133 6.82252C2.0105 6.85907 2 6.91745 2 6.9978C2 7.07812 2.02083 7.17669 2.06251 7.29341C2.47903 8.32287 2.93198 9.3157 3.42137 10.2721C3.91075 11.2284 4.33602 11.9988 4.69692 12.5825C5.05789 13.1666 5.42582 13.7179 5.80072 14.2361C6.17562 14.7544 6.42378 15.0866 6.5452 15.2326C6.66676 15.3788 6.76224 15.4881 6.83165 15.5611L7.09203 15.8239C7.25863 15.9991 7.50329 16.209 7.82611 16.4535C8.149 16.6982 8.50646 16.939 8.89869 17.1765C9.29099 17.4136 9.74737 17.607 10.2681 17.7567C10.7887 17.9064 11.2955 17.9665 11.7884 17.9375H12.9859C13.2288 17.9155 13.4128 17.8352 13.5379 17.6966L13.5793 17.6417C13.6072 17.5981 13.6332 17.5304 13.6573 17.4393C13.6817 17.3481 13.6938 17.2475 13.6938 17.1382C13.6867 16.8243 13.7094 16.5414 13.7613 16.2896C13.8132 16.0378 13.8724 15.848 13.9386 15.7202C14.0047 15.5925 14.0793 15.4847 14.1624 15.3973C14.2456 15.3097 14.3049 15.2567 14.3397 15.2384C14.3743 15.2201 14.4019 15.2076 14.4227 15.2001C14.5893 15.1417 14.7854 15.1983 15.0112 15.37C15.2369 15.5416 15.4485 15.7534 15.6465 16.0052C15.8444 16.2572 16.0821 16.5399 16.3597 16.8537C16.6375 17.1677 16.8804 17.4011 17.0886 17.5546L17.2968 17.686C17.4358 17.7737 17.6163 17.854 17.8385 17.927C18.0603 18 18.2546 18.0182 18.4215 17.9818L21.0872 17.938C21.3508 17.938 21.556 17.8921 21.7015 17.801C21.8473 17.7098 21.9339 17.6093 21.9619 17.4999C21.9897 17.3904 21.9912 17.2662 21.9672 17.1274C21.9425 16.9889 21.9181 16.8921 21.8939 16.8373Z" fill="white"/>
</svg>
