<svg width="13" height="12" viewBox="0 0 13 12" fill="none" xmlns="http://www.w3.org/2000/svg">
<g id="map-3 1" opacity="0.75" clip-path="url(#clip0_4012_8699)">
<g id="Group">
<g id="Group_2">
<path id="Vector" d="M9.81367 0C8.36862 0 7.19312 1.1755 7.19312 2.62055C7.19312 3.96527 9.29555 6.34698 9.53514 6.61427C9.60627 6.69289 9.70735 6.73856 9.81367 6.73856C9.91999 6.73856 10.0211 6.69289 10.0922 6.61427C10.3318 6.34698 12.4342 3.96527 12.4342 2.62055C12.4342 1.1755 11.2587 0 9.81367 0ZM9.81367 3.74365C9.19372 3.74365 8.69057 3.2405 8.69057 2.62055C8.69057 2.0006 9.19372 1.49746 9.81367 1.49746C10.4336 1.49746 10.9368 2.0006 10.9368 2.62055C10.9368 3.2405 10.4336 3.74365 9.81367 3.74365Z" fill="white"/>
</g>
</g>
<g id="Group_3">
<g id="Group_4">
<path id="Vector_2" d="M0.689691 4.39805C0.548181 4.45496 0.45459 4.59272 0.45459 4.74621V11.6053C0.45459 11.7296 0.516734 11.8457 0.61931 11.9153C0.682203 11.9572 0.75483 11.9797 0.828954 11.9797C0.876124 11.9797 0.923294 11.9707 0.968218 11.9527L4.19824 10.6604V2.99493L0.689691 4.39805Z" fill="white"/>
</g>
</g>
<g id="Group_5">
<g id="Group_6">
<path id="Vector_3" d="M10.6493 7.11441C10.4367 7.35101 10.132 7.48728 9.81377 7.48728C9.49556 7.48728 9.19082 7.35101 8.97819 7.11441C8.90182 7.02981 8.80373 6.91825 8.69067 6.78572V11.9797L12.1992 10.5765C12.3415 10.5204 12.4343 10.3819 12.4343 10.2291V4.72522C11.8211 5.76371 11.0013 6.72208 10.6493 7.11441Z" fill="white"/>
</g>
</g>
<g id="Group_7">
<g id="Group_8">
<path id="Vector_4" d="M6.68033 3.68826L4.94702 2.99493V10.6604L7.94194 11.8584V5.84609C7.4635 5.20144 6.9641 4.42501 6.68033 3.68826Z" fill="white"/>
</g>
</g>
</g>
<defs>
<clipPath id="clip0_4012_8699">
<rect width="11.9797" height="11.9797" fill="white" transform="translate(0.45459)"/>
</clipPath>
</defs>
</svg>
