<svg width="12" height="12" viewBox="0 0 12 12" fill="none" xmlns="http://www.w3.org/2000/svg">
<g id="list-text 1" clip-path="url(#clip0_4012_8676)">
<g id="Group">
<g id="Group_2">
<path id="Vector" d="M10.5306 1.75421H3.5137C3.12617 1.75421 2.81201 2.06837 2.81201 2.4559C2.81201 2.84343 3.12617 3.15759 3.5137 3.15759H10.5306C10.9181 3.15759 11.2323 2.84343 11.2323 2.4559C11.2323 2.06837 10.9181 1.75421 10.5306 1.75421Z" fill="#868686"/>
</g>
</g>
<g id="Group_3">
<g id="Group_4">
<path id="Vector_2" d="M2.11043 2.45593C2.10964 2.27014 2.0352 2.09224 1.90343 1.96125C1.62975 1.68919 1.18773 1.68919 0.914053 1.96125C0.782268 2.09224 0.707823 2.27014 0.707056 2.45593C0.701815 2.50139 0.701815 2.54731 0.707056 2.59276C0.714993 2.63848 0.727931 2.68319 0.745648 2.72608C0.764484 2.76764 0.786785 2.80754 0.812309 2.84537C0.837504 2.88471 0.866909 2.92117 0.900019 2.95413C0.931946 2.98593 0.967228 3.01417 1.00527 3.03833C1.04222 3.06524 1.08228 3.08763 1.12456 3.10499C1.17107 3.12912 1.22065 3.14683 1.27191 3.15762C1.31737 3.16271 1.36329 3.16271 1.40874 3.15762C1.59403 3.15777 1.77187 3.08462 1.90343 2.95413C1.93654 2.92117 1.96595 2.88471 1.99114 2.84537C2.01667 2.80754 2.03897 2.76764 2.0578 2.72608C2.08019 2.68372 2.09784 2.63901 2.11043 2.59276C2.11567 2.54731 2.11567 2.50139 2.11043 2.45593Z" fill="#868686"/>
</g>
</g>
<g id="Group_5">
<g id="Group_6">
<path id="Vector_3" d="M2.1104 5.61347C2.11562 5.56801 2.11562 5.52209 2.1104 5.47664C2.09828 5.43136 2.08061 5.38776 2.05778 5.34682C2.03971 5.30378 2.01737 5.26264 1.99112 5.22403C1.9668 5.18513 1.93729 5.14972 1.90341 5.11878C1.62973 4.84672 1.18771 4.84672 0.914029 5.11878C0.782243 5.24977 0.707799 5.42767 0.707031 5.61347C0.708391 5.70594 0.726218 5.7974 0.759658 5.88362C0.777244 5.92512 0.798382 5.96503 0.82281 6.0029C0.849496 6.04103 0.880063 6.07632 0.914029 6.10816C0.945035 6.14197 0.980426 6.17148 1.01928 6.19587C1.05623 6.22279 1.09627 6.24518 1.13857 6.26253C1.18135 6.28053 1.2261 6.29349 1.27189 6.30112C1.31678 6.31118 1.36271 6.3159 1.40872 6.31515C1.45417 6.32039 1.50009 6.32039 1.54555 6.31515C1.59019 6.3075 1.63378 6.29454 1.67536 6.27656C1.7188 6.25932 1.76002 6.23694 1.79815 6.2099C1.83701 6.18552 1.8724 6.156 1.90341 6.12219C1.93722 6.09118 1.96673 6.05579 1.99112 6.01694C2.01809 5.98001 2.04048 5.93997 2.05778 5.89765C2.08175 5.85107 2.09944 5.80152 2.1104 5.75029C2.1158 5.70484 2.1158 5.65892 2.1104 5.61347Z" fill="#868686"/>
</g>
</g>
<g id="Group_7">
<g id="Group_8">
<path id="Vector_4" d="M2.11045 8.77106C2.11564 8.7256 2.11564 8.67969 2.11045 8.63423C2.09832 8.58783 2.08065 8.54308 2.05782 8.50091C2.03899 8.45936 2.01669 8.41945 1.99116 8.38162C1.96678 8.34277 1.93726 8.30738 1.90345 8.27637C1.62977 8.00431 1.18775 8.00431 0.914072 8.27637C0.880259 8.30738 0.850745 8.34277 0.826361 8.38162C0.800837 8.41945 0.778537 8.45936 0.759701 8.50091C0.741501 8.54362 0.728541 8.5884 0.721108 8.63423C0.711219 8.67916 0.706526 8.72505 0.707074 8.77106C0.707864 8.95685 0.782308 9.13475 0.914072 9.26575C0.945078 9.29956 0.980469 9.32908 1.01932 9.35346C1.05627 9.38039 1.09631 9.40277 1.13861 9.42012C1.18139 9.43812 1.22615 9.45108 1.27193 9.45871C1.31682 9.46878 1.36276 9.47349 1.40876 9.47275C1.45422 9.47799 1.50013 9.47799 1.54559 9.47275C1.59023 9.46509 1.63383 9.45213 1.6754 9.43415C1.71884 9.41692 1.76007 9.39453 1.7982 9.36749C1.83705 9.34311 1.87244 9.31359 1.90345 9.27978C1.93726 9.24878 1.96678 9.21338 1.99116 9.17453C2.01815 9.13762 2.04054 9.09756 2.05782 9.05524C2.08177 9.00865 2.09946 8.95911 2.11045 8.90789C2.11584 8.86243 2.11584 8.81651 2.11045 8.77106Z" fill="#868686"/>
</g>
</g>
<g id="Group_9">
<g id="Group_10">
<path id="Vector_5" d="M11.2323 4.9118H3.5137C3.12617 4.9118 2.81201 5.22596 2.81201 5.61349C2.81201 6.00102 3.12617 6.31518 3.5137 6.31518H11.2323C11.6198 6.31518 11.9339 6.00102 11.9339 5.61349C11.9339 5.22596 11.6198 4.9118 11.2323 4.9118Z" fill="#868686"/>
</g>
</g>
<g id="Group_11">
<g id="Group_12">
<path id="Vector_6" d="M8.07466 8.0694H3.5137C3.12617 8.0694 2.81201 8.38356 2.81201 8.77108C2.81201 9.15861 3.12617 9.47277 3.5137 9.47277H8.07466C8.46219 9.47277 8.77635 9.15861 8.77635 8.77108C8.77635 8.38356 8.46219 8.0694 8.07466 8.0694Z" fill="#868686"/>
</g>
</g>
</g>
<defs>
<clipPath id="clip0_4012_8676">
<rect width="11.2309" height="11.2309" fill="white" transform="translate(0.703125)"/>
</clipPath>
</defs>
</svg>
