<svg width="68" height="68" viewBox="0 0 68 68" fill="none" xmlns="http://www.w3.org/2000/svg">
<path d="M65.8584 4.4978L58.4323 4.61402C58.1506 4.61861 57.8822 4.73483 57.6861 4.93716C57.49 5.13949 57.3822 5.41138 57.3864 5.69312C57.3956 5.97332 57.5133 6.239 57.7146 6.43412C57.9159 6.62925 58.1852 6.73856 58.4655 6.73902L62.8786 6.66975L45.5049 21.1129L36.7839 11.0191C36.6297 10.8396 36.4198 10.717 36.1877 10.6707C35.9556 10.6244 35.7147 10.6572 35.5035 10.7639L28.8507 14.1011C27.5775 12.1014 25.8506 10.4302 23.8102 9.22325C21.7699 8.01628 19.4736 7.30757 17.1079 7.15468C14.7423 7.0018 12.3739 7.40904 10.1952 8.34334C8.01642 9.27764 6.08877 10.7126 4.56877 12.5318C3.04877 14.351 1.97928 16.503 1.44715 18.8131C0.915024 21.1232 0.935271 23.5263 1.50625 25.8271C2.07722 28.1279 3.18283 30.2617 4.73326 32.0549C6.2837 33.8482 8.23525 35.2506 10.4294 36.148V62.4414C10.4294 62.5809 10.4568 62.7191 10.5102 62.8481C10.5636 62.977 10.6419 63.0941 10.7405 63.1928C10.8392 63.2915 10.9563 63.3697 11.0853 63.4231C11.2142 63.4765 11.3524 63.5039 11.4919 63.5039H19.8062C19.9457 63.5039 20.0839 63.4765 20.2128 63.4231C20.3418 63.3697 20.4589 63.2915 20.5576 63.1928C20.6562 63.0941 20.7345 62.977 20.7879 62.8481C20.8413 62.7191 20.8687 62.5809 20.8687 62.4414V36.5127C22.6641 35.9203 24.332 34.9954 25.7853 33.7863V62.4414C25.7853 62.5809 25.8128 62.7191 25.8661 62.8481C25.9195 62.977 25.9978 63.0941 26.0965 63.1928C26.1951 63.2915 26.3123 63.3697 26.4412 63.4231C26.5701 63.4765 26.7083 63.5039 26.8478 63.5039H35.1621C35.3017 63.504 35.4399 63.4766 35.5688 63.4232C35.6978 63.3698 35.8149 63.2916 35.9136 63.1929C36.0123 63.0942 36.0905 62.977 36.1439 62.8481C36.1973 62.7192 36.2247 62.581 36.2246 62.4414V24.9426C36.2247 24.803 36.1973 24.6648 36.1439 24.5359C36.0905 24.407 36.0123 24.2898 35.9136 24.1911C35.8149 24.0924 35.6978 24.0142 35.5688 23.9608C35.4399 23.9074 35.3017 23.88 35.1621 23.8801H31.1294C31.1938 23.3217 31.2271 22.7602 31.2291 22.1982C31.2274 20.0478 30.7626 17.9229 29.8663 15.9682L35.7162 13.0341L44.5783 23.2908C44.7602 23.5016 45.0176 23.6326 45.2951 23.6555C45.5727 23.6784 45.8481 23.5914 46.0621 23.4132L64.8125 7.82518V12.81C64.8125 13.0918 64.9244 13.362 65.1237 13.5613C65.323 13.7606 65.5932 13.8725 65.875 13.8725C66.1568 13.8725 66.427 13.7606 66.6263 13.5613C66.8256 13.362 66.9375 13.0918 66.9375 12.81V5.5603C66.9289 5.27836 66.812 5.01058 66.611 4.81267C66.41 4.61477 66.1404 4.50199 65.8584 4.4978ZM18.7437 61.3789H12.5544V36.8304C14.5779 37.3479 16.6897 37.4197 18.7437 37.0408V61.3789ZM16.1466 35.1557C13.5837 35.1558 11.0783 34.3959 8.94729 32.9721C6.81627 31.5483 5.15532 29.5245 4.17449 27.1567C3.19367 24.7889 2.93701 22.1835 3.43698 19.6698C3.93696 17.1561 5.1711 14.8472 6.98334 13.0349C8.79559 11.2227 11.1045 9.98855 13.6182 9.48858C16.1319 8.98861 18.7373 9.24527 21.1051 10.2261C23.4729 11.2069 25.4967 12.8679 26.9205 14.9989C28.3443 17.1299 29.1042 19.6353 29.1041 22.1982C29.1 25.6335 27.7335 28.9269 25.3044 31.356C22.8753 33.7851 19.5819 35.1516 16.1466 35.1557ZM34.0996 26.0051V61.3789H27.9104V31.6131C29.232 29.9624 30.1906 28.0515 30.7234 26.0051H34.0996Z" fill="black"/>
<path d="M50.5184 27.2751H42.2041C42.0645 27.2751 41.9264 27.3025 41.7974 27.3559C41.6685 27.4092 41.5513 27.4875 41.4526 27.5862C41.3539 27.6848 41.2757 27.802 41.2223 27.931C41.169 28.0599 41.1415 28.1981 41.1416 28.3376V62.4404C41.1415 62.5799 41.1689 62.7181 41.2223 62.8471C41.2757 62.976 41.3539 63.0932 41.4526 63.1919C41.5513 63.2905 41.6685 63.3688 41.7974 63.4222C41.9263 63.4755 42.0645 63.503 42.2041 63.5029H50.5184C50.6579 63.503 50.7961 63.4755 50.9251 63.4222C51.054 63.3688 51.1712 63.2905 51.2699 63.1919C51.3685 63.0932 51.4468 62.976 51.5002 62.8471C51.5535 62.7181 51.581 62.5799 51.5809 62.4404V28.3376C51.581 28.1981 51.5535 28.0599 51.5002 27.931C51.4468 27.802 51.3685 27.6848 51.2699 27.5862C51.1712 27.4875 51.054 27.4092 50.9251 27.3559C50.7961 27.3025 50.6579 27.2751 50.5184 27.2751ZM49.4559 61.3779H43.2666V29.4001H49.4559V61.3779Z" fill="black"/>
<path d="M65.8748 18.1289H57.5605C57.421 18.1288 57.2828 18.1563 57.1538 18.2096C57.0249 18.263 56.9077 18.3413 56.8091 18.4399C56.7104 18.5386 56.6321 18.6558 56.5788 18.7847C56.5254 18.9137 56.498 19.0519 56.498 19.1914V62.4416C56.498 62.5811 56.5254 62.7193 56.5788 62.8483C56.6321 62.9772 56.7104 63.0944 56.8091 63.1931C56.9077 63.2918 57.0249 63.37 57.1538 63.4234C57.2828 63.4767 57.421 63.5042 57.5605 63.5041H65.8748C66.0144 63.5042 66.1526 63.4767 66.2815 63.4234C66.4105 63.37 66.5276 63.2918 66.6263 63.1931C66.725 63.0944 66.8032 62.9772 66.8566 62.8483C66.91 62.7193 66.9374 62.5811 66.9373 62.4416V19.1914C66.9374 19.0519 66.91 18.9137 66.8566 18.7847C66.8032 18.6558 66.725 18.5386 66.6263 18.4399C66.5276 18.3413 66.4105 18.263 66.2815 18.2096C66.1526 18.1563 66.0144 18.1288 65.8748 18.1289ZM64.8123 61.3791H58.623V20.2539H64.8123V61.3791Z" fill="black"/>
<path d="M16.1458 21.1358C13.8252 21.1358 13.6514 20.5973 13.6514 19.7765C13.6514 17.8584 17.8701 18.0501 18.6069 18.8821C18.6993 18.9872 18.8115 19.0729 18.937 19.1345C19.0626 19.1961 19.1991 19.2323 19.3387 19.241C19.4783 19.2497 19.6182 19.2308 19.7505 19.1853C19.8827 19.1398 20.0047 19.0686 20.1094 18.9759C20.2141 18.8831 20.2994 18.7706 20.3606 18.6448C20.4217 18.519 20.4573 18.3824 20.4655 18.2428C20.4737 18.1032 20.4543 17.9633 20.4083 17.8312C20.3623 17.6991 20.2907 17.5774 20.1976 17.4731C19.4148 16.7603 18.4172 16.3282 17.3618 16.2448V15.0586C17.3618 14.7768 17.2499 14.5066 17.0506 14.3073C16.8514 14.108 16.5811 13.9961 16.2993 13.9961C16.0175 13.9961 15.7473 14.108 15.548 14.3073C15.3488 14.5066 15.2368 14.7768 15.2368 15.0586V16.2397C12.6806 16.5716 11.5264 18.0598 11.5264 19.7765C11.5264 23.2608 15.0034 23.2608 16.1458 23.2608C18.4248 23.2608 18.9488 23.515 18.9488 24.619C18.9488 26.5719 14.6419 26.3586 13.9346 25.4449C13.8495 25.334 13.7433 25.241 13.6222 25.1712C13.501 25.1014 13.3673 25.0562 13.2287 25.0381C13.09 25.0201 12.9492 25.0296 12.8142 25.0661C12.6792 25.1027 12.5528 25.1654 12.4421 25.2509C12.3315 25.3364 12.2388 25.4428 12.1693 25.5642C12.0999 25.6856 12.0551 25.8194 12.0375 25.9581C12.0199 26.0969 12.0299 26.2377 12.0668 26.3725C12.1037 26.5074 12.1669 26.6336 12.2527 26.744C13.0342 27.5748 14.0992 28.0818 15.2368 28.1646V29.338C15.2368 29.6198 15.3488 29.8901 15.548 30.0893C15.7473 30.2886 16.0175 30.4005 16.2993 30.4005C16.5811 30.4005 16.8514 30.2886 17.0506 30.0893C17.2499 29.8901 17.3618 29.6198 17.3618 29.338V28.1661C17.7531 28.1172 18.1388 28.0308 18.5136 27.9082C19.2431 27.7188 19.8897 27.2936 20.3527 26.6988C20.8157 26.1039 21.0692 25.3728 21.0738 24.6191C21.0738 21.1358 17.7452 21.1358 16.1458 21.1358Z" fill="#FF5E03"/>
</svg>
