<svg width="49" height="49" viewBox="0 0 49 49" fill="none" xmlns="http://www.w3.org/2000/svg">
<g opacity="0.5" clip-path="url(#clip0_3068_1808)">
<path d="M0.963279 44.6945C0.797584 44.9506 0.805115 45.282 0.985874 45.5305C1.12897 45.7339 1.36245 45.8544 1.60347 45.8544C1.65619 45.8544 1.70891 45.8544 1.76916 45.8393L8.6907 44.3029C10.6866 45.3196 12.9235 45.8544 15.1679 45.8544C22.9781 45.8544 29.3424 39.558 29.4629 31.7703C32.8521 32.6891 36.5652 32.3427 39.7134 30.746L46.6349 32.2749C46.6876 32.29 46.7404 32.29 46.8006 32.29C47.0416 32.29 47.2751 32.1695 47.4182 31.9661C47.5914 31.7176 47.599 31.3862 47.4408 31.1301L44.6164 26.6639C46.5144 24.186 47.5538 21.1206 47.5538 17.9724C47.5538 10.0793 41.1368 3.66235 33.2437 3.66235C25.3506 3.66235 19.0692 9.95877 18.9487 17.7389C17.7437 17.4075 16.4784 17.2192 15.1679 17.2192C7.2597 17.2268 0.842773 23.6437 0.842773 31.5368C0.842773 34.6775 1.88213 37.7428 3.78763 40.2283L0.963279 44.6945ZM33.2287 5.17621C40.2858 5.17621 46.0324 10.9228 46.0324 17.9799C46.0324 20.9549 44.993 23.8546 43.0951 26.1367C42.8842 26.3852 42.8616 26.7467 43.0348 27.0178L45.1813 30.4071L39.7586 29.2095C39.5853 29.1719 39.397 29.1945 39.2389 29.2773C36.2338 30.874 32.6111 31.1828 29.3875 30.1736C28.8754 24.7433 25.3054 20.1867 20.4249 18.2435C20.4249 18.1532 20.4174 18.0628 20.4174 17.9724C20.4174 10.9153 26.164 5.16867 33.2211 5.16867L33.2287 5.17621ZM2.34909 31.5368C2.34909 24.4797 8.09571 18.7331 15.1528 18.7331C22.2099 18.7331 27.9565 24.4797 27.9565 31.5368C27.9565 38.5939 22.2099 44.3405 15.1528 44.3405C13.059 44.3405 10.9803 43.8208 9.13507 42.8342C9.02209 42.774 8.90159 42.7438 8.78108 42.7438C8.72836 42.7438 8.66811 42.7438 8.61539 42.7589L3.20016 43.9564L5.34667 40.5672C5.5199 40.2885 5.4973 39.9345 5.29395 39.686C3.39599 37.3964 2.35663 34.4967 2.35663 31.5217L2.34909 31.5368Z" fill="white"/>
<path d="M15.1532 38.3151C15.7771 38.3151 16.2829 37.8093 16.2829 37.1854C16.2829 36.5615 15.7771 36.0557 15.1532 36.0557C14.5292 36.0557 14.0234 36.5615 14.0234 37.1854C14.0234 37.8093 14.5292 38.3151 15.1532 38.3151Z" fill="white"/>
<path d="M15.1535 25.5114C16.3962 25.5114 17.413 26.5282 17.413 27.7709C17.413 29.0136 16.3962 30.0304 15.1535 30.0304C14.7393 30.0304 14.4003 30.3693 14.4003 30.7836V34.5494H15.9067V31.4614C17.6239 31.115 18.9193 29.5936 18.9193 27.7709C18.9193 25.6922 17.2322 24.0051 15.1535 24.0051C13.0748 24.0051 11.3877 25.6922 11.3877 27.7709H12.894C12.894 26.5282 13.9108 25.5114 15.1535 25.5114Z" fill="white"/>
<path d="M27.2031 12.7078H39.2537V14.2141H27.2031V12.7078Z" fill="white"/>
<path d="M27.2031 17.2268H39.2537V18.7331H27.2031V17.2268Z" fill="white"/>
<path d="M30.2158 21.7456H39.2537V23.2519H30.2158V21.7456Z" fill="white"/>
</g>
<defs>
<clipPath id="clip0_3068_1808">
<rect width="48.2022" height="48.2022" fill="white" transform="translate(0.0898438 0.657227)"/>
</clipPath>
</defs>
</svg>
