<svg width="60" height="60" viewBox="0 0 60 60" fill="none" xmlns="http://www.w3.org/2000/svg">
<g clip-path="url(#clip0_3068_1792)">
<path d="M9.63212 46.6605C9.14549 46.6605 8.75098 46.266 8.75098 45.7793C8.75098 45.2927 9.14549 44.8982 9.63212 44.8982C10.1187 44.8982 10.5133 45.2927 10.5133 45.7793C10.5133 46.266 10.1187 46.6605 9.63212 46.6605Z" fill="black"/>
<path d="M57.0739 31.6346C56.2291 30.1698 54.209 29.5618 52.6661 30.4519L41.4027 36.956C41.034 35.5796 39.7759 34.5633 38.2849 34.5633H32.9074C30.7369 33.6345 28.3851 32.7458 25.9982 32.7458C21.3713 32.7458 17.4377 35.9766 15.1257 39.7599L13.393 38.0272C13.0488 37.6832 12.4909 37.6832 12.1468 38.0272L10.2676 39.9064L9.30271 38.9414C8.88728 38.5974 8.47185 38.5974 8.05654 38.9414L2.79422 44.2039C2.4501 44.5481 2.4501 45.1059 2.79422 45.4501L17.086 59.742C17.5015 60.086 17.9169 60.086 18.3322 59.742L26.0969 51.9772C26.441 51.5618 26.4411 51.1465 26.097 50.731L24.3753 49.0094H33.1986C33.6853 49.0094 33.3089 48.615 33.3089 48.1283C33.3089 47.6415 34.5677 47.2471 34.081 47.2471H22.6132L16.4128 41.0469C17.3613 39.3941 20.6211 34.5081 25.9982 34.5081C28.4037 34.5081 30.5161 36.3256 32.7429 36.3256H38.2849C40.1004 36.3256 40.2553 39.2549 38.2848 39.2549H27.6452C27.1585 39.2549 26.7641 39.6493 26.7641 40.136C26.7641 40.6228 27.1585 41.0172 27.6452 41.0172H38.2848C39.5867 41.0172 40.7302 40.2539 41.2391 39.0854L53.5471 31.9782C54.3628 31.6047 55.0298 31.7842 55.5482 32.5167C55.9933 33.2846 55.4992 34.1228 54.9104 34.5846L40.0573 46.1939C39.1895 46.873 38.1041 47.2471 37.0005 47.2471H32.388C31.9013 47.2471 31.5069 47.6415 31.5069 48.1283C31.5069 48.615 31.9013 49.0094 32.388 49.0094H37.0005C38.496 49.0094 39.9673 48.5023 41.143 47.582L55.9512 36.0077C57.472 34.8501 57.8462 33.3925 57.0739 31.6346ZM17.7091 57.8728L4.66331 44.827L8.67957 40.8106L21.7253 53.8565L17.7091 57.8728ZM22.9715 52.6102L11.5137 41.1525L12.7698 39.8964L24.2277 51.3541L22.9715 52.6102Z" fill="black"/>
<path d="M6.28837 27.3085H19.191C19.6778 27.3085 18.8601 26.847 18.8601 26.3603C18.8601 25.8735 19.7881 25.5462 19.3013 25.5462H7.16952V1.76229H52.8482L52.8482 18.1985C52.8482 18.6853 53.2263 15.8824 53.7131 15.8824C54.1998 15.8824 54.6105 18.0235 54.6105 17.5368L54.6105 0.881145C54.6105 0.394401 54.2161 0 53.7293 0H6.28837C5.80163 0 5.40723 0.394401 5.40723 0.881145V26.4273C5.40723 26.9141 5.80174 27.3085 6.28837 27.3085Z" fill="black"/>
<path d="M18.2444 27.3085H53.7299C54.2166 27.3085 54.611 26.9141 54.611 26.4274V15.5682C54.611 15.0814 54.2166 14.687 53.7299 14.687C53.2432 14.687 52.8488 15.0814 52.8488 15.5682V25.5462H18.2444C17.7577 25.5462 17.3633 25.9406 17.3633 26.4274C17.3633 26.9141 17.7577 27.3085 18.2444 27.3085Z" fill="black"/>
<path d="M46.4318 23.6593C46.6655 23.6593 46.8895 23.5665 47.0549 23.4013L50.7044 19.7518C50.8696 19.5865 50.9624 19.3625 50.9624 19.1287V8.18065C50.9624 7.94755 50.8699 7.72374 50.7053 7.55867L47.0559 3.89687C46.8906 3.73098 46.6659 3.6377 46.4317 3.6377H13.5873C13.3531 3.6377 13.1285 3.73098 12.9631 3.89687L9.3137 7.55867C9.14922 7.72374 9.05664 7.94755 9.05664 8.18065V19.1288C9.05664 19.3625 9.14945 19.5865 9.31464 19.752L12.9641 23.4014C13.1294 23.5666 13.3535 23.6594 13.5873 23.6594H46.4318V23.6593ZM23.592 13.6484C23.592 9.10021 26.4709 5.39999 30.0096 5.39999C33.5483 5.39999 36.4271 9.10021 36.4271 13.6484C36.4271 18.1967 33.5483 21.897 30.0096 21.897C26.4709 21.897 23.592 18.1967 23.592 13.6484ZM46.0659 5.39999L49.2001 8.54473V18.7638L46.0667 21.897H34.6375C36.7808 20.0902 38.1893 17.0674 38.1893 13.6484C38.1893 10.2295 36.7808 7.2068 34.6375 5.39999H46.0659ZM13.9523 21.897L10.819 18.7638V8.54473L13.9532 5.39999H25.3816C23.2383 7.2068 21.8297 10.2295 21.8297 13.6484C21.8297 17.0674 23.2383 20.0902 25.3816 21.897H13.9523Z" fill="black"/>
<path d="M16.324 10.9487C14.832 10.9487 13.6182 12.1626 13.6182 13.6546C13.6182 15.1465 14.832 16.3604 16.324 16.3604C17.8159 16.3604 19.0298 15.1465 19.0298 13.6546C19.0298 12.1626 17.8159 10.9487 16.324 10.9487ZM16.324 14.5982C15.8036 14.5982 15.3805 14.1749 15.3805 13.6547C15.3805 13.1344 15.8038 12.7111 16.324 12.7111C16.8442 12.7111 17.2675 13.1344 17.2675 13.6547C17.2675 14.1749 16.8443 14.5982 16.324 14.5982Z" fill="#FF5E03"/>
<path d="M43.6941 16.3604C45.1861 16.3604 46.3999 15.1465 46.3999 13.6546C46.3999 12.1626 45.1861 10.9487 43.6941 10.9487C42.2021 10.9487 40.9883 12.1626 40.9883 13.6546C40.9883 15.1465 42.2021 16.3604 43.6941 16.3604ZM43.6941 12.7109C44.2144 12.7109 44.6376 13.1342 44.6376 13.6544C44.6376 14.1747 44.2143 14.598 43.6941 14.598C43.1739 14.598 42.7506 14.1747 42.7506 13.6544C42.7506 13.1342 43.1738 12.7109 43.6941 12.7109Z" fill="#FF5E03"/>
<path d="M26.2355 12.6695H33.7838C34.1401 12.6695 34.4615 12.4549 34.5978 12.1256C34.7342 11.7962 34.6589 11.4173 34.4069 11.1653L32.5824 9.34067C32.2382 8.99655 31.6803 8.99643 31.3363 9.34055C30.9921 9.68466 30.9921 10.2426 31.3362 10.5866L31.6568 10.9072H26.2356C25.7489 10.9072 25.3545 11.3016 25.3545 11.7884C25.3545 12.2751 25.7488 12.6695 26.2355 12.6695Z" fill="#FF5E03"/>
<path d="M34.6642 15.4378C34.6642 14.951 34.2698 14.5566 33.7831 14.5566H26.2347C25.8784 14.5566 25.5569 14.7713 25.4206 15.1006C25.2842 15.4299 25.3596 15.8088 25.6116 16.0609L27.4362 17.8856C27.8517 18.2296 28.2671 18.2296 28.6824 17.8856C29.0265 17.5414 29.0265 16.9835 28.6824 16.6394L28.3618 16.3189H33.7829C34.2697 16.3189 34.6642 15.9245 34.6642 15.4378Z" fill="#FF5E03"/>
</g>
<defs>
<clipPath id="clip0_3068_1792">
<rect width="60" height="60" fill="white"/>
</clipPath>
</defs>
</svg>
